<svg width="60" height="60" viewBox="0 0 60 60" fill="none" xmlns="http://www.w3.org/2000/svg">
<path d="M54.7311 29.2309H56.805C58.2682 29.2309 58.9998 29.7437 58.9998 30.7691C58.9998 31.4719 58.7406 32.0192 58.2221 32.4109C57.7037 32.8027 56.9893 32.9985 56.0791 32.9985H52.4671C51.7642 32.9985 51.1709 32.7854 50.687 32.3591C50.2146 31.9328 49.9784 31.397 49.9784 30.7518C49.9784 30.3601 50.1397 29.7725 50.4623 28.989L51.9832 25.2214C52.1445 24.8297 52.2309 24.5128 52.2424 24.2709C52.2539 23.9944 52.1387 23.7582 51.8967 23.5623C51.6663 23.3664 51.3667 23.2685 50.9981 23.2685C49.8113 23.2685 48.855 24.1614 48.1292 25.9473L46.0898 30.9592C45.4792 32.4801 44.569 33.2405 43.3592 33.2405C42.8638 33.2405 42.4432 33.0907 42.0976 32.7911C41.7519 32.4916 41.5791 32.1229 41.5791 31.6851C41.5791 31.3625 41.6713 30.9765 41.8556 30.5271L42.0457 30.0605L45.5368 21.4538C45.9861 20.3362 46.7523 19.7774 47.8354 19.7774C48.7225 19.7774 49.3562 20.1692 49.7364 20.9526C50.9692 20.0079 52.1445 19.5355 53.2621 19.5355C54.3451 19.5355 55.238 19.8466 55.9408 20.4687C56.6437 21.0909 56.9951 21.8801 56.9951 22.8364C56.9951 23.3664 56.8683 23.9483 56.6149 24.582L54.7311 29.2309Z" fill="#6E422D"/>
<path d="M37.1202 29.2309H39.0731C40.5249 29.2309 41.2507 29.7437 41.2507 30.7691C41.2507 31.4719 40.9915 32.0192 40.473 32.4109C39.9661 32.8027 39.2517 32.9985 38.33 32.9985H35.5821C34.5682 32.9985 33.7674 32.7911 33.1798 32.3764C32.6037 31.9616 32.3157 31.397 32.3157 30.6827C32.3157 30.3025 32.4367 29.8185 32.6786 29.2309L35.5302 22.2143L35.7203 21.7303C36.2503 20.4284 37.1029 19.7774 38.2781 19.7774C38.762 19.7774 39.1768 19.9387 39.5225 20.2613C39.8796 20.5839 40.0582 20.9699 40.0582 21.4193C40.0582 21.788 39.9027 22.3525 39.5916 23.1129L37.1202 29.2309ZM39.4015 14.2643C40.0697 14.2643 40.6343 14.5005 41.0952 14.9729C41.5676 15.4338 41.8038 15.9983 41.8038 16.6666C41.8038 17.3348 41.5676 17.9052 41.0952 18.3775C40.6343 18.8384 40.0697 19.0688 39.4015 19.0688C38.7332 19.0688 38.1629 18.8384 37.6905 18.3775C37.2297 17.9052 36.9992 17.3348 36.9992 16.6666C36.9992 15.9983 37.2297 15.4338 37.6905 14.9729C38.1629 14.5005 38.7332 14.2643 39.4015 14.2643Z" fill="#6E422D"/>
<path d="M27.5113 29.2309H29.4642C30.916 29.2309 31.6418 29.7437 31.6418 30.7691C31.6418 31.4719 31.3826 32.0192 30.8641 32.4109C30.3572 32.8027 29.6428 32.9985 28.7211 32.9985H25.9732C24.9593 32.9985 24.1585 32.7911 23.5709 32.3764C22.9948 31.9616 22.7068 31.397 22.7068 30.6827C22.7068 30.3025 22.8278 29.8185 23.0697 29.2309L25.9213 22.2143L26.1114 21.7303C26.6414 20.4284 27.494 19.7774 28.6692 19.7774C29.1532 19.7774 29.5679 19.9387 29.9136 20.2613C30.2708 20.5839 30.4493 20.9699 30.4493 21.4193C30.4493 21.788 30.2938 22.3525 29.9827 23.1129L27.5113 29.2309ZM29.7926 14.2643C30.4609 14.2643 31.0254 14.5005 31.4863 14.9729C31.9587 15.4338 32.1949 15.9983 32.1949 16.6666C32.1949 17.3348 31.9587 17.9052 31.4863 18.3775C31.0254 18.8384 30.4609 19.0688 29.7926 19.0688C29.1243 19.0688 28.554 18.8384 28.0816 18.3775C27.6208 17.9052 27.3903 17.3348 27.3903 16.6666C27.3903 15.9983 27.6208 15.4338 28.0816 14.9729C28.554 14.5005 29.1243 14.2643 29.7926 14.2643Z" fill="#6E422D"/>
<path d="M17.4184 33.7071H19.3194C20.7712 33.7071 21.497 34.2198 21.497 35.2452C21.497 35.9365 21.2378 36.4781 20.7193 36.8698C20.2124 37.2731 19.498 37.4747 18.5763 37.4747H15.8802L14.6532 39.9461L14.152 40.9657C12.562 44.1457 10.2807 45.7357 7.3081 45.7357C5.52225 45.7357 4.02443 45.1884 2.81466 44.0939C1.60489 43.0108 1 41.657 1 40.0325C1 39.0762 1.23619 38.1372 1.70858 37.2154C2.18097 36.3052 2.80314 35.5794 3.57509 35.0379C4.83095 34.1507 6.77235 33.7071 9.39928 33.7071H12.994L16.9172 24.0289H15.0507C13.5874 24.0289 12.8558 23.5162 12.8558 22.4908C12.8558 21.788 13.1093 21.2407 13.6162 20.8489C14.1347 20.4572 14.8605 20.2613 15.7938 20.2613H19.9243C21.3184 20.2613 22.0155 20.8432 22.0155 22.0069C22.0155 22.4562 21.8945 22.9747 21.6526 23.5623L17.4184 33.7071ZM11.4559 37.4747H9.03635C6.39789 37.4747 5.07866 38.3273 5.07866 40.0325C5.07866 40.5855 5.26301 41.0349 5.6317 41.3805C6.0004 41.7377 6.47855 41.9163 7.06615 41.9163C7.90723 41.9163 8.65614 41.5879 9.31287 40.9312C9.95808 40.286 10.6724 39.1338 11.4559 37.4747ZM21.7044 14.2643C22.3727 14.2643 22.9372 14.5005 23.3981 14.9729C23.8705 15.4338 24.1067 15.9983 24.1067 16.6666C24.1067 17.3348 23.8705 17.9052 23.3981 18.3775C22.9372 18.8384 22.3727 19.0688 21.7044 19.0688C21.0362 19.0688 20.4658 18.8384 19.9934 18.3775C19.5326 17.9052 19.3021 17.3348 19.3021 16.6666C19.3021 15.9983 19.5326 15.4338 19.9934 14.9729C20.4658 14.5005 21.0362 14.2643 21.7044 14.2643Z" fill="#6E422D"/>
</svg>
