<svg width="60" height="60" viewBox="0 0 60 60" fill="none" xmlns="http://www.w3.org/2000/svg">
<path d="M54.7311 33.2309H56.805C58.2682 33.2309 58.9998 33.7437 58.9998 34.7691C58.9998 35.4719 58.7406 36.0192 58.2221 36.4109C57.7037 36.8027 56.9893 36.9985 56.0791 36.9985H52.4671C51.7642 36.9985 51.1709 36.7854 50.687 36.3591C50.2146 35.9328 49.9784 35.397 49.9784 34.7518C49.9784 34.3601 50.1397 33.7725 50.4623 32.989L51.9832 29.2214C52.1445 28.8297 52.2309 28.5128 52.2424 28.2709C52.2539 27.9944 52.1387 27.7582 51.8967 27.5623C51.6663 27.3664 51.3667 27.2685 50.9981 27.2685C49.8113 27.2685 48.855 28.1614 48.1292 29.9473L46.0898 34.9592C45.4792 36.4801 44.569 37.2405 43.3592 37.2405C42.8638 37.2405 42.4432 37.0907 42.0976 36.7911C41.7519 36.4916 41.5791 36.1229 41.5791 35.6851C41.5791 35.3625 41.6713 34.9765 41.8556 34.5271L42.0457 34.0605L45.5368 25.4538C45.9861 24.3362 46.7523 23.7774 47.8354 23.7774C48.7225 23.7774 49.3562 24.1692 49.7364 24.9526C50.9692 24.0079 52.1445 23.5355 53.2621 23.5355C54.3451 23.5355 55.238 23.8466 55.9408 24.4687C56.6437 25.0909 56.9951 25.8801 56.9951 26.8364C56.9951 27.3664 56.8683 27.9483 56.6149 28.582L54.7311 33.2309Z" fill="#4E3C29"/>
<path d="M37.1202 33.2309H39.0731C40.5249 33.2309 41.2507 33.7437 41.2507 34.7691C41.2507 35.4719 40.9915 36.0192 40.473 36.4109C39.9661 36.8027 39.2517 36.9985 38.33 36.9985H35.5821C34.5682 36.9985 33.7674 36.7911 33.1798 36.3764C32.6037 35.9616 32.3157 35.397 32.3157 34.6827C32.3157 34.3025 32.4367 33.8185 32.6786 33.2309L35.5302 26.2143L35.7203 25.7303C36.2503 24.4284 37.1029 23.7774 38.2781 23.7774C38.762 23.7774 39.1768 23.9387 39.5225 24.2613C39.8796 24.5839 40.0582 24.9699 40.0582 25.4193C40.0582 25.788 39.9027 26.3525 39.5916 27.1129L37.1202 33.2309ZM39.4015 18.2643C40.0697 18.2643 40.6343 18.5005 41.0952 18.9729C41.5676 19.4338 41.8038 19.9983 41.8038 20.6666C41.8038 21.3348 41.5676 21.9052 41.0952 22.3775C40.6343 22.8384 40.0697 23.0688 39.4015 23.0688C38.7332 23.0688 38.1629 22.8384 37.6905 22.3775C37.2297 21.9052 36.9992 21.3348 36.9992 20.6666C36.9992 19.9983 37.2297 19.4338 37.6905 18.9729C38.1629 18.5005 38.7332 18.2643 39.4015 18.2643Z" fill="#4E3C29"/>
<path d="M27.5113 33.2309H29.4642C30.916 33.2309 31.6418 33.7437 31.6418 34.7691C31.6418 35.4719 31.3826 36.0192 30.8641 36.4109C30.3572 36.8027 29.6428 36.9985 28.7211 36.9985H25.9732C24.9593 36.9985 24.1585 36.7911 23.5709 36.3764C22.9948 35.9616 22.7068 35.397 22.7068 34.6827C22.7068 34.3025 22.8278 33.8185 23.0697 33.2309L25.9213 26.2143L26.1114 25.7303C26.6414 24.4284 27.494 23.7774 28.6692 23.7774C29.1532 23.7774 29.5679 23.9387 29.9136 24.2613C30.2708 24.5839 30.4493 24.9699 30.4493 25.4193C30.4493 25.788 30.2938 26.3525 29.9827 27.1129L27.5113 33.2309ZM29.7926 18.2643C30.4609 18.2643 31.0254 18.5005 31.4863 18.9729C31.9587 19.4338 32.1949 19.9983 32.1949 20.6666C32.1949 21.3348 31.9587 21.9052 31.4863 22.3775C31.0254 22.8384 30.4609 23.0688 29.7926 23.0688C29.1243 23.0688 28.554 22.8384 28.0816 22.3775C27.6208 21.9052 27.3903 21.3348 27.3903 20.6666C27.3903 19.9983 27.6208 19.4338 28.0816 18.9729C28.554 18.5005 29.1243 18.2643 29.7926 18.2643Z" fill="#4E3C29"/>
<path d="M17.4184 37.7071H19.3194C20.7712 37.7071 21.497 38.2198 21.497 39.2452C21.497 39.9365 21.2378 40.4781 20.7193 40.8698C20.2124 41.2731 19.498 41.4747 18.5763 41.4747H15.8802L14.6532 43.9461L14.152 44.9657C12.562 48.1457 10.2807 49.7357 7.3081 49.7357C5.52225 49.7357 4.02443 49.1884 2.81466 48.0939C1.60489 47.0108 1 45.657 1 44.0325C1 43.0762 1.23619 42.1372 1.70858 41.2154C2.18097 40.3052 2.80314 39.5794 3.57509 39.0379C4.83095 38.1507 6.77235 37.7071 9.39928 37.7071H12.994L16.9172 28.0289H15.0507C13.5874 28.0289 12.8558 27.5162 12.8558 26.4908C12.8558 25.788 13.1093 25.2407 13.6162 24.8489C14.1347 24.4572 14.8605 24.2613 15.7938 24.2613H19.9243C21.3184 24.2613 22.0155 24.8432 22.0155 26.0069C22.0155 26.4562 21.8945 26.9747 21.6526 27.5623L17.4184 37.7071ZM11.4559 41.4747H9.03635C6.39789 41.4747 5.07866 42.3273 5.07866 44.0325C5.07866 44.5855 5.26301 45.0349 5.6317 45.3805C6.0004 45.7377 6.47855 45.9163 7.06615 45.9163C7.90723 45.9163 8.65614 45.5879 9.31287 44.9312C9.95808 44.286 10.6724 43.1338 11.4559 41.4747ZM21.7044 18.2643C22.3727 18.2643 22.9372 18.5005 23.3981 18.9729C23.8705 19.4338 24.1067 19.9983 24.1067 20.6666C24.1067 21.3348 23.8705 21.9052 23.3981 22.3775C22.9372 22.8384 22.3727 23.0688 21.7044 23.0688C21.0362 23.0688 20.4658 22.8384 19.9934 22.3775C19.5326 21.9052 19.3021 21.3348 19.3021 20.6666C19.3021 19.9983 19.5326 19.4338 19.9934 18.9729C20.4658 18.5005 21.0362 18.2643 21.7044 18.2643Z" fill="#4E3C29"/>
</svg>
