<svg width="50" height="28" viewBox="0 0 50 28" fill="none" xmlns="http://www.w3.org/2000/svg">
<path d="M45.4672 13.3636H47.1836C48.3945 13.3636 49 13.7879 49 14.6365C49 15.2182 48.7855 15.6711 48.3564 15.9953C47.9273 16.3195 47.3361 16.4816 46.5828 16.4816H43.5936C43.0119 16.4816 42.5209 16.3052 42.1204 15.9524C41.7294 15.5996 41.534 15.1562 41.534 14.6222C41.534 14.298 41.6675 13.8117 41.9344 13.1634L43.1931 10.0454C43.3266 9.72116 43.3981 9.45894 43.4076 9.2587C43.4172 9.02986 43.3218 8.83439 43.1216 8.67229C42.9309 8.51019 42.683 8.42915 42.3778 8.42915C41.3957 8.42915 40.6043 9.16812 40.0036 10.6461L38.3159 14.7939C37.8105 16.0525 37.0572 16.6818 36.056 16.6818C35.646 16.6818 35.298 16.5579 35.0119 16.31C34.7259 16.062 34.5828 15.7569 34.5828 15.3946C34.5828 15.1276 34.6591 14.8082 34.8117 14.4363L34.969 14.0501L37.8582 6.92736C38.23 6.00245 38.8641 5.53999 39.7604 5.53999C40.4946 5.53999 41.0191 5.86419 41.3337 6.51258C42.354 5.73069 43.3266 5.33975 44.2515 5.33975C45.1478 5.33975 45.8868 5.5972 46.4684 6.1121C47.0501 6.627 47.3409 7.28016 47.3409 8.07158C47.3409 8.51019 47.236 8.99172 47.0262 9.51615L45.4672 13.3636Z" fill="#121212"/>
<path d="M30.8927 13.3636H32.5089C33.7104 13.3636 34.3111 13.7879 34.3111 14.6365C34.3111 15.2182 34.0965 15.6711 33.6675 15.9953C33.2479 16.3195 32.6567 16.4816 31.8939 16.4816H29.6198C28.7807 16.4816 28.118 16.31 27.6317 15.9667C27.1549 15.6234 26.9166 15.1562 26.9166 14.565C26.9166 14.2504 27.0167 13.8499 27.2169 13.3636L29.5769 7.55668L29.7342 7.1562C30.1728 6.07873 30.8784 5.53999 31.851 5.53999C32.2515 5.53999 32.5948 5.67348 32.8808 5.94047C33.1764 6.20745 33.3242 6.52688 33.3242 6.89875C33.3242 7.20388 33.1955 7.6711 32.938 8.30042L30.8927 13.3636ZM32.7807 0.977417C33.3337 0.977417 33.801 1.17289 34.1824 1.56383C34.5733 1.94524 34.7688 2.41246 34.7688 2.9655C34.7688 3.51854 34.5733 3.99053 34.1824 4.38147C33.801 4.76288 33.3337 4.95358 32.7807 4.95358C32.2277 4.95358 31.7557 4.76288 31.3647 4.38147C30.9833 3.99053 30.7926 3.51854 30.7926 2.9655C30.7926 2.41246 30.9833 1.94524 31.3647 1.56383C31.7557 1.17289 32.2277 0.977417 32.7807 0.977417Z" fill="#121212"/>
<path d="M22.9404 13.3636H24.5566C25.758 13.3636 26.3588 13.7879 26.3588 14.6365C26.3588 15.2182 26.1442 15.6711 25.7151 15.9953C25.2956 16.3195 24.7044 16.4816 23.9416 16.4816H21.6675C20.8284 16.4816 20.1657 16.31 19.6794 15.9667C19.2026 15.6234 18.9642 15.1562 18.9642 14.565C18.9642 14.2504 19.0644 13.8499 19.2646 13.3636L21.6246 7.55668L21.7819 7.1562C22.2205 6.07873 22.9261 5.53999 23.8987 5.53999C24.2992 5.53999 24.6424 5.67348 24.9285 5.94047C25.2241 6.20745 25.3719 6.52688 25.3719 6.89875C25.3719 7.20388 25.2431 7.6711 24.9857 8.30042L22.9404 13.3636ZM24.8284 0.977417C25.3814 0.977417 25.8486 1.17289 26.23 1.56383C26.621 1.94524 26.8164 2.41246 26.8164 2.9655C26.8164 3.51854 26.621 3.99053 26.23 4.38147C25.8486 4.76288 25.3814 4.95358 24.8284 4.95358C24.2753 4.95358 23.8033 4.76288 23.4124 4.38147C23.031 3.99053 22.8403 3.51854 22.8403 2.9655C22.8403 2.41246 23.031 1.94524 23.4124 1.56383C23.8033 1.17289 24.2753 0.977417 24.8284 0.977417Z" fill="#121212"/>
<path d="M14.5876 17.068H16.1609C17.3623 17.068 17.9631 17.4923 17.9631 18.3409C17.9631 18.9131 17.7485 19.3612 17.3194 19.6854C16.8999 20.0191 16.3087 20.186 15.5459 20.186H13.3147L12.2992 22.2313L11.8844 23.0752C10.5685 25.7069 8.68057 27.0227 6.2205 27.0227C4.74255 27.0227 3.50298 26.5698 2.50179 25.6639C1.5006 24.7676 1 23.6473 1 22.3028C1 21.5114 1.19547 20.7343 1.58641 19.9715C1.97735 19.2182 2.49225 18.6175 3.13111 18.1693C4.17044 17.4351 5.77712 17.068 7.95113 17.068H10.9261L14.1728 9.05847H12.6281C11.4172 9.05847 10.8117 8.63415 10.8117 7.78552C10.8117 7.20388 11.0215 6.75096 11.441 6.42676C11.8701 6.10257 12.4708 5.94047 13.2431 5.94047H16.6615C17.8153 5.94047 18.3921 6.42199 18.3921 7.38504C18.3921 7.75692 18.292 8.186 18.0918 8.67229L14.5876 17.068ZM9.65316 20.186H7.65077C5.46722 20.186 4.37545 20.8916 4.37545 22.3028C4.37545 22.7605 4.52801 23.1324 4.83313 23.4184C5.13826 23.714 5.53397 23.8618 6.02026 23.8618C6.71633 23.8618 7.33611 23.5901 7.87962 23.0465C8.41359 22.5126 9.00477 21.5591 9.65316 20.186ZM18.1347 0.977417C18.6877 0.977417 19.1549 1.17289 19.5364 1.56383C19.9273 1.94524 20.1228 2.41246 20.1228 2.9655C20.1228 3.51854 19.9273 3.99053 19.5364 4.38147C19.1549 4.76288 18.6877 4.95358 18.1347 4.95358C17.5816 4.95358 17.1097 4.76288 16.7187 4.38147C16.3373 3.99053 16.1466 3.51854 16.1466 2.9655C16.1466 2.41246 16.3373 1.94524 16.7187 1.56383C17.1097 1.17289 17.5816 0.977417 18.1347 0.977417Z" fill="#121212"/>
</svg>
