<svg width="50" height="28" viewBox="0 0 50 28" fill="none" xmlns="http://www.w3.org/2000/svg">
<path d="M45.4672 13.3635H47.1836C48.3945 13.3635 49 13.7878 49 14.6364C49 15.2181 48.7855 15.671 48.3564 15.9952C47.9273 16.3194 47.3361 16.4815 46.5828 16.4815H43.5936C43.0119 16.4815 42.5209 16.3051 42.1204 15.9523C41.7294 15.5995 41.534 15.1561 41.534 14.6221C41.534 14.2979 41.6675 13.8116 41.9344 13.1632L43.1931 10.0452C43.3266 9.72104 43.3981 9.45882 43.4076 9.25858C43.4172 9.02974 43.3218 8.83427 43.1216 8.67217C42.9309 8.51007 42.683 8.42902 42.3778 8.42902C41.3957 8.42902 40.6043 9.168 40.0036 10.6459L38.3159 14.7937C37.8105 16.0524 37.0572 16.6817 36.056 16.6817C35.646 16.6817 35.298 16.5577 35.0119 16.3098C34.7259 16.0619 34.5828 15.7568 34.5828 15.3945C34.5828 15.1275 34.6591 14.808 34.8117 14.4362L34.969 14.05L37.8582 6.92724C38.23 6.00232 38.8641 5.53987 39.7604 5.53987C40.4946 5.53987 41.0191 5.86406 41.3337 6.51246C42.354 5.73057 43.3266 5.33963 44.2515 5.33963C45.1478 5.33963 45.8868 5.59708 46.4684 6.11198C47.0501 6.62688 47.3409 7.28004 47.3409 8.07145C47.3409 8.51007 47.236 8.9916 47.0262 9.51603L45.4672 13.3635Z" fill="white"/>
<path d="M30.8927 13.3635H32.5089C33.7104 13.3635 34.3111 13.7878 34.3111 14.6364C34.3111 15.2181 34.0965 15.671 33.6675 15.9952C33.2479 16.3194 32.6567 16.4815 31.8939 16.4815H29.6198C28.7807 16.4815 28.118 16.3098 27.6317 15.9666C27.1549 15.6233 26.9166 15.1561 26.9166 14.5649C26.9166 14.2502 27.0167 13.8498 27.2169 13.3635L29.5769 7.55656L29.7342 7.15608C30.1728 6.07861 30.8784 5.53987 31.851 5.53987C32.2515 5.53987 32.5948 5.67336 32.8808 5.94035C33.1764 6.20733 33.3242 6.52676 33.3242 6.89863C33.3242 7.20375 33.1955 7.67098 32.938 8.3003L30.8927 13.3635ZM32.7807 0.977295C33.3337 0.977295 33.801 1.17277 34.1824 1.56371C34.5733 1.94511 34.7688 2.41234 34.7688 2.96538C34.7688 3.51842 34.5733 3.99041 34.1824 4.38135C33.801 4.76275 33.3337 4.95346 32.7807 4.95346C32.2277 4.95346 31.7557 4.76275 31.3647 4.38135C30.9833 3.99041 30.7926 3.51842 30.7926 2.96538C30.7926 2.41234 30.9833 1.94511 31.3647 1.56371C31.7557 1.17277 32.2277 0.977295 32.7807 0.977295Z" fill="white"/>
<path d="M22.9404 13.3635H24.5566C25.758 13.3635 26.3588 13.7878 26.3588 14.6364C26.3588 15.2181 26.1442 15.671 25.7151 15.9952C25.2956 16.3194 24.7044 16.4815 23.9416 16.4815H21.6675C20.8284 16.4815 20.1657 16.3098 19.6794 15.9666C19.2026 15.6233 18.9642 15.1561 18.9642 14.5649C18.9642 14.2502 19.0644 13.8498 19.2646 13.3635L21.6246 7.55656L21.7819 7.15608C22.2205 6.07861 22.9261 5.53987 23.8987 5.53987C24.2992 5.53987 24.6424 5.67336 24.9285 5.94035C25.2241 6.20733 25.3719 6.52676 25.3719 6.89863C25.3719 7.20375 25.2431 7.67098 24.9857 8.3003L22.9404 13.3635ZM24.8284 0.977295C25.3814 0.977295 25.8486 1.17277 26.23 1.56371C26.621 1.94511 26.8164 2.41234 26.8164 2.96538C26.8164 3.51842 26.621 3.99041 26.23 4.38135C25.8486 4.76275 25.3814 4.95346 24.8284 4.95346C24.2753 4.95346 23.8033 4.76275 23.4124 4.38135C23.031 3.99041 22.8403 3.51842 22.8403 2.96538C22.8403 2.41234 23.031 1.94511 23.4124 1.56371C23.8033 1.17277 24.2753 0.977295 24.8284 0.977295Z" fill="white"/>
<path d="M14.5876 17.0679H16.1609C17.3623 17.0679 17.9631 17.4922 17.9631 18.3408C17.9631 18.9129 17.7485 19.3611 17.3194 19.6853C16.8999 20.019 16.3087 20.1859 15.5459 20.1859H13.3147L12.2992 22.2312L11.8844 23.075C10.5685 25.7067 8.68057 27.0226 6.2205 27.0226C4.74255 27.0226 3.50298 26.5697 2.50179 25.6638C1.5006 24.7675 1 23.6471 1 22.3027C1 21.5113 1.19547 20.7341 1.58641 19.9713C1.97735 19.2181 2.49225 18.6173 3.13111 18.1692C4.17044 17.435 5.77712 17.0679 7.95113 17.0679H10.9261L14.1728 9.05834H12.6281C11.4172 9.05834 10.8117 8.63403 10.8117 7.7854C10.8117 7.20375 11.0215 6.75083 11.441 6.42664C11.8701 6.10244 12.4708 5.94035 13.2431 5.94035H16.6615C17.8153 5.94035 18.3921 6.42187 18.3921 7.38492C18.3921 7.75679 18.292 8.18588 18.0918 8.67217L14.5876 17.0679ZM9.65316 20.1859H7.65077C5.46722 20.1859 4.37545 20.8915 4.37545 22.3027C4.37545 22.7604 4.52801 23.1322 4.83313 23.4183C5.13826 23.7139 5.53397 23.8617 6.02026 23.8617C6.71633 23.8617 7.33611 23.5899 7.87962 23.0464C8.41359 22.5125 9.00477 21.5589 9.65316 20.1859ZM18.1347 0.977295C18.6877 0.977295 19.1549 1.17277 19.5364 1.56371C19.9273 1.94511 20.1228 2.41234 20.1228 2.96538C20.1228 3.51842 19.9273 3.99041 19.5364 4.38135C19.1549 4.76275 18.6877 4.95346 18.1347 4.95346C17.5816 4.95346 17.1097 4.76275 16.7187 4.38135C16.3373 3.99041 16.1466 3.51842 16.1466 2.96538C16.1466 2.41234 16.3373 1.94511 16.7187 1.56371C17.1097 1.17277 17.5816 0.977295 18.1347 0.977295Z" fill="white"/>
</svg>
