<svg width="0" height="0" fill="none" style="visibility: hidden; position: absolute;" aria-hidden="true">
    <symbol id="arrow-bottom" width="24" height="24" viewBox="0 0 24 24" fill="none" xmlns="http://www.w3.org/2000/svg">
        <path d="M20.0001 8.71692L12.0001 16.7169L4.00009 8.71692L5.43369 7.28333L12.0001 13.8497L18.5675 7.28333L20.0001 8.71692Z" fill="currentColor"/>
    </symbol>
    <symbol id="arrow-left" width="24" height="24" viewBox="0 0 24 24" fill="none" xmlns="http://www.w3.org/2000/svg">
        <path d="M16.7159 5.43262L10.1486 11.999L16.7159 18.5664L15.2833 20L7.28333 12L8.71594 10.5664L15.2833 4L16.7159 5.43262Z" fill="currentColor"/>
    </symbol>
    <symbol id="arrow-right" width="24" height="24" viewBox="0 0 24 24" fill="none" xmlns="http://www.w3.org/2000/svg">
        <path d="M16.716 12L8.71597 20L7.28336 18.5664L13.8498 11.999L7.28336 5.43262L8.71597 4L16.716 12Z" fill="currentColor"/>
    </symbol>
    <symbol id="arrow-top" width="24" height="24" viewBox="0 0 24 24" fill="none" xmlns="http://www.w3.org/2000/svg">
        <path d="M12 7.28339L13.4336 8.716H13.4326L20 15.2834L18.5674 16.717L12 10.1486L5.43359 16.717L4 15.2834L12 7.28339Z" fill="currentColor"/>
    </symbol>
    <symbol id="close" width="25" height="25" viewBox="0 0 25 25" fill="none" xmlns="http://www.w3.org/2000/svg">
        <path d="M6.44688 19.8638L5.04688 18.4638L10.6469 12.8638L5.04688 7.26377L6.44688 5.86377L12.0469 11.4638L17.6469 5.86377L19.0469 7.26377L13.4469 12.8638L19.0469 18.4638L17.6469 19.8638L12.0469 14.2638L6.44688 19.8638Z" fill="currentColor"/>
    </symbol>
    <symbol id="direction-bottom" width="24" height="24" viewBox="0 0 24 24" fill="none" xmlns="http://www.w3.org/2000/svg">
        <path d="M11 4H13V16L18.5 10.5L19.92 11.92L12 19.84L4.08 11.92L5.5 10.5L11 16V4Z" fill="currentColor"/>
    </symbol>
    <symbol id="direction-left" width="24" height="24" viewBox="0 0 24 24" fill="none" xmlns="http://www.w3.org/2000/svg">
        <path d="M20 11V13H8L13.5 18.5L12.08 19.92L4.16 12L12.08 4.08002L13.5 5.50002L8 11H20Z" fill="currentColor"/>
    </symbol>
    <symbol id="direction-right" width="24" height="24" viewBox="0 0 24 24" fill="none" xmlns="http://www.w3.org/2000/svg">
        <path d="M4 11V13H16L10.5 18.5L11.92 19.92L19.84 12L11.92 4.08002L10.5 5.50002L16 11H4Z" fill="currentColor"/>
    </symbol>
    <symbol id="direction-top" width="24" height="24" viewBox="0 0 24 24" fill="none" xmlns="http://www.w3.org/2000/svg">
        <path d="M13 20H11V7.99997L5.5 13.5L4.08 12.08L12 4.15997L19.92 12.08L18.5 13.5L13 7.99997V20Z" fill="currentColor"/>
    </symbol>
    <symbol id="download" width="25" height="25" viewBox="0 0 25 25" fill="none" xmlns="http://www.w3.org/2000/svg">
        <g clip-path="url(#clip0_453_641__download)">
            <mask id="mask0_453_641__download" style="mask-type:alpha" maskUnits="userSpaceOnUse" x="0" y="0" width="25" height="25">
                <rect x="0.046875" y="0.86377" width="24" height="24" fill="#D9D9D9"/>
            </mask>
            <g mask="url(#mask0_453_641__download)">
                <path d="M12.0466 16.8636L7.04663 11.8636L8.44663 10.4136L11.0466 13.0136V4.86365H13.0466V13.0136L15.6466 10.4136L17.0466 11.8636L12.0466 16.8636ZM6.04663 20.8636C5.49663 20.8636 5.0258 20.6678 4.63413 20.2761C4.24246 19.8845 4.04663 19.4136 4.04663 18.8636V15.8636H6.04663V18.8636H18.0466V15.8636H20.0466V18.8636C20.0466 19.4136 19.8508 19.8845 19.4591 20.2761C19.0675 20.6678 18.5966 20.8636 18.0466 20.8636H6.04663Z" fill="currentColor"/>
            </g>
        </g>
        <defs>
            <clipPath id="clip0_453_641__download">
                <rect width="24" height="24" fill="white" transform="translate(0.046875 0.86377)"/>
            </clipPath>
        </defs>
    </symbol>
    <symbol id="grid" width="25" height="25" viewBox="0 0 25 25" fill="none" xmlns="http://www.w3.org/2000/svg">
        <path d="M3.04688 11.8638H11.0469V3.86377H3.04688M5.04688 5.86377H9.04688V9.86377H5.04688M13.0469 21.8638H21.0469V13.8638H13.0469M15.0469 15.8638H19.0469V19.8638H15.0469M3.04688 21.8638H11.0469V13.8638H3.04688M5.04688 15.8638H9.04688V19.8638H5.04688M13.0469 3.86377V11.8638H21.0469V3.86377M19.0469 9.86377H15.0469V5.86377H19.0469V9.86377Z" fill="currentColor"/>
    </symbol>
    <symbol id="list" width="25" height="25" viewBox="0 0 25 25" fill="none" xmlns="http://www.w3.org/2000/svg">
        <path d="M7.04688 9.86377V7.86377H21.0469V9.86377H7.04688ZM7.04688 13.8638V11.8638H21.0469V13.8638H7.04688ZM7.04688 17.8638V15.8638H21.0469V17.8638H7.04688ZM4.04688 9.86377C3.76355 9.86377 3.52621 9.76777 3.33488 9.57577C3.14355 9.38377 3.04755 9.14644 3.04688 8.86377C3.04621 8.5811 3.14221 8.34377 3.33488 8.15177C3.52755 7.95977 3.76488 7.86377 4.04688 7.86377C4.32888 7.86377 4.56654 7.95977 4.75988 8.15177C4.95321 8.34377 5.04888 8.5811 5.04688 8.86377C5.04488 9.14644 4.94888 9.3841 4.75888 9.57677C4.56888 9.76944 4.33155 9.8651 4.04688 9.86377ZM4.04688 13.8638C3.76355 13.8638 3.52621 13.7678 3.33488 13.5758C3.14355 13.3838 3.04755 13.1464 3.04688 12.8638C3.04621 12.5811 3.14221 12.3438 3.33488 12.1518C3.52755 11.9598 3.76488 11.8638 4.04688 11.8638C4.32888 11.8638 4.56654 11.9598 4.75988 12.1518C4.95321 12.3438 5.04888 12.5811 5.04688 12.8638C5.04488 13.1464 4.94888 13.3841 4.75888 13.5768C4.56888 13.7694 4.33155 13.8651 4.04688 13.8638ZM4.04688 17.8638C3.76355 17.8638 3.52621 17.7678 3.33488 17.5758C3.14355 17.3838 3.04755 17.1464 3.04688 16.8638C3.04621 16.5811 3.14221 16.3438 3.33488 16.1518C3.52755 15.9598 3.76488 15.8638 4.04688 15.8638C4.32888 15.8638 4.56654 15.9598 4.75988 16.1518C4.95321 16.3438 5.04888 16.5811 5.04688 16.8638C5.04488 17.1464 4.94888 17.3841 4.75888 17.5768C4.56888 17.7694 4.33155 17.8651 4.04688 17.8638Z" fill="currentColor"/>
    </symbol>
    <symbol id="menu" width="25" height="25" viewBox="0 0 25 25" fill="none" xmlns="http://www.w3.org/2000/svg">
        <path d="M3.04688 18.8638V16.8638H21.0469V18.8638H3.04688ZM3.04688 13.8638V11.8638H21.0469V13.8638H3.04688ZM3.04688 8.86377V6.86377H21.0469V8.86377H3.04688Z" fill="currentColor"/>
    </symbol>
    <symbol id="mode-dark" width="25" height="25" viewBox="0 0 25 25" fill="none" xmlns="http://www.w3.org/2000/svg">
        <path d="M14.5468 22.8638C13.1802 22.8638 11.8885 22.6013 10.6718 22.0763C9.45518 21.5513 8.39268 20.8346 7.48434 19.9263C6.57601 19.0179 5.85934 17.9554 5.33434 16.7388C4.80934 15.5221 4.54684 14.2304 4.54684 12.8638C4.54684 11.4804 4.80934 10.1846 5.33434 8.97627C5.85934 7.76794 6.57601 6.7096 7.48434 5.80127C8.39268 4.89294 9.45518 4.17627 10.6718 3.65127C11.8885 3.12627 13.1802 2.86377 14.5468 2.86377C15.4468 2.86377 16.3218 2.98044 17.1718 3.21377C18.0218 3.4471 18.8135 3.78044 19.5468 4.21377C18.0302 5.0971 16.8177 6.29294 15.9093 7.80127C15.001 9.3096 14.5468 10.9971 14.5468 12.8638C14.5468 14.7304 15.001 16.4179 15.9093 17.9263C16.8177 19.4346 18.0302 20.6304 19.5468 21.5138C18.8135 21.9471 18.0218 22.2804 17.1718 22.5138C16.3218 22.7471 15.4468 22.8638 14.5468 22.8638ZM14.5468 20.8638H15.0718C15.2385 20.8638 15.3968 20.8471 15.5468 20.8138C14.5968 19.7138 13.8593 18.4846 13.3343 17.1263C12.8093 15.7679 12.5468 14.3471 12.5468 12.8638C12.5468 11.3804 12.8093 9.9596 13.3343 8.60127C13.8593 7.24294 14.5968 6.01377 15.5468 4.91377C15.3968 4.88044 15.2385 4.86377 15.0718 4.86377H14.5468C12.3302 4.86377 10.4427 5.64294 8.88434 7.20127C7.32601 8.7596 6.54684 10.6471 6.54684 12.8638C6.54684 15.0804 7.32601 16.9679 8.88434 18.5263C10.4427 20.0846 12.3302 20.8638 14.5468 20.8638Z" fill="currentColor"/>
    </symbol>
    <symbol id="mode-light" width="25" height="25" viewBox="0 0 25 25" fill="none" xmlns="http://www.w3.org/2000/svg">
        <path d="M11.0468 4.86377V1.86377H13.0468V4.86377H11.0468ZM11.0468 23.8638V20.8638H13.0468V23.8638H11.0468ZM20.0468 13.8638V11.8638H23.0468V13.8638H20.0468ZM1.04681 13.8638V11.8638H4.04681V13.8638H1.04681ZM18.7468 7.56377L17.3468 6.16377L19.0968 4.36377L20.5468 5.81377L18.7468 7.56377ZM4.99681 21.3638L3.54681 19.9138L5.34681 18.1638L6.74681 19.5638L4.99681 21.3638ZM19.0968 21.3638L17.3468 19.5638L18.7468 18.1638L20.5468 19.9138L19.0968 21.3638ZM5.34681 7.56377L3.54681 5.81377L4.99681 4.36377L6.74681 6.16377L5.34681 7.56377ZM12.0468 18.8638C10.3801 18.8638 8.96348 18.2804 7.79681 17.1138C6.63015 15.9471 6.04681 14.5304 6.04681 12.8638C6.04681 11.1971 6.63015 9.78044 7.79681 8.61377C8.96348 7.4471 10.3801 6.86377 12.0468 6.86377C13.7135 6.86377 15.1301 7.4471 16.2968 8.61377C17.4635 9.78044 18.0468 11.1971 18.0468 12.8638C18.0468 14.5304 17.4635 15.9471 16.2968 17.1138C15.1301 18.2804 13.7135 18.8638 12.0468 18.8638ZM12.0468 16.8638C13.1635 16.8638 14.1093 16.4763 14.8843 15.7013C15.6593 14.9263 16.0468 13.9804 16.0468 12.8638C16.0468 11.7471 15.6593 10.8013 14.8843 10.0263C14.1093 9.25127 13.1635 8.86377 12.0468 8.86377C10.9301 8.86377 9.98431 9.25127 9.20931 10.0263C8.43431 10.8013 8.04681 11.7471 8.04681 12.8638C8.04681 13.9804 8.43431 14.9263 9.20931 15.7013C9.98431 16.4763 10.9301 16.8638 12.0468 16.8638Z" fill="currentColor"/>
    </symbol>
    <symbol id="search" width="25" height="25" viewBox="0 0 25 25" fill="none" xmlns="http://www.w3.org/2000/svg">
        <path d="M19.6469 21.8638L13.3469 15.5638C12.8469 15.9638 12.2719 16.2804 11.6219 16.5138C10.9719 16.7471 10.2802 16.8638 9.54688 16.8638C7.73021 16.8638 6.19288 16.2344 4.93488 14.9758C3.67688 13.7171 3.04754 12.1798 3.04688 10.3638C3.04621 8.54777 3.67554 7.01044 4.93488 5.75177C6.19421 4.4931 7.73154 3.86377 9.54688 3.86377C11.3622 3.86377 12.8999 4.4931 14.1599 5.75177C15.4199 7.01044 16.0489 8.54777 16.0469 10.3638C16.0469 11.0971 15.9302 11.7888 15.6969 12.4388C15.4635 13.0888 15.1469 13.6638 14.7469 14.1638L21.0469 20.4638L19.6469 21.8638ZM9.54688 14.8638C10.7969 14.8638 11.8595 14.4264 12.7349 13.5518C13.6102 12.6771 14.0475 11.6144 14.0469 10.3638C14.0462 9.1131 13.6089 8.05077 12.7349 7.17677C11.8609 6.30277 10.7982 5.8651 9.54688 5.86377C8.29554 5.86244 7.23321 6.3001 6.35988 7.17677C5.48654 8.05344 5.04888 9.11577 5.04688 10.3638C5.04488 11.6118 5.48254 12.6744 6.35988 13.5518C7.23721 14.4291 8.29954 14.8664 9.54688 14.8638Z" fill="currentColor"/>
    </symbol>
</svg>