<svg width="0" height="0" fill="none" style="visibility: hidden; position: absolute;" aria-hidden="true">
    <symbol id="dark" width="80" height="40" viewBox="0 0 80 40" fill="none" xmlns="http://www.w3.org/2000/svg">
        <path d="M67.9492 19.1309H70.293C71.9466 19.1309 72.7734 19.7103 72.7734 20.8691C72.7734 21.6634 72.4805 22.2819 71.8945 22.7246C71.3086 23.1673 70.5013 23.3887 69.4727 23.3887H65.3906C64.5964 23.3887 63.9258 23.1478 63.3789 22.666C62.8451 22.1842 62.5781 21.5788 62.5781 20.8496C62.5781 20.4069 62.7604 19.7428 63.125 18.8574L64.8438 14.5996C65.026 14.1569 65.1237 13.7988 65.1367 13.5254C65.1497 13.2129 65.0195 12.946 64.7461 12.7246C64.4857 12.5033 64.1471 12.3926 63.7305 12.3926C62.3893 12.3926 61.3086 13.4017 60.4883 15.4199L58.1836 21.084C57.4935 22.8027 56.4648 23.6621 55.0977 23.6621C54.5378 23.6621 54.0625 23.4928 53.6719 23.1543C53.2812 22.8158 53.0859 22.3991 53.0859 21.9043C53.0859 21.5397 53.1901 21.1035 53.3984 20.5957L53.6133 20.0684L57.5586 10.3418C58.0664 9.07878 58.9323 8.44727 60.1562 8.44727C61.1589 8.44727 61.875 8.88997 62.3047 9.77539C63.6979 8.70768 65.026 8.17383 66.2891 8.17383C67.513 8.17383 68.5221 8.52539 69.3164 9.22852C70.1107 9.93164 70.5078 10.8236 70.5078 11.9043C70.5078 12.5033 70.3646 13.1608 70.0781 13.877L67.9492 19.1309Z" fill="white"/>
        <path d="M48.0469 19.1309H50.2539C51.8945 19.1309 52.7148 19.7103 52.7148 20.8691C52.7148 21.6634 52.4219 22.2819 51.8359 22.7246C51.263 23.1673 50.4557 23.3887 49.4141 23.3887H46.3086C45.1628 23.3887 44.2578 23.1543 43.5938 22.6855C42.9427 22.2168 42.6172 21.5788 42.6172 20.7715C42.6172 20.3418 42.7539 19.7949 43.0273 19.1309L46.25 11.2012L46.4648 10.6543C47.0638 9.18294 48.0273 8.44727 49.3555 8.44727C49.9023 8.44727 50.3711 8.62956 50.7617 8.99414C51.1654 9.35872 51.3672 9.79492 51.3672 10.3027C51.3672 10.7194 51.1914 11.3574 50.8398 12.2168L48.0469 19.1309ZM50.625 2.2168C51.3802 2.2168 52.0182 2.48372 52.5391 3.01758C53.0729 3.53841 53.3398 4.17643 53.3398 4.93164C53.3398 5.68685 53.0729 6.33138 52.5391 6.86523C52.0182 7.38607 51.3802 7.64648 50.625 7.64648C49.8698 7.64648 49.2253 7.38607 48.6914 6.86523C48.1706 6.33138 47.9102 5.68685 47.9102 4.93164C47.9102 4.17643 48.1706 3.53841 48.6914 3.01758C49.2253 2.48372 49.8698 2.2168 50.625 2.2168Z" fill="white"/>
        <path d="M37.1875 19.1309H39.3945C41.0352 19.1309 41.8555 19.7103 41.8555 20.8691C41.8555 21.6634 41.5625 22.2819 40.9766 22.7246C40.4036 23.1673 39.5964 23.3887 38.5547 23.3887H35.4492C34.3034 23.3887 33.3984 23.1543 32.7344 22.6855C32.0833 22.2168 31.7578 21.5788 31.7578 20.7715C31.7578 20.3418 31.8945 19.7949 32.168 19.1309L35.3906 11.2012L35.6055 10.6543C36.2044 9.18294 37.168 8.44727 38.4961 8.44727C39.043 8.44727 39.5117 8.62956 39.9023 8.99414C40.306 9.35872 40.5078 9.79492 40.5078 10.3027C40.5078 10.7194 40.332 11.3574 39.9805 12.2168L37.1875 19.1309ZM39.7656 2.2168C40.5208 2.2168 41.1589 2.48372 41.6797 3.01758C42.2135 3.53841 42.4805 4.17643 42.4805 4.93164C42.4805 5.68685 42.2135 6.33138 41.6797 6.86523C41.1589 7.38607 40.5208 7.64648 39.7656 7.64648C39.0104 7.64648 38.3659 7.38607 37.832 6.86523C37.3112 6.33138 37.0508 5.68685 37.0508 4.93164C37.0508 4.17643 37.3112 3.53841 37.832 3.01758C38.3659 2.48372 39.0104 2.2168 39.7656 2.2168Z" fill="white"/>
        <path d="M25.7812 24.1895H27.9297C29.5703 24.1895 30.3906 24.7689 30.3906 25.9277C30.3906 26.709 30.0977 27.321 29.5117 27.7637C28.9388 28.2194 28.1315 28.4473 27.0898 28.4473H24.043L22.6562 31.2402L22.0898 32.3926C20.293 35.9863 17.7148 37.7832 14.3555 37.7832C12.3372 37.7832 10.6445 37.1647 9.27734 35.9277C7.91016 34.7038 7.22656 33.1738 7.22656 31.3379C7.22656 30.2572 7.49349 29.196 8.02734 28.1543C8.5612 27.1257 9.26432 26.3053 10.1367 25.6934C11.556 24.6908 13.75 24.1895 16.7188 24.1895H20.7812L25.2148 13.252H23.1055C21.4518 13.252 20.625 12.6725 20.625 11.5137C20.625 10.7194 20.9115 10.1009 21.4844 9.6582C22.0703 9.21549 22.8906 8.99414 23.9453 8.99414H28.6133C30.1888 8.99414 30.9766 9.65169 30.9766 10.9668C30.9766 11.4746 30.8398 12.0605 30.5664 12.7246L25.7812 24.1895ZM19.043 28.4473H16.3086C13.3268 28.4473 11.8359 29.4108 11.8359 31.3379C11.8359 31.9629 12.0443 32.4707 12.4609 32.8613C12.8776 33.265 13.418 33.4668 14.082 33.4668C15.0326 33.4668 15.8789 33.0957 16.6211 32.3535C17.3503 31.6243 18.1576 30.3223 19.043 28.4473ZM30.625 2.2168C31.3802 2.2168 32.0182 2.48372 32.5391 3.01758C33.0729 3.53841 33.3398 4.17643 33.3398 4.93164C33.3398 5.68685 33.0729 6.33138 32.5391 6.86523C32.0182 7.38607 31.3802 7.64648 30.625 7.64648C29.8698 7.64648 29.2253 7.38607 28.6914 6.86523C28.1706 6.33138 27.9102 5.68685 27.9102 4.93164C27.9102 4.17643 28.1706 3.53841 28.6914 3.01758C29.2253 2.48372 29.8698 2.2168 30.625 2.2168Z" fill="white"/>
    </symbol>
    <symbol id="light" width="80" height="41" viewBox="0 0 80 41" fill="none" xmlns="http://www.w3.org/2000/svg">
        <path d="M67.9492 19.4642H70.293C71.9466 19.4642 72.7734 20.0436 72.7734 21.2025C72.7734 21.9967 72.4805 22.6152 71.8945 23.0579C71.3086 23.5006 70.5013 23.722 69.4727 23.722H65.3906C64.5964 23.722 63.9258 23.4811 63.3789 22.9993C62.8451 22.5176 62.5781 21.9121 62.5781 21.1829C62.5781 20.7402 62.7604 20.0762 63.125 19.1907L64.8438 14.9329C65.026 14.4902 65.1237 14.1321 65.1367 13.8587C65.1497 13.5462 65.0195 13.2793 64.7461 13.0579C64.4857 12.8366 64.1471 12.7259 63.7305 12.7259C62.3893 12.7259 61.3086 13.735 60.4883 15.7532L58.1836 21.4173C57.4935 23.136 56.4648 23.9954 55.0977 23.9954C54.5378 23.9954 54.0625 23.8262 53.6719 23.4876C53.2812 23.1491 53.0859 22.7324 53.0859 22.2376C53.0859 21.873 53.1901 21.4368 53.3984 20.929L53.6133 20.4017L57.5586 10.6751C58.0664 9.41209 58.9323 8.78058 60.1562 8.78058C61.1589 8.78058 61.875 9.22329 62.3047 10.1087C63.6979 9.041 65.026 8.50714 66.2891 8.50714C67.513 8.50714 68.5221 8.8587 69.3164 9.56183C70.1107 10.265 70.5078 11.1569 70.5078 12.2376C70.5078 12.8366 70.3646 13.4941 70.0781 14.2103L67.9492 19.4642Z" fill="#5856D6"/>
        <path d="M48.0469 19.4642H50.2539C51.8945 19.4642 52.7148 20.0436 52.7148 21.2025C52.7148 21.9967 52.4219 22.6152 51.8359 23.0579C51.263 23.5006 50.4557 23.722 49.4141 23.722H46.3086C45.1628 23.722 44.2578 23.4876 43.5938 23.0189C42.9427 22.5501 42.6172 21.9121 42.6172 21.1048C42.6172 20.6751 42.7539 20.1282 43.0273 19.4642L46.25 11.5345L46.4648 10.9876C47.0638 9.51626 48.0273 8.78058 49.3555 8.78058C49.9023 8.78058 50.3711 8.96287 50.7617 9.32745C51.1654 9.69204 51.3672 10.1282 51.3672 10.636C51.3672 11.0527 51.1914 11.6907 50.8398 12.5501L48.0469 19.4642ZM50.625 2.55011C51.3802 2.55011 52.0182 2.81704 52.5391 3.35089C53.0729 3.87172 53.3398 4.50975 53.3398 5.26495C53.3398 6.02016 53.0729 6.66469 52.5391 7.19855C52.0182 7.71938 51.3802 7.9798 50.625 7.9798C49.8698 7.9798 49.2253 7.71938 48.6914 7.19855C48.1706 6.66469 47.9102 6.02016 47.9102 5.26495C47.9102 4.50975 48.1706 3.87172 48.6914 3.35089C49.2253 2.81704 49.8698 2.55011 50.625 2.55011Z" fill="#5856D6"/>
        <path d="M37.1875 19.4642H39.3945C41.0352 19.4642 41.8555 20.0436 41.8555 21.2025C41.8555 21.9967 41.5625 22.6152 40.9766 23.0579C40.4036 23.5006 39.5964 23.722 38.5547 23.722H35.4492C34.3034 23.722 33.3984 23.4876 32.7344 23.0189C32.0833 22.5501 31.7578 21.9121 31.7578 21.1048C31.7578 20.6751 31.8945 20.1282 32.168 19.4642L35.3906 11.5345L35.6055 10.9876C36.2044 9.51626 37.168 8.78058 38.4961 8.78058C39.043 8.78058 39.5117 8.96287 39.9023 9.32745C40.306 9.69204 40.5078 10.1282 40.5078 10.636C40.5078 11.0527 40.332 11.6907 39.9805 12.5501L37.1875 19.4642ZM39.7656 2.55011C40.5208 2.55011 41.1589 2.81704 41.6797 3.35089C42.2135 3.87172 42.4805 4.50975 42.4805 5.26495C42.4805 6.02016 42.2135 6.66469 41.6797 7.19855C41.1589 7.71938 40.5208 7.9798 39.7656 7.9798C39.0104 7.9798 38.3659 7.71938 37.832 7.19855C37.3112 6.66469 37.0508 6.02016 37.0508 5.26495C37.0508 4.50975 37.3112 3.87172 37.832 3.35089C38.3659 2.81704 39.0104 2.55011 39.7656 2.55011Z" fill="#5856D6"/>
        <path d="M25.7812 24.5228H27.9297C29.5703 24.5228 30.3906 25.1022 30.3906 26.261C30.3906 27.0423 30.0977 27.6543 29.5117 28.097C28.9388 28.5527 28.1315 28.7806 27.0898 28.7806H24.043L22.6562 31.5735L22.0898 32.7259C20.293 36.3196 17.7148 38.1165 14.3555 38.1165C12.3372 38.1165 10.6445 37.498 9.27734 36.261C7.91016 35.0371 7.22656 33.5071 7.22656 31.6712C7.22656 30.5905 7.49349 29.5293 8.02734 28.4876C8.5612 27.459 9.26432 26.6387 10.1367 26.0267C11.556 25.0241 13.75 24.5228 16.7188 24.5228H20.7812L25.2148 13.5853H23.1055C21.4518 13.5853 20.625 13.0058 20.625 11.847C20.625 11.0527 20.9115 10.4342 21.4844 9.99152C22.0703 9.54881 22.8906 9.32745 23.9453 9.32745H28.6133C30.1888 9.32745 30.9766 9.98501 30.9766 11.3001C30.9766 11.8079 30.8398 12.3939 30.5664 13.0579L25.7812 24.5228ZM19.043 28.7806H16.3086C13.3268 28.7806 11.8359 29.7441 11.8359 31.6712C11.8359 32.2962 12.0443 32.804 12.4609 33.1946C12.8776 33.5983 13.418 33.8001 14.082 33.8001C15.0326 33.8001 15.8789 33.429 16.6211 32.6868C17.3503 31.9577 18.1576 30.6556 19.043 28.7806ZM30.625 2.55011C31.3802 2.55011 32.0182 2.81704 32.5391 3.35089C33.0729 3.87172 33.3398 4.50975 33.3398 5.26495C33.3398 6.02016 33.0729 6.66469 32.5391 7.19855C32.0182 7.71938 31.3802 7.9798 30.625 7.9798C29.8698 7.9798 29.2253 7.71938 28.6914 7.19855C28.1706 6.66469 27.9102 6.02016 27.9102 5.26495C27.9102 4.50975 28.1706 3.87172 28.6914 3.35089C29.2253 2.81704 29.8698 2.55011 30.625 2.55011Z" fill="#5856D6"/>
    </symbol>
</svg>