<svg width="0" height="0" fill="none" style="visibility: hidden; position: absolute;" aria-hidden="true">
    <symbol id="AdobeXD" width="25" height="25" viewBox="0 0 25 25" fill="none" xmlns="http://www.w3.org/2000/svg">
        <g clip-path="url(#clip0_294_3598__AdobeXD)">
            <rect x="0.046875" y="0.333313" width="24" height="24" rx="4" fill="#470137"/>
            <path d="M12.6636 7.57599L9.66893 12.5187L12.8728 17.7673C12.8934 17.804 12.8992 17.8472 12.889 17.888C12.8839 17.9055 12.8733 17.9098 12.8569 17.9104L12.8386 17.9102L12.8165 17.9096C12.8045 17.9095 12.7911 17.9101 12.7763 17.9126L10.4663 17.9125L10.4209 17.9119C10.2963 17.9086 10.2067 17.8908 10.1519 17.7995C9.9371 17.3809 9.72243 16.965 9.50795 16.5518C9.31996 16.1903 9.12184 15.8226 8.91359 15.4486L8.82372 15.2879C8.58221 14.8587 8.3434 14.424 8.10726 13.9838H8.09115C7.8763 14.4132 7.65358 14.8425 7.42298 15.2718C7.19208 15.7012 6.964 16.1279 6.73876 16.5518C6.51337 16.9759 6.2826 17.3972 6.04647 17.8156C6.00852 17.9008 5.94547 17.9186 5.85753 17.9216L5.82103 17.9222H3.61537L3.60583 17.9224L3.57427 17.9253C3.55676 17.9263 3.5463 17.9226 3.54291 17.8961C3.53685 17.8568 3.54545 17.8167 3.56708 17.7834L6.67435 12.6797L3.64755 7.55988C3.61537 7.51713 3.61 7.48225 3.63143 7.45524C3.65553 7.42739 3.69132 7.41248 3.72806 7.41498H5.99813C6.04763 7.41229 6.09712 7.42051 6.14305 7.43915C6.18155 7.46096 6.21458 7.49124 6.23964 7.5277C6.43285 7.9571 6.64751 8.38643 6.88363 8.81569C7.11962 9.24511 7.35844 9.66908 7.60009 10.0876C7.84159 10.5062 8.06431 10.9302 8.26825 11.3595H8.28436C8.49891 10.9195 8.71626 10.4902 8.93641 10.0715C9.15629 9.6529 9.38168 9.23161 9.61259 8.80764C9.8433 8.38376 10.066 7.96248 10.2807 7.54379C10.2931 7.50406 10.3152 7.46808 10.3451 7.43916C10.3849 7.41897 10.4296 7.41059 10.474 7.41499H12.583C12.6249 7.40465 12.6684 7.42471 12.6877 7.4633C12.7052 7.49837 12.6985 7.54025 12.6721 7.56809L12.6636 7.57599ZM17.3952 18.1203L17.2841 18.1215C16.543 18.1328 15.8088 17.9788 15.1347 17.6707C14.5068 17.3801 13.9819 16.9057 13.6294 16.3102C13.2739 15.7199 13.0916 14.9845 13.0823 14.1038L13.082 14.0321C13.0759 13.2932 13.2647 12.5657 13.6294 11.923C13.9946 11.2865 14.5268 10.7625 15.1681 10.4074L15.2233 10.3774C15.9208 9.99099 16.7634 9.79779 17.751 9.7978L17.7942 9.7983L17.8435 9.79981L17.8988 9.80233L17.9602 9.80585L18.0636 9.81313L18.1806 9.82254L18.2662 9.83V6.6583C18.2662 6.58332 18.2984 6.5456 18.3628 6.5456H20.3913C20.418 6.5418 20.4448 6.55074 20.4638 6.56974C20.4828 6.58874 20.4918 6.61557 20.488 6.64218V16.1573C20.488 16.3171 20.4941 16.4891 20.5064 16.6733L20.5365 17.091L20.5524 17.3326C20.5564 17.401 20.5181 17.465 20.4558 17.4936C19.9324 17.7119 19.3873 17.8738 18.8297 17.9766C18.3562 18.064 17.8764 18.112 17.3952 18.1203ZM18.2661 16.1251V11.7298C18.1791 11.7062 18.0903 11.6901 18.0005 11.6815C17.8908 11.6705 17.7807 11.6651 17.6704 11.6654C17.2798 11.6615 16.8937 11.7498 16.5434 11.923C16.2024 12.0925 15.9111 12.3477 15.6982 12.6636C15.4857 12.9745 15.3758 13.3804 15.3685 13.8815L15.3682 13.9355C15.3603 14.2865 15.4176 14.6358 15.5372 14.9659C15.6345 15.2318 15.7883 15.4735 15.988 15.6743C16.1792 15.859 16.4107 15.9968 16.6642 16.0768C16.932 16.1635 17.2119 16.207 17.4933 16.2057C17.6435 16.2057 17.7831 16.2002 17.9119 16.1895C18.0148 16.1818 18.1167 16.1648 18.2165 16.1388L18.2661 16.1251Z" fill="#FF61F6"/>
        </g>
        <defs>
            <clipPath id="clip0_294_3598__AdobeXD">
                <rect width="24" height="24" fill="white" transform="translate(0.046875 0.333313)"/>
            </clipPath>
        </defs>
    </symbol>
    <symbol id="CSS3" width="25" height="25" viewBox="0 0 25 25" fill="none" xmlns="http://www.w3.org/2000/svg">
        <g clip-path="url(#clip0_294_3610__CSS3)">
            <path d="M3.39173 21.9341L1.46593 0.333374H22.6278L20.7001 21.9308L12.034 24.3334L3.39173 21.9341Z" fill="#1572B6"/>
            <path d="M12.0471 22.497L19.0497 20.5555L20.6972 2.09937H12.0471V22.497Z" fill="#33A9DC"/>
            <path d="M12.0471 9.92537H15.5527L15.7948 7.21252H12.0471V4.56326H18.6902L18.6266 5.27409L17.9754 12.5746H12.0471V9.92537Z" fill="white"/>
            <path d="M12.0628 16.8056L12.0511 16.8091L9.10071 16.0124L8.91204 13.8995H6.25301L6.62404 18.0593L12.0507 19.5654L12.0628 19.5619V16.8056Z" fill="#EBEBEB"/>
            <path d="M15.3275 12.4625L15.0084 16.0103L12.0536 16.8079V19.5642L17.4847 18.0591L17.5245 17.6114L17.9854 12.4625H15.3275Z" fill="white"/>
            <path d="M12.0561 4.56326V7.21252H5.65696L5.6039 6.6172L5.48322 5.27409L5.41982 4.56326H12.0561ZM12.0471 9.92575V12.575H9.13388L9.08082 11.9797L8.95995 10.6366L8.89675 9.92575H12.0471Z" fill="#EBEBEB"/>
        </g>
        <defs>
            <clipPath id="clip0_294_3610__CSS3">
                <rect width="24" height="24" fill="white" transform="translate(0.046875 0.333313)"/>
            </clipPath>
        </defs>
    </symbol>
    <symbol id="Figma" width="25" height="25" viewBox="0 0 25 25" fill="none" xmlns="http://www.w3.org/2000/svg">
        <g clip-path="url(#clip0_294_3507__Figma)">
            <path d="M8.04695 24.3333C10.2549 24.3333 12.0469 22.5413 12.0469 20.3333V16.3333H8.04695C5.83895 16.3333 4.04695 18.1253 4.04695 20.3333C4.04695 22.5413 5.83895 24.3333 8.04695 24.3333Z" fill="#0ACF83"/>
            <path d="M4.04695 12.3333C4.04695 10.1253 5.83895 8.3333 8.04695 8.3333H12.0469V16.3333H8.04695C5.83895 16.3333 4.04695 14.5413 4.04695 12.3333Z" fill="#A259FF"/>
            <path d="M4.04695 4.3333C4.04695 2.1253 5.83895 0.333298 8.04695 0.333298H12.0469V8.3333H8.04695C5.83895 8.3333 4.04695 6.5413 4.04695 4.3333Z" fill="#F24E1E"/>
            <path d="M12.0469 0.333298H16.0469C18.2549 0.333298 20.0469 2.1253 20.0469 4.3333C20.0469 6.5413 18.2549 8.3333 16.0469 8.3333H12.0469V0.333298Z" fill="#FF7262"/>
            <path d="M20.0469 12.3333C20.0469 14.5413 18.2549 16.3333 16.0469 16.3333C13.8389 16.3333 12.0469 14.5413 12.0469 12.3333C12.0469 10.1253 13.8389 8.3333 16.0469 8.3333C18.2549 8.3333 20.0469 10.1253 20.0469 12.3333Z" fill="#1ABCFE"/>
        </g>
        <defs>
            <clipPath id="clip0_294_3507__Figma">
                <rect width="24" height="24" fill="white" transform="translate(0.046875 0.333313)"/>
            </clipPath>
        </defs>
    </symbol>
    <symbol id="Git" width="25" height="25" viewBox="0 0 25 25" fill="none" xmlns="http://www.w3.org/2000/svg">
        <g clip-path="url(#clip0_294_3565__Git)">
            <path d="M23.5943 11.2642L13.1154 0.78605C12.5123 0.182482 11.5335 0.182482 10.9297 0.78605L8.75372 2.962L11.514 5.7223C12.1555 5.50557 12.891 5.65094 13.4024 6.16234C13.9162 6.6769 14.0605 7.41872 13.8385 8.06231L16.4987 10.7225C17.1423 10.5008 17.8849 10.6443 18.399 11.1592C19.1173 11.8773 19.1173 13.0412 18.399 13.7599C17.6803 14.4785 16.5164 14.4785 15.7975 13.7599C15.2571 13.219 15.1236 12.4253 15.3972 11.7596L12.9163 9.27867L12.916 15.8073C13.0911 15.8942 13.2565 16.0098 13.4024 16.1552C14.1208 16.8733 14.1208 18.0373 13.4024 18.7564C12.6838 19.4748 11.5193 19.4748 10.8017 18.7564C10.0833 18.0373 10.0833 16.8733 10.8017 16.1552C10.9792 15.978 11.1846 15.8439 11.4037 15.7539V9.16438C11.1846 9.07484 10.9794 8.9416 10.8017 8.76305C10.2574 8.21952 10.1265 7.42082 10.4054 6.75247L7.68457 4.03115L0.499421 11.2158C-0.104411 11.8199 -0.104411 12.7987 0.499421 13.4023L10.9784 23.8807C11.5817 24.4843 12.5603 24.4843 13.1643 23.8807L23.5943 13.451C24.1979 12.8471 24.1979 11.8678 23.5943 11.2642Z" fill="#F05133"/>
        </g>
        <defs>
            <clipPath id="clip0_294_3565__Git">
                <rect width="24" height="24" fill="white" transform="translate(0.046875 0.333313)"/>
            </clipPath>
        </defs>
    </symbol>
    <symbol id="GitHub" width="25" height="25" viewBox="0 0 25 25" fill="none" xmlns="http://www.w3.org/2000/svg">
        <g clip-path="url(#clip0_296_911__GitHub)">
            <path fill-rule="evenodd" clip-rule="evenodd" d="M12.0468 0.333282C5.42014 0.333282 0.0469513 5.84177 0.0469513 12.6371C0.0469513 18.0731 3.48547 22.6851 8.25298 24.3119C8.85293 24.426 9.07327 24.0451 9.07327 23.7203C9.07327 23.4269 9.06214 22.4575 9.05673 21.4293C5.71836 22.1738 5.01413 19.9779 5.01413 19.9779C4.46806 18.5559 3.68164 18.1776 3.68164 18.1776C2.5927 17.4139 3.76367 17.4294 3.76367 17.4294C4.96866 17.5164 5.60295 18.6975 5.60295 18.6975C6.67345 20.5785 8.41036 20.0347 9.0952 19.7203C9.20298 18.9252 9.51377 18.3821 9.85699 18.075C7.1917 17.7644 4.39001 16.7091 4.39001 11.9946C4.39001 10.6515 4.85865 9.5537 5.62616 8.69226C5.50169 8.38224 5.09091 7.13075 5.74269 5.43607C5.74269 5.43607 6.75024 5.10519 9.0429 6.69718C10.0004 6.42465 11.0268 6.28806 12.0466 6.28317C13.0664 6.28806 14.0939 6.42465 15.0528 6.69718C17.3432 5.10535 18.3495 5.43591 18.3495 5.43591C19.0025 7.13042 18.5919 8.38192 18.4671 8.69177C19.2365 9.55338 19.702 10.651 19.702 11.9941C19.702 16.7202 16.8949 17.7604 14.2229 18.0651C14.6533 18.4472 15.0369 19.1958 15.0369 20.3438C15.0369 21.9901 15.0232 23.3152 15.0232 23.7203C15.0232 24.0479 15.2389 24.4313 15.8471 24.3106C20.6131 22.682 24.0468 18.0716 24.0468 12.6373C24.0466 5.84177 18.6741 0.333282 12.0468 0.333282Z" fill="#121212"/>
            <path d="M4.59318 17.9981C4.56663 18.0594 4.47283 18.078 4.38747 18.0356C4.30003 17.9955 4.25154 17.912 4.27968 17.8508C4.3056 17.788 4.39939 17.7706 4.48635 17.8125C4.57346 17.8527 4.62306 17.9368 4.59318 17.9981ZM5.07788 18.5543C5.02065 18.6087 4.90858 18.5836 4.83306 18.4975C4.75421 18.4116 4.73975 18.2967 4.79777 18.2416C4.85659 18.1874 4.96533 18.2128 5.0437 18.2987C5.12239 18.3854 5.13781 18.4992 5.07788 18.5543ZM5.55098 19.2633C5.47738 19.316 5.35704 19.2669 5.28264 19.1574C5.20903 19.0478 5.20903 18.9166 5.28423 18.864C5.35894 18.8115 5.47738 18.8591 5.55289 18.9673C5.62602 19.0786 5.62602 19.2097 5.55098 19.2633ZM6.2007 19.9481C6.13489 20.0224 5.99483 20.0023 5.8923 19.9008C5.78737 19.8017 5.75812 19.6609 5.82394 19.5865C5.89071 19.512 6.03155 19.5327 6.13489 19.6338C6.23901 19.7326 6.27065 19.8744 6.2007 19.9481ZM7.09492 20.3453C7.06567 20.4415 6.93118 20.4855 6.7951 20.4442C6.65918 20.4022 6.57031 20.2894 6.59797 20.1921C6.62595 20.0951 6.76171 20.0495 6.89843 20.0933C7.03403 20.1352 7.12322 20.2473 7.09492 20.3453ZM8.07657 20.4186C8.07975 20.5202 7.96465 20.6045 7.82222 20.6061C7.6785 20.6094 7.5623 20.5272 7.56071 20.4274C7.56071 20.3248 7.67358 20.2416 7.81665 20.2392C7.95973 20.2359 8.07657 20.3179 8.07657 20.4185M8.99066 20.2597C9.00767 20.3585 8.90863 20.4602 8.76683 20.4873C8.62757 20.5137 8.49864 20.4524 8.481 20.3544C8.46351 20.2529 8.56446 20.1513 8.70356 20.1251C8.84552 20.0997 8.97254 20.1592 8.99066 20.2597Z" fill="#121212"/>
        </g>
        <defs>
            <clipPath id="clip0_296_911__GitHub">
                <rect width="24" height="24" fill="white" transform="translate(0.046875 0.333313)"/>
            </clipPath>
        </defs>
    </symbol>
    <symbol id="GitLab" width="25" height="25" viewBox="0 0 25 25" fill="none" xmlns="http://www.w3.org/2000/svg">
        <g clip-path="url(#clip0_294_3585__GitLab)">
            <path d="M12.0469 23.3873L16.466 9.78693H7.62782L12.0469 23.3873Z" fill="#E24329"/>
            <path d="M12.0469 23.3873L7.62782 9.7869H1.4346L12.0469 23.3873Z" fill="#FC6D26"/>
            <path d="M1.43461 9.78693L0.0917369 13.92C-0.0307481 14.2969 0.103402 14.7099 0.424082 14.9428L12.0469 23.3873L1.43461 9.78693Z" fill="#FCA326"/>
            <path d="M1.4346 9.78694H7.62782L4.9662 1.59554C4.8293 1.17399 4.233 1.1741 4.09611 1.59554L1.4346 9.78694Z" fill="#E24329"/>
            <path d="M12.0469 23.3873L16.466 9.7869H22.6592L12.0469 23.3873Z" fill="#FC6D26"/>
            <path d="M22.6592 9.78693L24.0021 13.92C24.1245 14.2969 23.9904 14.7099 23.6697 14.9428L12.0469 23.3873L22.6592 9.78693Z" fill="#FCA326"/>
            <path d="M22.6592 9.78694H16.466L19.1276 1.59554C19.2645 1.17399 19.8608 1.1741 19.9977 1.59554L22.6592 9.78694Z" fill="#E24329"/>
        </g>
        <defs>
            <clipPath id="clip0_294_3585__GitLab">
                <rect width="24" height="24" fill="white" transform="translate(0.046875 0.333313)"/>
            </clipPath>
        </defs>
    </symbol>
    <symbol id="GoogleDrive" width="25" height="25" viewBox="0 0 25 25" fill="none" xmlns="http://www.w3.org/2000/svg">
        <g clip-path="url(#clip0_294_3658__GoogleDrive)">
            <path d="M1.86138 19.99L2.91988 21.818C3.13799 22.1943 3.45065 22.5072 3.82688 22.7255L7.60689 16.1825H0.046875C0.046875 16.6085 0.156875 17.0345 0.376876 17.4195L1.86138 19.99Z" fill="#0066DA"/>
            <path d="M12.0469 8.48424L8.2669 1.94122C7.89048 2.15947 7.57764 2.47231 7.35939 2.84873L0.376876 14.9448C0.160878 15.3214 0.0471162 15.748 0.046875 16.1823H7.60689L12.0469 8.48424Z" fill="#00AC47"/>
            <path d="M20.2669 22.7255C20.6431 22.5072 20.9558 22.1943 21.1739 21.818L21.6139 21.062L23.7169 17.4195C23.9369 17.0345 24.0469 16.6085 24.0469 16.1825H16.4869L18.0954 19.344L20.2669 22.7255Z" fill="#EA4335"/>
            <path d="M12.0469 8.48423L15.8269 1.94121C15.4517 1.722 15.0244 1.608 14.5899 1.61121H9.50387C9.07024 1.61467 8.6446 1.72822 8.26687 1.94121L12.0469 8.48423Z" fill="#00832D"/>
            <path d="M16.4869 16.1825H7.60692L3.82691 22.7255C4.19791 22.9455 4.62441 23.0555 5.06392 23.0555H19.0299C19.4636 23.052 19.8892 22.9385 20.267 22.7255L16.4869 16.1825Z" fill="#2684FC"/>
            <path d="M20.2259 8.89674L16.7344 2.84873C16.5162 2.47231 16.2033 2.15947 15.8269 1.94122L12.0469 8.48424L16.4869 16.1823H24.0334C24.0334 15.7558 23.9234 15.3298 23.7034 14.9448L20.2259 8.89674Z" fill="#FFBA00"/>
        </g>
        <defs>
            <clipPath id="clip0_294_3658__GoogleDrive">
                <rect width="24" height="24" fill="white" transform="translate(0.046875 0.333313)"/>
            </clipPath>
        </defs>
    </symbol>
    <symbol id="Hancom" width="25" height="25" viewBox="0 0 25 25" fill="none" xmlns="http://www.w3.org/2000/svg">
        <g clip-path="url(#clip0_294_3945__Hancom)">
            <path d="M6.87512 0.333374H2.03725V9.73421H6.87512V0.333374Z" fill="#444444"/>
            <path d="M6.87512 14.5478H2.03725V24.3333H6.87512V14.5478Z" fill="#444444"/>
            <path d="M22.0567 0.333374H17.2188V9.73421H22.0567V0.333374Z" fill="#444444"/>
            <path d="M22.0567 14.5478H17.2188V24.3333H22.0567V14.5478Z" fill="#444444"/>
            <path d="M22.0515 9.73053H6.87196V14.5423H22.0515V9.73053Z" fill="#F05323"/>
        </g>
        <defs>
            <clipPath id="clip0_294_3945__Hancom">
                <rect width="24" height="24" fill="white" transform="translate(0.046875 0.333313)"/>
            </clipPath>
        </defs>
    </symbol>
    <symbol id="HTML5" width="25" height="25" viewBox="0 0 25 25" fill="none" xmlns="http://www.w3.org/2000/svg">
        <g clip-path="url(#clip0_294_3530__HTML5)">
            <path d="M3.39835 21.8958L1.47648 0.333344H22.6171L20.6952 21.8958L12.0234 24.3333" fill="#E34F26"/>
            <path d="M12.0702 22.4583L19.0546 20.5365L20.6952 2.06772H12.0702" fill="#EF652A"/>
            <path d="M12.0234 19.7396L6.58585 18.2396L6.25773 14.0677H8.88273L9.07023 16.1771L12.0234 16.974V19.7396ZM12.0702 12.7552H6.1171L5.41398 4.73959H12.0702V7.36459H8.32023L8.5546 10.0833H12.0702V12.7552Z" fill="#EBEBEB"/>
            <path d="M12.0234 10.0833V12.7552H15.3046L14.9765 16.1771L12.0234 16.974V19.7396L17.4609 18.2396L18.2109 10.0833H12.0234ZM12.0234 4.73959V7.36459H18.4452L18.6796 4.73959H12.0234Z" fill="white"/>
        </g>
        <defs>
            <clipPath id="clip0_294_3530__HTML5">
                <rect width="24" height="24" fill="white" transform="translate(0.046875 0.333313)"/>
            </clipPath>
        </defs>
    </symbol>
    <symbol id="Illustrator" width="25" height="25" viewBox="0 0 25 25" fill="none" xmlns="http://www.w3.org/2000/svg">
        <g clip-path="url(#clip0_294_3710__Illustrator)">
            <rect x="0.046875" y="0.333313" width="24" height="24" rx="4" fill="#330000"/>
            <path d="M12.0762 15.5127H8.35715L7.60045 17.8633C7.59015 17.9062 7.5652 17.9441 7.52993 17.9706C7.49465 17.997 7.45128 18.0103 7.40725 18.0082H5.52355C5.41612 18.0082 5.37856 17.9492 5.41085 17.8311L8.63081 8.55753C8.66304 8.46095 8.69525 8.35094 8.72745 8.22748C8.76957 8.01267 8.79113 7.79434 8.79186 7.57544C8.78967 7.56014 8.79107 7.54452 8.79596 7.52987C8.80087 7.51518 8.80909 7.50187 8.82003 7.49093C8.83097 7.47999 8.84431 7.47175 8.85896 7.46686C8.87364 7.46195 8.88923 7.46054 8.90456 7.46274H11.4644C11.5394 7.46274 11.5823 7.48956 11.5932 7.54323L15.2479 17.8472C15.2802 17.9546 15.2479 18.0083 15.1513 18.0082H13.0583C13.0224 18.0122 12.9862 18.003 12.9566 17.9822C12.927 17.9615 12.9059 17.9307 12.8973 17.8955L12.0762 15.5127ZM8.93674 13.4841H11.4805C11.4161 13.2696 11.341 13.028 11.2551 12.7596C11.1691 12.4915 11.0779 12.2043 10.9815 11.8983C10.8848 11.5924 10.7882 11.2865 10.6916 10.9806C10.595 10.6747 10.5065 10.3795 10.426 10.0951C10.3455 9.81081 10.273 9.55054 10.2087 9.31423H10.1926C10.1019 9.74906 9.98906 10.1789 9.85446 10.6022C9.70402 11.0852 9.55104 11.579 9.39558 12.0834C9.23985 12.5881 9.08691 13.055 8.93674 13.4841Z" fill="#FF9A00"/>
            <path d="M17.4212 9.16953C17.257 9.17614 17.0933 9.148 16.9407 9.08695C16.7881 9.02591 16.6501 8.93336 16.5357 8.81534C16.4217 8.69219 16.3331 8.54773 16.2751 8.39025C16.217 8.23274 16.1907 8.06534 16.1976 7.89765C16.1918 7.7316 16.221 7.56619 16.2834 7.41222C16.3458 7.25824 16.44 7.11916 16.5598 7.00409C16.6785 6.89019 16.8186 6.80095 16.972 6.74154C17.1253 6.68211 17.289 6.6537 17.4534 6.65795C17.8398 6.65795 18.1431 6.77331 18.3631 7.00409C18.4741 7.12402 18.5605 7.26465 18.6171 7.41798C18.6737 7.57131 18.6995 7.73432 18.6931 7.89765C18.6998 8.06598 18.6727 8.23399 18.6132 8.39162C18.5537 8.54928 18.4632 8.69336 18.347 8.81534C18.2255 8.93509 18.0805 9.02839 17.9212 9.08935C17.7618 9.15031 17.5916 9.1776 17.4212 9.16953ZM16.3103 17.8474V10.1516C16.3103 10.055 16.3531 10.0067 16.4391 10.0067H18.4194C18.5052 10.0067 18.5481 10.055 18.5482 10.1516V17.8474C18.5482 17.9548 18.5053 18.0085 18.4194 18.0084H16.4552C16.3586 18.0084 16.3103 17.9548 16.3103 17.8474Z" fill="#FF9A00"/>
        </g>
        <defs>
            <clipPath id="clip0_294_3710__Illustrator">
                <rect width="24" height="24" fill="white" transform="translate(0.046875 0.333313)"/>
            </clipPath>
        </defs>
    </symbol>
    <symbol id="InDesign" width="25" height="25" viewBox="0 0 25 25" fill="none" xmlns="http://www.w3.org/2000/svg">
        <g clip-path="url(#clip0_294_3752__InDesign)">
            <rect x="0.046875" y="0.333313" width="24" height="24" rx="4" fill="#49021F"/>
            <path d="M8.64145 7.54358V17.7993C8.64145 17.9067 8.59316 17.9604 8.49657 17.9603H6.54844C6.46244 17.9603 6.41953 17.9066 6.41968 17.7993V7.54358C6.41968 7.45779 6.46797 7.41485 6.56455 7.41476H8.51266C8.53015 7.41228 8.54797 7.41392 8.56476 7.4195C8.58152 7.42509 8.59673 7.43451 8.60922 7.447C8.62173 7.45952 8.63115 7.47473 8.63674 7.49149C8.64233 7.50825 8.64394 7.52609 8.64145 7.54358Z" fill="#FF3366"/>
            <path d="M14.4051 18.1213C13.6641 18.1325 12.9298 17.9785 12.2558 17.6704C11.6278 17.3798 11.1029 16.9054 10.7504 16.31C10.3854 15.7037 10.2029 14.9443 10.203 14.0319C10.1969 13.2929 10.3858 12.5655 10.7504 11.9228C11.126 11.2681 11.6784 10.7325 12.3443 10.3772C13.0419 9.99074 13.8844 9.79754 14.872 9.79754C14.9256 9.79754 14.9953 9.80023 15.0813 9.80561C15.1671 9.81114 15.269 9.81919 15.3872 9.82975V6.65805C15.3872 6.58308 15.4194 6.54535 15.4838 6.54535H17.5124C17.5255 6.54348 17.5389 6.54468 17.5515 6.54889C17.564 6.55307 17.5755 6.56012 17.5848 6.56948C17.5942 6.57887 17.6013 6.59028 17.6055 6.60286C17.6097 6.61544 17.6109 6.62883 17.609 6.64194V16.157C17.609 16.3397 17.617 16.5383 17.6331 16.7528C17.6493 16.9676 17.6627 17.1608 17.6734 17.3323C17.6754 17.3658 17.6672 17.3991 17.65 17.4278C17.6328 17.4565 17.6072 17.4794 17.5768 17.4934C17.0535 17.7116 16.5084 17.8735 15.9507 17.9763C15.4408 18.0704 14.9236 18.1189 14.4051 18.1213ZM15.3872 16.1248V11.7296C15.3002 11.706 15.2113 11.6898 15.1216 11.6812C15.0119 11.6702 14.9017 11.6649 14.7915 11.6652C14.4008 11.6613 14.0147 11.7495 13.6645 11.9228C13.3234 12.0923 13.0322 12.3475 12.8193 12.6633C12.5992 12.9854 12.4891 13.4093 12.4892 13.9352C12.4814 14.2862 12.5387 14.6356 12.6582 14.9656C12.7556 15.2316 12.9093 15.4733 13.1091 15.674C13.3002 15.8588 13.5317 15.9966 13.7852 16.0765C14.053 16.1633 14.3329 16.2067 14.6144 16.2053C14.7646 16.2053 14.9041 16.2 15.033 16.1892C15.153 16.1802 15.2717 16.1586 15.3872 16.1248Z" fill="#FF3366"/>
        </g>
        <defs>
            <clipPath id="clip0_294_3752__InDesign">
                <rect width="24" height="24" fill="white" transform="translate(0.046875 0.333313)"/>
            </clipPath>
        </defs>
    </symbol>
    <symbol id="JavaScript" width="25" height="25" viewBox="0 0 25 25" fill="none" xmlns="http://www.w3.org/2000/svg">
        <g clip-path="url(#clip0_294_3519__JavaScript)">
            <path d="M0.0469742 0.333389H24.047V24.3334H0.0469742V0.333389Z" fill="#F7DF1E"/>
            <path d="M6.35744 20.3895L8.19409 19.278C8.54842 19.9062 8.87074 20.4378 9.64388 20.4378C10.385 20.4378 10.8522 20.1479 10.8522 19.0203V11.3517H13.1076V19.0521C13.1076 21.3881 11.7383 22.4514 9.74057 22.4514C7.93634 22.4514 6.88903 21.517 6.35741 20.3893" fill="black"/>
            <path d="M14.3327 20.1479L16.1691 19.0846C16.6525 19.8741 17.2808 20.454 18.3924 20.454C19.3269 20.454 19.9228 19.9867 19.9228 19.3423C19.9228 18.569 19.3107 18.2951 18.2796 17.8442L17.7159 17.6024C16.0886 16.9098 15.0092 16.0398 15.0092 14.2032C15.0092 12.5116 16.298 11.2227 18.3119 11.2227C19.7457 11.2227 20.7768 11.7222 21.5177 13.0272L19.7617 14.1548C19.375 13.4621 18.9563 13.1883 18.3119 13.1883C17.6514 13.1883 17.2325 13.6072 17.2325 14.1548C17.2325 14.8315 17.6514 15.1054 18.6179 15.5243L19.1817 15.7659C21.0989 16.5876 22.1783 17.4253 22.1783 19.3101C22.1783 21.3401 20.5834 22.4516 18.4408 22.4516C16.3464 22.4516 14.9931 21.4528 14.3327 20.1479Z" fill="black"/>
        </g>
        <defs>
            <clipPath id="clip0_294_3519__JavaScript">
                <rect width="24" height="24" fill="white" transform="translate(0.046875 0.333313)"/>
            </clipPath>
        </defs>
    </symbol>
    <symbol id="Jenkins" width="25" height="25" viewBox="0 0 25 25" fill="none" xmlns="http://www.w3.org/2000/svg">
        <g clip-path="url(#clip0_294_3819__Jenkins)">
            <path fill-rule="evenodd" clip-rule="evenodd" d="M20.4643 11.8983C20.4643 16.6533 16.6957 20.508 12.047 20.508C7.39825 20.508 3.62967 16.6533 3.62967 11.8983C3.62967 7.14319 7.39825 3.28843 12.047 3.28843C16.6957 3.28843 20.4643 7.14319 20.4643 11.8983Z" fill="#D33833"/>
            <path d="M3.97267 14.0306C3.97267 14.0306 3.36332 5.05212 11.6364 4.79556L11.0593 3.83357L6.57003 5.34071L5.28736 6.81572L4.16507 8.96422L3.5237 11.4654L3.71609 13.1328" fill="#EF3D3A"/>
            <path d="M6.28182 6.0249C4.80498 7.53599 3.8911 9.62234 3.8911 11.9304C3.8911 14.238 4.80498 16.3247 6.28182 17.8355C7.75937 19.3463 9.79565 20.2785 12.0468 20.2785C14.2981 20.2785 16.3345 19.3463 17.8119 17.8355C19.2887 16.3247 20.2028 14.238 20.2028 11.9304C20.2028 9.62234 19.2887 7.53599 17.8119 6.0249C16.3345 4.51439 14.2981 3.58213 12.0468 3.58194C9.79565 3.58213 7.75937 4.51439 6.28182 6.0249ZM5.90799 18.2009C4.33846 16.5958 3.36813 14.3774 3.36813 11.9304C3.36813 9.48304 4.33846 7.2649 5.90799 5.65964C7.47716 4.05408 9.64929 3.05891 12.0468 3.0592C14.4444 3.05891 16.6168 4.05408 18.1857 5.65964C19.7553 7.2649 20.7258 9.48324 20.7256 11.9304C20.7258 14.3774 19.7553 16.5958 18.1857 18.2009C16.6168 19.8064 14.4444 20.8015 12.0468 20.8015C9.64929 20.8015 7.47716 19.8064 5.90799 18.2009Z" fill="#231F20"/>
            <path fill-rule="evenodd" clip-rule="evenodd" d="M15.5902 11.946L14.3075 12.1384L12.5759 12.3308L11.4536 12.3628L10.3634 12.3308L9.52961 12.0742L8.79207 11.2726L8.21488 9.63723L8.08663 9.28447L7.31704 9.02801L6.8681 8.29045L6.54745 7.23227L6.90023 6.30232L7.73389 6.01373L8.40728 6.33445L8.728 7.03987L9.1128 6.97571L9.24101 6.81544L9.1128 6.07789L9.08067 5.14794L9.27306 3.86533L9.26555 3.13268L9.85026 2.19792L10.8764 1.46037L12.6721 0.690778L14.6602 0.979373L16.3918 2.22995L17.1935 3.51257L17.7065 4.44252L17.8347 6.75128L17.45 8.73941L16.7445 10.503L16.0711 11.433" fill="#F0D6B7"/>
            <path fill-rule="evenodd" clip-rule="evenodd" d="M14.4999 17.4934L9.9144 17.6858V18.4554L10.2992 21.1489L10.1068 21.3734L6.90024 20.2831L6.67571 19.8983L6.35506 16.2749L5.61764 14.0944L5.45726 13.5814L8.02249 11.8178L8.82421 11.497L9.52961 12.3628L10.1389 12.908L10.8444 13.1324L11.165 13.2286L11.5498 14.896L11.8384 15.2488L12.5759 14.9922L12.0628 15.9863L14.8526 17.301L14.4999 17.4934Z" fill="#335061"/>
            <path fill-rule="evenodd" clip-rule="evenodd" d="M6.90024 6.30233L7.7339 6.01374L8.40729 6.33446L8.72801 7.03989L9.1128 6.97572L9.209 6.59093L9.01661 5.85347L9.209 4.08977L9.04862 3.12779L9.62581 2.4544L10.8764 1.46038L10.5237 0.979385L8.76003 1.84517L8.02249 2.42236L7.60564 3.32018L6.96431 4.18597L6.77191 5.21212L6.90024 6.30233Z" fill="#6D6B6D"/>
            <path fill-rule="evenodd" clip-rule="evenodd" d="M8.21487 3.28813C8.21487 3.28813 8.69587 2.10172 10.6198 1.52452C12.5438 0.947334 10.716 1.1076 10.716 1.1076L8.6318 1.90932L7.83008 2.71094L7.47742 3.35229L8.21487 3.28813Z" fill="#DCD9D8"/>
            <path fill-rule="evenodd" clip-rule="evenodd" d="M7.2529 6.07791C7.2529 6.07791 6.57951 3.83321 9.14482 3.51258L9.04862 3.12779L7.28503 3.54471L6.77191 5.21212L6.90024 6.30234L7.2529 6.07791Z" fill="#DCD9D8"/>
            <path fill-rule="evenodd" clip-rule="evenodd" d="M8.27902 9.06006L8.69888 8.65324C8.69888 8.65324 8.88838 8.67527 8.9204 8.8997C8.95241 9.12422 9.04861 11.1444 10.4274 12.2347C10.5532 12.3342 9.40139 12.0742 9.40139 12.0742L8.37522 10.471" fill="#F7E4CD"/>
            <path fill-rule="evenodd" clip-rule="evenodd" d="M14.1794 8.45084C14.1794 8.45084 14.2541 7.47885 14.5159 7.55359C14.7777 7.62834 14.7777 7.8901 14.7777 7.8901C14.7777 7.8901 14.142 8.30134 14.1794 8.45084Z" fill="#F7E4CD"/>
            <path d="M16.8407 4.89149C16.8407 4.89149 16.3122 5.00308 16.2635 5.46868C16.2149 5.93438 16.8407 5.56488 16.9369 5.53285" fill="#F7E4CD"/>
            <path d="M12.9607 4.9236C12.9607 4.9236 12.2552 5.0198 12.2552 5.46866C12.2552 5.91762 13.057 5.88559 13.2814 5.69319" fill="#F7E4CD"/>
            <path fill-rule="evenodd" clip-rule="evenodd" d="M8.59968 7.00785C8.59968 7.00785 7.38111 6.2703 7.2529 6.97582C7.12465 7.68124 6.83598 8.19437 7.4453 8.93182L7.02845 8.80359L6.64365 7.80957L6.51544 6.84759L7.2529 6.0779L8.08663 6.14207L8.56762 6.52686L8.59968 7.00785Z" fill="#F7E4CD"/>
            <path fill-rule="evenodd" clip-rule="evenodd" d="M9.17687 4.98767C9.17687 4.98767 9.72201 2.16588 12.4798 1.62073C14.7502 1.17196 15.9428 1.71692 16.3918 2.22995C16.3918 2.22995 14.3716 -0.174914 12.4476 0.562543C10.5237 1.3001 9.11281 2.64687 9.14482 3.51256C9.19942 4.98709 9.17687 4.98767 9.17687 4.98767Z" fill="#F7E4CD"/>
            <path fill-rule="evenodd" clip-rule="evenodd" d="M16.6163 2.55058C16.6163 2.55058 15.6864 2.51855 15.6543 3.3523C15.6543 3.3523 15.6542 3.48053 15.7184 3.60876C15.7184 3.60876 16.456 2.77501 16.9049 3.22397" fill="#F7E4CD"/>
            <path fill-rule="evenodd" clip-rule="evenodd" d="M12.5444 3.69562C12.5444 3.69562 12.3843 2.41589 11.2932 3.15989C10.5878 3.64088 10.652 4.31427 10.7802 4.44251C10.9084 4.57083 10.8736 4.82913 10.9712 4.65183C11.0688 4.47454 11.0367 3.89735 11.3894 3.73708C11.7422 3.57672 12.3204 3.3976 12.5444 3.69562Z" fill="#F7E4CD"/>
            <path fill-rule="evenodd" clip-rule="evenodd" d="M9.52961 12.3628L6.51544 13.7096C6.51544 13.7096 7.76602 18.6799 7.12465 20.2191L6.67571 20.0588L6.64366 18.1669L5.81004 14.5755L5.45726 13.5814L8.59968 11.4651L9.52961 12.3628Z" fill="#49728B"/>
            <path fill-rule="evenodd" clip-rule="evenodd" d="M9.83955 15.1119L10.2672 15.6337V17.5576H9.75406C9.75406 17.5576 9.68999 16.2109 9.68999 16.0505C9.68999 15.8901 9.75406 15.313 9.75406 15.313" fill="#49728B"/>
            <path fill-rule="evenodd" clip-rule="evenodd" d="M9.85025 17.8462L8.40727 17.9103L8.8242 18.1989L9.85025 18.3593" fill="#49728B"/>
            <path fill-rule="evenodd" clip-rule="evenodd" d="M14.7885 17.5255L15.9749 17.4934L16.2635 20.4436L15.045 20.6039L14.7885 17.5255Z" fill="#335061"/>
            <path fill-rule="evenodd" clip-rule="evenodd" d="M15.1091 17.5255L16.9049 17.4293C16.9049 17.4293 17.6423 15.5695 17.6423 15.4733C17.6423 15.3771 18.2837 12.7798 18.2837 12.7798L16.8407 11.2727L16.5521 11.0161L15.7825 11.7857V14.7679L15.1091 17.5255Z" fill="#335061"/>
            <path fill-rule="evenodd" clip-rule="evenodd" d="M15.9108 17.3011L14.7885 17.5255L14.9488 18.4234C15.3656 18.6158 16.0711 18.1027 16.0711 18.1027" fill="#49728B"/>
            <path fill-rule="evenodd" clip-rule="evenodd" d="M15.9429 11.6895L18.1875 13.3569L18.2517 12.5873L16.5521 11.0161L15.9429 11.6895Z" fill="#49728B"/>
            <path fill-rule="evenodd" clip-rule="evenodd" d="M10.9631 23.8429L10.2992 21.1489L9.969 19.1612L9.9144 17.6858L12.9191 17.5258L14.7885 17.5255L14.6185 20.8928L14.9071 23.4901L14.8751 23.9711L12.4381 24.1635L10.9631 23.8429Z" fill="white"/>
            <path fill-rule="evenodd" clip-rule="evenodd" d="M14.3716 17.4934C14.3716 17.4934 14.2113 20.8284 14.6923 23.2012C14.6923 23.2012 13.7303 23.8105 12.3194 23.9708L15.013 23.8746L15.3336 23.6822L14.9488 18.4234L14.8526 17.301" fill="#DCD9D8"/>
            <path fill-rule="evenodd" clip-rule="evenodd" d="M16.3182 20.1873L17.5688 19.8346L19.9416 19.7063L20.2944 18.6161L19.653 16.7242L18.9155 16.628L17.8894 16.9486L16.9049 17.4293L16.3822 17.3334L15.9749 17.4935" fill="white"/>
            <path fill-rule="evenodd" clip-rule="evenodd" d="M16.2956 19.5457C16.2956 19.5457 17.1292 19.161 17.2575 19.193L16.9049 17.4293L17.3217 17.2691C17.3217 17.2691 17.6103 18.9365 17.6103 19.1288C17.6103 19.1288 19.4059 19.225 19.5663 19.225C19.5663 19.225 19.9511 18.4875 19.8549 17.7179L20.2077 18.7441L20.2397 19.3212L19.7267 20.0908L19.1495 20.2191L18.1875 20.187L17.8669 19.7702L16.7445 19.9305L16.3918 20.0588" fill="#DCD9D8"/>
            <path d="M15.0355 17.2693L14.33 15.4736L13.5925 14.4154C13.5925 14.4154 13.7528 13.9665 13.9773 13.9665C14.2018 13.9665 14.7148 13.9665 14.7148 13.9665L15.4203 14.223L15.3562 15.4095L15.0355 17.2693Z" fill="white"/>
            <path fill-rule="evenodd" clip-rule="evenodd" d="M15.1733 16.6597C15.1733 16.6597 14.2754 14.9282 14.2754 14.6717C14.2754 14.6717 14.4357 14.2869 14.6602 14.3831C14.8847 14.4793 15.3657 14.7357 15.3657 14.7357V14.1265L14.2754 13.902L13.5379 13.9982L14.7885 16.9483L15.045 16.9804" fill="#DCD9D8"/>
            <path d="M11.2517 12.4274L10.3634 12.3308L9.5296 12.0742V12.3628L9.93698 12.8121L11.2196 13.3893" fill="white"/>
            <path fill-rule="evenodd" clip-rule="evenodd" d="M9.81832 12.5235C9.81832 12.5235 10.8124 12.9404 11.1331 12.8442L11.165 13.2286L10.2673 13.0366L9.72212 12.6518L9.81832 12.5235Z" fill="#DCD9D8"/>
            <path fill-rule="evenodd" clip-rule="evenodd" d="M16.3147 14.0756C15.7706 14.0597 15.279 13.995 14.8486 13.8736C14.8779 13.6972 14.8231 13.524 14.8671 13.3969C14.9871 13.3106 15.1881 13.3119 15.3695 13.2916C15.2127 13.2146 14.9924 13.1841 14.8114 13.2286C14.8072 13.1061 14.7522 13.0302 14.719 12.9344C15.0249 12.8252 15.747 12.1094 16.1533 12.3465C16.3468 12.4592 16.4291 13.1032 16.4441 13.4163C16.4566 13.676 16.4205 13.9381 16.3147 14.0756Z" fill="#D33833"/>
            <path d="M16.3147 14.0756C15.7706 14.0597 15.279 13.995 14.8486 13.8736C14.8779 13.6972 14.8231 13.524 14.8671 13.3969C14.9871 13.3106 15.1881 13.3119 15.3695 13.2916C15.2127 13.2146 14.9924 13.1841 14.8114 13.2286C14.8072 13.1061 14.7522 13.0302 14.719 12.9344C15.0249 12.8252 15.747 12.1094 16.1533 12.3465C16.3468 12.4592 16.4291 13.1032 16.4441 13.4163C16.4566 13.676 16.4205 13.9381 16.3147 14.0756Z" stroke="#D33833" stroke-width="2.5"/>
            <path fill-rule="evenodd" clip-rule="evenodd" d="M13.7128 13.1862C13.7114 13.2274 13.7097 13.2688 13.708 13.3104C13.5381 13.422 13.2639 13.4206 13.0775 13.5144C13.3523 13.5265 13.5686 13.5926 13.7558 13.686C13.7517 13.7897 13.7478 13.8933 13.7437 13.997C13.4323 14.2101 13.1479 14.5276 12.7812 14.7275C12.6079 14.822 11.9995 15.0653 11.8151 15.0223C11.7107 14.9981 11.7013 14.8686 11.6596 14.7465C11.5708 14.4852 11.3661 14.0691 11.3483 13.6757C11.3256 13.1787 11.2754 12.3458 11.811 12.4482C12.243 12.5306 12.7455 12.7296 13.0801 12.9124C13.2845 13.0242 13.4027 13.1623 13.7128 13.1862Z" fill="#D33833"/>
            <path d="M13.7128 13.1862C13.7114 13.2274 13.7097 13.2688 13.708 13.3104C13.5381 13.422 13.2639 13.4206 13.0775 13.5144C13.3523 13.5265 13.5686 13.5926 13.7558 13.686C13.7517 13.7897 13.7478 13.8933 13.7437 13.997C13.4323 14.2101 13.1479 14.5276 12.7812 14.7275C12.6079 14.822 11.9995 15.0653 11.8151 15.0223C11.7107 14.9981 11.7013 14.8686 11.6596 14.7465C11.5708 14.4852 11.3661 14.0691 11.3483 13.6757C11.3256 13.1787 11.2754 12.3458 11.811 12.4482C12.243 12.5306 12.7455 12.7296 13.0801 12.9124C13.2845 13.0242 13.4027 13.1623 13.7128 13.1862Z" stroke="#D33833" stroke-width="2.5"/>
            <path fill-rule="evenodd" clip-rule="evenodd" d="M14.0221 13.7791C13.9746 13.5084 13.9197 13.4312 13.9409 13.195C14.6629 12.7137 14.7984 14.0219 14.0221 13.7791Z" fill="#D33833"/>
            <path d="M14.0221 13.7791C13.9746 13.5084 13.9197 13.4312 13.9409 13.195C14.6629 12.7137 14.7984 14.0219 14.0221 13.7791Z" stroke="#D33833" stroke-width="2.5"/>
            <path fill-rule="evenodd" clip-rule="evenodd" d="M15.0675 13.9986C15.0675 13.9986 14.843 13.6779 15.0033 13.5817C15.1637 13.4855 15.3241 13.5818 15.4203 13.4214C15.5165 13.261 15.4203 13.1648 15.4523 12.9724C15.4843 12.7801 15.6448 12.7479 15.8051 12.7159C15.9653 12.6839 16.4144 12.6197 16.4784 12.7801L16.286 12.2029L15.9013 12.0746L14.6827 12.7801L14.6185 13.1328V13.8382" fill="#EF3D3A"/>
            <path fill-rule="evenodd" clip-rule="evenodd" d="M11.7006 15.0568C11.6621 14.5564 11.6213 14.0566 11.5759 13.5567C11.5081 12.8102 11.7552 12.9404 12.4023 12.9404C12.5012 12.9404 13.0109 13.0583 13.0473 13.1328C13.2222 13.49 12.7549 13.4106 13.2488 13.68C13.6657 13.9073 14.4022 13.5419 14.2337 13.0366C14.1395 12.9243 13.7426 13.0016 13.6003 12.9278C13.3498 12.7979 13.0993 12.6681 12.8487 12.5382C12.53 12.3728 11.7934 12.1318 11.4536 12.3628C10.5926 12.9484 11.5079 14.4115 11.8151 15.0223" fill="#EF3D3A"/>
            <path fill-rule="evenodd" clip-rule="evenodd" d="M12.5444 3.69564C11.6704 3.49209 11.2361 4.06139 10.9712 4.65186C10.7346 4.59452 10.8288 4.27283 10.8885 4.10891C11.045 3.67871 11.6754 3.10604 12.1905 3.18367C12.4122 3.21705 12.7121 3.41975 12.5444 3.69564Z" fill="#231F20"/>
            <path fill-rule="evenodd" clip-rule="evenodd" d="M16.8027 4.69092C16.8165 4.6915 16.8304 4.69198 16.8442 4.69256C17.0417 5.10284 17.2126 5.53747 17.4618 5.89965C17.2949 6.28839 16.1979 6.6324 16.2149 5.93438C16.4521 5.83068 16.8616 5.91322 17.0719 5.78075C16.9503 5.44704 16.7748 5.16297 16.8027 4.69092Z" fill="#231F20"/>
            <path fill-rule="evenodd" clip-rule="evenodd" d="M12.9918 4.70159C13.1792 5.04512 13.2402 5.40605 13.5066 5.66569C13.6265 5.78258 13.8598 5.92505 13.7442 6.2501C13.7172 6.32677 13.5197 6.49771 13.4057 6.53129C12.9892 6.65423 12.0189 6.55668 12.3475 6.0375C12.6919 6.05357 13.1548 6.26116 13.4122 6.01114C13.2145 5.69513 12.8621 5.06994 12.9918 4.70159Z" fill="#231F20"/>
            <path fill-rule="evenodd" clip-rule="evenodd" d="M16.6464 8.193C16.0194 8.59578 15.3202 9.03377 14.2928 8.93219C14.0733 8.74133 13.9896 8.31661 14.2029 8.0361C14.3139 8.22696 14.2442 8.57799 14.5535 8.6308C15.1365 8.73056 15.815 8.27419 16.2343 8.11469C16.4943 7.67632 16.2119 7.51509 15.9776 7.23294C15.4981 6.65488 14.8548 5.9384 14.8782 5.073C15.072 4.93245 15.0888 5.28752 15.1166 5.35216C15.367 5.9382 15.9972 6.68769 16.4571 7.18927C16.57 7.31278 16.756 7.4313 16.7767 7.51297C16.8363 7.75049 16.6215 8.03504 16.6464 8.193Z" fill="#231F20"/>
            <path fill-rule="evenodd" clip-rule="evenodd" d="M8.38023 7.76897C8.1837 7.6568 8.13692 7.16273 7.90619 7.14868C7.57645 7.12867 7.63657 7.78965 7.63789 8.17618C7.41092 7.97012 7.37101 7.33569 7.53775 7.00987C7.34772 6.91655 7.26286 7.1128 7.15746 7.18197C7.29292 6.19786 8.59706 6.72551 8.38023 7.76897Z" fill="#231F20"/>
            <path fill-rule="evenodd" clip-rule="evenodd" d="M17.0456 8.60283C16.7537 9.15838 16.3409 9.7702 15.4844 9.78799C15.467 9.60858 15.4536 9.33557 15.4854 9.22754C16.1401 9.16463 16.5443 8.8314 17.0456 8.60283Z" fill="#231F20"/>
            <path fill-rule="evenodd" clip-rule="evenodd" d="M12.9424 8.96299C13.4887 9.25023 14.4926 9.28111 15.2351 9.25937C15.2749 9.42204 15.2739 9.623 15.2755 9.82136C14.3211 9.86898 13.1927 9.63282 12.9424 8.96299Z" fill="#231F20"/>
            <path fill-rule="evenodd" clip-rule="evenodd" d="M12.8386 9.49861C13.2164 10.447 14.5146 10.3378 15.6095 10.3117C15.5613 10.4348 15.4568 10.5803 15.3269 10.6329C14.9761 10.7756 14.0084 10.884 13.5214 10.6253C13.2125 10.4611 13.014 10.09 12.8448 9.87254C12.7631 9.76749 12.3561 9.49919 12.8386 9.49861Z" fill="#231F20"/>
            <path fill-rule="evenodd" clip-rule="evenodd" d="M16.6008 14.7302C16.1575 15.4894 15.7334 16.2691 15.2075 16.9388C15.428 16.2905 15.5223 15.2055 15.5556 14.3783C16.0169 14.1624 16.4119 14.4269 16.6008 14.7302Z" fill="#81B0C4"/>
            <path fill-rule="evenodd" clip-rule="evenodd" d="M18.9861 17.4589C18.4899 17.5582 18.1411 18.0405 17.657 18.0096C17.9231 17.6345 18.3893 17.4764 18.9861 17.4589Z" fill="#231F20"/>
            <path fill-rule="evenodd" clip-rule="evenodd" d="M19.2051 18.2355C18.8006 18.2783 18.3254 18.3438 17.9152 18.31C18.1094 18.0133 18.8577 18.1157 19.2051 18.2355Z" fill="#231F20"/>
            <path fill-rule="evenodd" clip-rule="evenodd" d="M19.3452 18.9052C18.8906 18.915 18.3255 18.906 17.8934 18.8697C18.149 18.5952 19.0504 18.7678 19.3452 18.9052Z" fill="#231F20"/>
            <path fill-rule="evenodd" clip-rule="evenodd" d="M15.7454 20.7377C15.8106 21.3086 16.037 21.8871 16.0086 22.5124C15.7572 22.5972 15.6128 22.6713 15.2761 22.6709C15.2523 22.1395 15.1812 21.3271 15.2025 20.8205C15.3681 20.8315 15.6124 20.7022 15.7454 20.7377Z" fill="#DCD9D8"/>
            <path fill-rule="evenodd" clip-rule="evenodd" d="M15.0125 12.323C14.7842 12.472 14.5898 12.6581 14.3705 12.8172C13.8844 12.8412 13.619 12.7835 13.2619 12.5043C13.2677 12.4819 13.3036 12.4919 13.305 12.4644C13.8254 12.6964 14.4869 12.37 15.0125 12.323Z" fill="#F0D6B7"/>
            <path fill-rule="evenodd" clip-rule="evenodd" d="M12.2804 15.8706C12.4234 15.251 12.9837 14.9301 13.4924 14.5889C14.0176 15.2554 14.337 16.1125 14.6887 16.9396C13.8577 16.6891 13.0087 16.2826 12.2804 15.8706Z" fill="#81B0C4"/>
            <path fill-rule="evenodd" clip-rule="evenodd" d="M15.2025 20.8205C15.1812 21.3271 15.2523 22.1395 15.2761 22.6709C15.6129 22.6713 15.7572 22.5972 16.0086 22.5124C16.037 21.8871 15.8106 21.3086 15.7454 20.7377C15.6124 20.7022 15.3681 20.8315 15.2025 20.8205ZM9.9583 17.9395C10.1804 19.9811 10.502 21.6973 11.092 23.5052C12.4014 23.9028 13.9799 23.9374 15.1372 23.5787C14.9247 22.5583 15.0176 21.316 14.8934 20.2271C14.7998 19.4087 14.8475 18.5852 14.7192 17.7502C13.3168 17.4585 11.3346 17.682 9.9583 17.9395ZM15.0508 17.763C15.0389 18.6399 15.09 19.5048 15.157 20.3827C15.4937 20.3322 15.7221 20.2984 16.035 20.2298C15.9334 19.3846 15.9459 18.4336 15.739 17.686C15.4998 17.6882 15.2892 17.6832 15.0508 17.763ZM16.7588 17.6217C16.599 17.5851 16.4129 17.6203 16.2603 17.6232C16.332 18.338 16.5061 19.1267 16.5674 19.877C16.8076 19.8845 16.936 19.7712 17.1336 19.7331C17.1441 19.0745 17.076 18.1671 16.7588 17.6217ZM19.345 19.9846C19.8457 19.863 20.1605 19.2497 20.0205 18.6199C19.9265 18.1967 19.7591 17.3996 19.58 17.1289C19.4476 16.9286 19.0887 16.6664 18.8021 16.8499C18.3359 17.1484 17.5147 17.2351 17.1747 17.5964C17.3452 18.164 17.3981 18.9436 17.4684 19.6627C18.0508 19.699 18.7674 19.5024 19.2517 19.711C18.9136 19.8206 18.4748 19.8214 18.1827 19.9811C18.4215 20.0964 18.9805 20.0731 19.345 19.9846ZM14.6887 16.9396C14.337 16.1124 14.0176 15.2553 13.4924 14.5888C12.9837 14.9301 12.4234 15.251 12.2804 15.8706C13.0087 16.2826 13.8577 16.6891 14.6887 16.9396ZM15.5556 14.3783C15.5223 15.2055 15.428 16.2905 15.2075 16.9388C15.7334 16.2691 16.1575 15.4894 16.6008 14.7301C16.4119 14.4268 16.0169 14.1624 15.5556 14.3783ZM14.5728 14.0291C14.3736 14.0076 14.2045 14.2581 13.9454 14.1498C13.8861 14.2154 13.8321 14.2865 13.7716 14.3506C14.3438 15.0401 14.6038 16.0185 15.0458 16.8288C15.2829 16.0504 15.2556 15.1976 15.3078 14.348C14.982 14.3686 14.8012 14.0533 14.5728 14.0291ZM13.9409 13.195C13.9197 13.4312 13.9746 13.5084 14.0221 13.7791C14.7984 14.0219 14.6629 12.7136 13.9409 13.195ZM13.08 12.9124C12.7455 12.7296 12.243 12.5306 11.8109 12.4481C11.2754 12.3457 11.3256 13.1787 11.3483 13.6756C11.3661 14.0691 11.5707 14.4851 11.6596 14.7465C11.7013 14.8686 11.7107 14.9981 11.8151 15.0223C11.9995 15.0653 12.6079 14.822 12.7812 14.7275C13.1479 14.5276 13.4323 14.2101 13.7437 13.9969C13.7478 13.8932 13.7517 13.7896 13.7558 13.6859C13.5686 13.5926 13.3523 13.5264 13.0774 13.5144C13.2639 13.4206 13.5381 13.422 13.708 13.3104C13.7097 13.2688 13.7114 13.2273 13.7128 13.1862C13.4027 13.1623 13.2845 13.0242 13.08 12.9124ZM9.88495 12.332C9.60732 12.6139 10.6636 12.9981 10.9999 13.0188C10.9981 12.8404 11.1016 12.6723 11.0807 12.5443C10.6813 12.4742 10.1563 12.5205 9.88495 12.332ZM13.305 12.4644C13.3036 12.4919 13.2677 12.4819 13.2619 12.5043C13.619 12.7835 13.8844 12.8412 14.3705 12.8172C14.5898 12.658 14.7842 12.472 15.0125 12.323C14.4869 12.3699 13.8254 12.6963 13.305 12.4644ZM16.4441 13.4163C16.4291 13.1032 16.3468 12.4592 16.1533 12.3465C15.747 12.1093 15.0249 12.8252 14.719 12.9344C14.7523 13.0302 14.8072 13.1061 14.8114 13.2286C14.9924 13.1841 15.2127 13.2146 15.3695 13.2916C15.1881 13.3119 14.9871 13.3106 14.8671 13.3969C14.8232 13.524 14.8779 13.6972 14.8487 13.8736C15.279 13.995 15.7706 14.0597 16.3147 14.0756C16.4205 13.9381 16.4566 13.676 16.4441 13.4163ZM9.41756 12.6047C9.33037 12.5425 8.7406 11.7751 8.6598 11.807C7.5926 12.2278 6.59473 12.9556 5.70302 13.6439C6.55321 15.4682 6.89641 17.7033 6.95705 19.8575C7.93098 20.313 8.78644 20.9697 10.108 21.0383C9.9551 19.9562 9.8155 18.9909 9.72869 17.9721C9.39662 17.8322 8.92021 17.9785 8.60945 17.9287C8.60681 17.5542 9.08405 17.7648 9.1238 17.5129C9.15376 17.3224 8.86122 17.308 8.95648 17.0081C9.19942 17.0964 9.32699 17.2914 9.58609 17.3647C9.82283 16.8467 9.58278 15.9303 9.6169 15.4974C9.62336 15.4162 9.65748 15.0471 9.83955 15.1119C10.0007 15.1692 9.83034 16.0933 9.848 16.503C9.86409 16.8805 9.80242 17.2457 9.95529 17.4827C11.2324 17.3089 12.5301 17.1965 13.9119 17.1586C13.6079 17.0282 13.2468 16.9047 12.8508 16.6815C12.6362 16.5605 11.9596 16.3088 11.8977 16.1049C11.7988 15.7801 12.157 15.607 12.2182 15.3285C11.5736 15.6801 11.4478 14.9915 11.2953 14.5037C11.1571 14.0619 11.0785 13.7318 11.0446 13.477C10.4893 13.2122 9.89554 12.9441 9.41756 12.6047ZM15.8801 11.8998C16.7693 11.4686 16.9295 13.5112 16.581 14.1692C16.6349 14.3655 16.8201 14.4406 16.8958 14.617C16.3996 15.5059 15.8484 16.3356 15.3421 17.214C15.7188 16.9796 16.2567 17.1721 16.6999 16.9966C16.8619 16.9325 16.9792 16.5617 17.1018 16.265C17.4392 15.4488 17.7934 14.4197 17.951 13.6408C17.9865 13.4633 18.0835 13.0766 18.0618 12.9186C18.023 12.6358 17.6393 12.4261 17.4441 12.2512C17.0845 11.9282 16.858 11.6439 16.483 11.3419C16.3309 11.5664 16.0045 11.7172 15.8801 11.8998ZM7.38405 4.01462C6.96036 4.48079 7.04904 5.35428 7.10034 5.97572C7.86616 5.49396 8.88263 6.01381 8.87305 6.83323C9.23868 6.82351 9.00965 6.37658 8.94351 6.08865C8.72737 5.14822 9.30764 4.1265 8.96982 3.26648C8.3139 3.31622 7.77503 3.58413 7.38405 4.01462ZM10.4156 1.30894C9.45645 1.5808 8.22717 2.27775 7.83302 3.1394C8.13822 3.09506 8.35009 2.94114 8.65116 2.92209C8.76495 2.91468 8.91401 2.96981 9.04479 2.93729C9.30539 2.87265 9.52533 2.28834 9.72193 2.07093C9.91357 1.85862 10.1439 1.7679 10.3016 1.57435C10.4028 1.52548 10.5526 1.52885 10.5583 1.37676C10.5144 1.32981 10.4682 1.29403 10.4156 1.30894ZM15.4086 1.56463C14.4131 1.00293 12.7279 0.580429 11.6689 1.10837C10.8144 1.53443 9.65936 2.23937 9.26555 3.13267C9.63343 3.9947 9.15658 4.78459 9.12614 5.6598C9.10998 6.1255 9.34541 6.53203 9.36344 7.039C9.23756 7.24669 8.85295 7.27228 8.58671 7.25804C8.49709 6.80957 8.3402 6.30549 7.87838 6.25489C7.2249 6.18341 6.74711 6.72424 6.71742 7.2894C6.68229 7.95404 7.22791 9.05561 8.00126 8.97913C8.3 8.9496 8.37339 8.65013 8.69889 8.65321C8.8753 9.0052 8.42675 9.11573 8.3806 9.36748C8.36858 9.43251 8.4178 9.68667 8.44643 9.80586C8.5869 10.3862 8.90004 11.1373 9.20825 11.5792C9.59943 12.1396 10.368 12.2241 11.1948 12.279C11.3425 11.9609 11.8865 11.9871 12.2409 12.0703C11.8161 11.902 11.4212 11.4941 11.0939 11.1331C10.7179 10.7189 10.3371 10.2745 10.3178 9.73313C11.0283 10.7188 11.6153 11.5796 12.9072 12.0131C13.8847 12.341 15.0264 11.8629 15.7775 11.3354C16.0892 11.1162 16.2753 10.7683 16.4968 10.4499C17.3258 9.25753 17.7126 7.55559 17.6275 5.90598C17.5925 5.22566 17.5941 4.54765 17.3658 4.08994C17.1272 3.61135 16.3203 3.18317 15.848 3.61607C15.7604 3.15066 16.2407 2.86283 16.8049 3.03032C16.4026 2.51113 15.9804 1.88728 15.4086 1.56463ZM17.2634 16.9148C18.0414 16.528 19.4949 15.8738 19.9827 16.9162C20.1627 17.3004 20.3738 17.9499 20.467 18.3466C20.5987 18.9061 20.3243 20.0823 19.7491 20.27C19.2411 20.4359 18.6483 20.4258 18.0364 20.3028C17.9643 20.2429 17.8841 20.1384 17.828 20.0296C17.3911 20.0126 16.9819 20.053 16.6368 20.2326C16.6695 20.5557 16.4509 20.6076 16.246 20.6742C16.0941 21.2764 16.5499 22.063 16.4408 22.6122C16.363 23.0034 15.8816 23.0639 15.5278 23.1371C15.5163 23.3546 15.5433 23.5361 15.5674 23.72C15.4865 24.0181 15.1237 24.1878 14.7799 24.2294C13.6487 24.3654 11.9311 24.4265 10.8431 24.0352C10.5394 23.2905 10.3002 22.3847 10.0473 21.5343C8.98616 21.6476 8.12789 21.0764 7.31878 20.7022C7.03864 20.5723 6.6511 20.5007 6.54645 20.2778C6.44499 20.0619 6.4865 19.6481 6.46133 19.2573C6.39726 18.259 6.3424 17.2962 6.07879 16.274C5.96042 15.8154 5.75412 15.4107 5.61019 14.9687C5.47717 14.5591 5.24476 14.0529 5.18414 13.6445C5.09426 13.0391 5.66431 13.0054 6.02881 12.7431C6.59228 12.3374 7.03458 12.1131 7.64483 11.747C7.82558 11.6385 8.37065 11.3641 8.43265 11.2377C8.5559 10.9871 8.22109 10.6337 8.13158 10.4373C7.98998 10.1267 7.91614 9.86281 7.89585 9.55632C7.38393 9.47542 6.99587 9.17076 6.76146 8.82723C6.3737 8.2587 6.10479 7.20687 6.44028 6.40678C6.46659 6.34377 6.59781 6.21987 6.61716 6.12309C6.65534 5.93252 6.54531 5.67914 6.53847 5.47645C6.50322 4.43654 6.71442 3.54055 7.41448 3.22694C7.69868 2.09478 8.71586 1.71836 9.6742 1.15569C10.0324 0.945406 10.4273 0.811016 10.8352 0.660946C12.2982 0.122524 14.5428 0.223917 15.7571 1.14223C16.2719 1.53164 17.0949 2.35385 17.3893 2.94912C18.1667 4.52072 18.1115 7.14722 17.5677 9.05897C17.4946 9.31563 17.3886 9.69292 17.2405 10.0012C17.1373 10.2165 16.8165 10.6473 16.8554 10.8374C16.8956 11.0339 17.5869 11.5589 17.7352 11.7018C18.0021 11.9594 18.5093 12.3012 18.5504 12.6261C18.5945 12.9719 18.398 13.445 18.2984 13.7788C17.9656 14.8924 17.6408 15.9219 17.2634 16.9148Z" fill="#231F20"/>
            <path fill-rule="evenodd" clip-rule="evenodd" d="M12.0732 9.20559C12.1154 9.14941 12.3475 9.06408 12.6721 9.22041C12.6721 9.22041 12.2873 9.28457 12.3194 9.92612L12.159 9.89399C12.159 9.89399 11.9933 9.31227 12.0732 9.20559Z" fill="#F7E4CD"/>
            <path fill-rule="evenodd" clip-rule="evenodd" d="M14.8847 14.7198C14.8847 14.8172 14.8057 14.8961 14.7083 14.8961C14.6109 14.8961 14.532 14.8172 14.532 14.7198C14.532 14.6225 14.6109 14.5434 14.7083 14.5434C14.8057 14.5434 14.8847 14.6225 14.8847 14.7198Z" fill="#1D1919"/>
            <path fill-rule="evenodd" clip-rule="evenodd" d="M15.0611 15.5375C15.0611 15.6348 14.9821 15.7138 14.8846 15.7138C14.7873 15.7138 14.7083 15.6348 14.7083 15.5375C14.7083 15.4401 14.7873 15.361 14.8846 15.361C14.9821 15.361 15.0611 15.4401 15.0611 15.5375Z" fill="#1D1919"/>
        </g>
        <defs>
            <clipPath id="clip0_294_3819__Jenkins">
                <rect width="24" height="24" fill="white" transform="translate(0.046875 0.333313)"/>
            </clipPath>
        </defs>
    </symbol>
    <symbol id="jQuery" width="25" height="25" viewBox="0 0 25 25" fill="none" xmlns="http://www.w3.org/2000/svg">
        <g clip-path="url(#clip0_294_3687__jQuery)">
            <path fill-rule="evenodd" clip-rule="evenodd" d="M23.4884 18.0922L23.3815 18.3728C21.5563 21.9376 18.3122 24.1236 13.6811 24.2198C11.5166 24.2652 9.45892 23.712 8.11209 23.1054C5.254 21.7889 2.90632 19.5717 1.42872 16.7935C-0.4873 13.087 -0.832024 7.92688 3.14967 4.07346C3.21113 4.07346 2.66866 4.90988 2.72745 4.90988L2.62056 5.26796C-0.249468 14.2468 8.58775 21.943 17.1791 21.0638C19.2421 20.85 21.8743 19.7223 23.491 18.0922" fill="#21609B"/>
            <path fill-rule="evenodd" clip-rule="evenodd" d="M18.2908 14.3804C20.4553 14.3938 22.7107 13.3837 24.0469 11.9674C22.8791 14.9336 19.4906 16.8443 14.9504 16.2377C11.1478 15.7299 7.52418 11.9006 7.15273 8.06584C6.88016 5.27598 7.85287 3.61115 9.45356 1.59091C8.89773 2.64646 8.68929 3.46151 8.63852 3.9826C8.02924 10.0193 13.4593 14.3484 18.2908 14.3778" fill="#21609B"/>
            <path fill-rule="evenodd" clip-rule="evenodd" d="M23.8304 6.882C23.4937 7.65429 21.559 9.10801 20.7039 9.28973C17.3234 10.0112 15.1562 8.40787 14.0232 6.58271C13.8522 6.31014 13.5422 5.56457 13.4861 5.37484C13.0451 3.87836 13.2455 1.61495 14.5603 0.444489C14.1648 1.55883 14.106 2.84954 14.3145 3.69398C14.4401 4.20171 14.8249 5.08891 15.2097 5.64741C15.9098 6.66288 16.3534 6.9114 17.2513 7.45387C17.6575 7.69438 18.0904 7.89213 18.2801 7.94557C19.1326 8.19409 20.931 8.85414 23.8304 6.882Z" fill="#21609B"/>
        </g>
        <defs>
            <clipPath id="clip0_294_3687__jQuery">
                <rect width="24" height="24" fill="white" transform="translate(0.046875 0.333313)"/>
            </clipPath>
        </defs>
    </symbol>
    <symbol id="Monday.com" width="25" height="25" viewBox="0 0 25 25" fill="none" xmlns="http://www.w3.org/2000/svg">
        <g clip-path="url(#clip0_294_3645__Monday.com)">
            <path d="M3.03242 19.4926C1.9523 19.495 0.954464 18.9159 0.420565 17.977C-0.105637 17.0438 -0.0740829 15.8965 0.502613 14.9936L5.8813 6.54729C6.44176 5.62311 7.45611 5.07197 8.53646 5.10461C9.61602 5.13049 10.598 5.73577 11.1061 6.68859C11.6076 7.6367 11.5449 8.77739 10.9443 9.66738L5.56906 18.1137C5.01506 18.977 4.05817 19.4972 3.03242 19.4926Z" fill="#F62B54"/>
            <path d="M12.2582 19.4926C11.1734 19.4926 10.1751 18.9126 9.65093 17.9804C9.1259 17.0498 9.15746 15.9053 9.73298 15.005L15.1014 6.57805C15.6538 5.64061 16.6711 5.07653 17.7588 5.10461C18.8528 5.12854 19.8442 5.74048 20.3456 6.6977C20.8436 7.65493 20.7707 8.80246 20.1519 9.69017L14.7846 18.1172C14.2324 18.9767 13.2799 19.4953 12.2582 19.4926Z" fill="#FFCC00"/>
            <path d="M21.2778 19.5633C22.8071 19.5633 24.0469 18.3495 24.0469 16.8523C24.0469 15.355 22.8071 14.1413 21.2778 14.1413C19.7485 14.1413 18.5087 15.355 18.5087 16.8523C18.5087 18.3495 19.7485 19.5633 21.2778 19.5633Z" fill="#00CA72"/>
        </g>
        <defs>
            <clipPath id="clip0_294_3645__Monday.com">
                <rect width="24" height="24" fill="white" transform="translate(0.046875 0.333313)"/>
            </clipPath>
        </defs>
    </symbol>
    <symbol id="MSOffice" width="25" height="25" viewBox="0 0 25 25" fill="none" xmlns="http://www.w3.org/2000/svg">
        <g clip-path="url(#clip0_294_3574__MSOffice)">
            <path d="M14.9049 21.3627C14.9415 21.1321 14.9509 4.45993 14.9161 4.0961C12.0832 4.77088 9.2545 5.44505 6.4142 6.12162V17.8742C4.95192 18.4458 3.49485 19.015 2.03838 19.5835C2.02901 19.5783 2.02097 19.5754 2.01338 19.57C2.00698 19.5654 1.99879 19.5583 1.99819 19.5519C1.99358 19.5078 1.98777 19.4638 1.98777 19.4192C1.98718 14.6704 1.98718 9.92104 1.98718 5.18397C2.05237 5.10361 2.13662 5.09354 2.20985 5.06665C6.37297 3.50756 10.5373 1.95011 14.7008 0.391171C14.8451 0.337091 14.9759 0.310654 15.1358 0.35767C17.4203 1.02073 19.707 1.67612 21.9932 2.33392C22.0263 2.34398 22.0595 2.3557 22.1066 2.37087V22.3866C21.4502 22.5691 20.7995 22.7516 20.1483 22.9311C18.4906 23.3882 16.8319 23.8419 15.1753 24.3024C15.0131 24.3477 14.8713 24.3442 14.7118 24.2855C10.6169 22.7722 6.52003 21.2636 2.42449 19.7543C2.34367 19.7245 2.26448 19.691 2.19646 19.6188C6.4328 20.2003 10.6691 20.7812 14.9049 21.3627Z" fill="#DC3E15"/>
        </g>
        <defs>
            <clipPath id="clip0_294_3574__MSOffice">
                <rect width="24" height="24" fill="white" transform="translate(0.046875 0.333313)"/>
            </clipPath>
        </defs>
    </symbol>
    <symbol id="Netlify" width="25" height="25" viewBox="0 0 25 25" fill="none" xmlns="http://www.w3.org/2000/svg">
        <g clip-path="url(#clip0_294_3899__Netlify)">
            <path d="M24.0078 12.287L23.9908 12.28L24.0398 12.329C24.0608 12.329 24.0078 12.287 24.0078 12.287ZM23.3188 12.851V12.895L23.4128 12.935L23.3188 12.851Z" fill="black"/>
            <path d="M14.98 16.6091V16.6131C14.993 16.6191 14.987 16.6141 14.98 16.6091Z" fill="url(#paint0_linear_294_3899__Netlify)"/>
            <path d="M2.78981 15.313L5.57281 14.129L5.60381 14.12L0.580811 13.071L2.78981 15.313Z" fill="url(#paint1_linear_294_3899__Netlify)"/>
            <path d="M6.93294 12.6462C6.98794 12.6462 7.04294 12.6492 7.09694 12.6542L7.09094 12.6532C7.20745 12.6377 7.32551 12.6381 7.44194 12.6542L7.43494 12.6532L10.1759 8.38816C9.96184 8.16647 9.84211 7.87036 9.84194 7.56216C9.83126 7.47011 9.8316 7.37713 9.84294 7.28516L9.84194 7.29116L6.51394 5.75116L3.83594 8.35916L6.77594 12.6532C6.82294 12.6482 6.87794 12.6462 6.93294 12.6462Z" fill="url(#paint2_linear_294_3899__Netlify)"/>
            <path d="M16.2058 8.74608L16.7808 5.18408L14.6458 2.94208L12.1348 6.80708V6.86008C12.2438 7.02408 12.3188 7.21908 12.3428 7.43008L12.3438 7.43608L15.8488 8.92308C15.9498 8.84508 16.0688 8.78408 16.1978 8.74708L16.2058 8.74608Z" fill="url(#paint3_linear_294_3899__Netlify)"/>
            <path d="M23.3738 12.9381L17.4408 10.4011C17.2748 10.6211 17.0268 10.7711 16.7438 10.8081L16.7388 10.8091L16.0898 14.7801C16.2758 14.9691 16.3928 15.2281 16.3938 15.5131L20.0348 16.2781L23.3728 12.9571L23.3738 12.9381Z" fill="url(#paint4_linear_294_3899__Netlify)"/>
            <path d="M20.3399 8.60907L17.7859 9.65707L24.0469 12.3211L20.3399 8.60907Z" fill="url(#paint5_linear_294_3899__Netlify)"/>
            <path d="M5.86487 13.4183H5.86688C5.93215 13.2959 6.01354 13.1829 6.10887 13.0823L6.10687 13.0833L3.33288 8.93427L0.046875 12.1293L5.86487 13.4183Z" fill="url(#paint6_linear_294_3899__Netlify)"/>
            <path d="M15.4929 9.77238C15.4882 9.7188 15.4886 9.6649 15.4939 9.61138V9.61538L15.4949 9.60638C15.4949 9.59479 15.4911 9.58352 15.4839 9.57438L12.2079 8.17938C11.9899 8.50938 11.6209 8.72538 11.2009 8.72538L11.1599 8.72438H10.9629L8.25293 12.9154L15.4929 9.77238Z" fill="url(#paint7_linear_294_3899__Netlify)"/>
            <path d="M3.38599 15.827L4.62099 17.053L6.02299 14.874L5.92899 14.779L3.38599 15.827Z" fill="url(#paint8_linear_294_3899__Netlify)"/>
            <path d="M16.257 16.2463C16.138 16.3983 15.982 16.5163 15.803 16.5883L15.796 16.5913L15.033 21.3273L19.48 16.9163C19.48 16.9163 19.47 16.9363 19.459 16.9363V16.9063L16.257 16.2463Z" fill="url(#paint9_linear_294_3899__Netlify)"/>
            <path d="M17.021 8.84042C17.139 8.90042 17.239 8.97742 17.324 9.07042L17.325 9.07142L19.679 8.02242L17.482 5.84442L16.99 8.80842L17.021 8.84042Z" fill="url(#paint10_linear_294_3899__Netlify)"/>
            <path d="M11.9458 24.3334L13.1388 23.1494L7.7278 15.3034C7.5628 15.3814 7.36779 15.4274 7.16379 15.4284H7.15779C6.99879 15.4284 6.84479 15.4014 6.7028 15.3524L6.71279 15.3554L5.16479 17.6084L11.9458 24.3334Z" fill="url(#paint11_linear_294_3899__Netlify)"/>
            <path d="M8.41992 13.732C8.45392 13.784 8.48792 13.846 8.51892 13.91L8.52392 13.921L14.4159 15.136C14.5004 14.9887 14.6193 14.8641 14.7624 14.7729C14.9056 14.6816 15.0688 14.6264 15.2379 14.612H15.2419L15.8809 10.705L15.7459 10.59L8.41992 13.732Z" fill="url(#paint12_linear_294_3899__Netlify)"/>
            <path d="M11.9979 0.333191L7.07988 5.16219C7.07988 5.16219 7.06988 5.21419 7.07988 5.22519L10.3249 6.60819C10.56 6.41348 10.8589 6.31268 11.1639 6.32519H11.1619C11.3039 6.32619 11.4419 6.34919 11.5699 6.39119L11.5599 6.38819L14.0919 2.42819L11.9979 0.333191Z" fill="url(#paint13_linear_294_3899__Netlify)"/>
            <path d="M14.3649 15.8762L14.3629 15.8692L8.39894 14.6432L8.31494 14.7792L13.7259 22.6163L14.0499 22.2912L14.9709 16.6022L14.9809 16.6092V16.5812C14.8306 16.5195 14.6967 16.4237 14.5898 16.3014C14.4829 16.179 14.4059 16.0335 14.3649 15.8762Z" fill="url(#paint14_linear_294_3899__Netlify)"/>
        </g>
        <defs>
            <linearGradient id="paint0_linear_294_3899__Netlify" x1="14.984" y1="2.45552" x2="14.984" y2="23.0872" gradientUnits="userSpaceOnUse">
                <stop stop-color="#39C4B6"/>
                <stop offset="1" stop-color="#529AC3"/>
            </linearGradient>
            <linearGradient id="paint1_linear_294_3899__Netlify" x1="3.09281" y1="2.45799" x2="3.09281" y2="23.086" gradientUnits="userSpaceOnUse">
                <stop stop-color="#39C4B6"/>
                <stop offset="1" stop-color="#529AC3"/>
            </linearGradient>
            <linearGradient id="paint2_linear_294_3899__Netlify" x1="7.00594" y1="2.45816" x2="7.00594" y2="23.0862" gradientUnits="userSpaceOnUse">
                <stop stop-color="#39C4B6"/>
                <stop offset="1" stop-color="#529AC3"/>
            </linearGradient>
            <linearGradient id="paint3_linear_294_3899__Netlify" x1="14.4578" y1="2.45808" x2="14.4578" y2="23.0861" gradientUnits="userSpaceOnUse">
                <stop stop-color="#39C4B6"/>
                <stop offset="1" stop-color="#529AC3"/>
            </linearGradient>
            <linearGradient id="paint4_linear_294_3899__Netlify" x1="19.7318" y1="2.45806" x2="19.7318" y2="23.0861" gradientUnits="userSpaceOnUse">
                <stop stop-color="#39C4B6"/>
                <stop offset="1" stop-color="#529AC3"/>
            </linearGradient>
            <linearGradient id="paint5_linear_294_3899__Netlify" x1="20.9159" y1="2.45807" x2="20.9159" y2="23.0861" gradientUnits="userSpaceOnUse">
                <stop stop-color="#39C4B6"/>
                <stop offset="1" stop-color="#529AC3"/>
            </linearGradient>
            <linearGradient id="paint6_linear_294_3899__Netlify" x1="3.07787" y1="2.45826" x2="3.07787" y2="23.0863" gradientUnits="userSpaceOnUse">
                <stop stop-color="#39C4B6"/>
                <stop offset="1" stop-color="#529AC3"/>
            </linearGradient>
            <linearGradient id="paint7_linear_294_3899__Netlify" x1="11.8729" y1="2.45838" x2="11.8729" y2="23.0864" gradientUnits="userSpaceOnUse">
                <stop stop-color="#39C4B6"/>
                <stop offset="1" stop-color="#529AC3"/>
            </linearGradient>
            <linearGradient id="paint8_linear_294_3899__Netlify" x1="4.70399" y1="2.458" x2="4.70399" y2="23.086" gradientUnits="userSpaceOnUse">
                <stop stop-color="#39C4B6"/>
                <stop offset="1" stop-color="#529AC3"/>
            </linearGradient>
            <linearGradient id="paint9_linear_294_3899__Netlify" x1="17.257" y1="2.45828" x2="17.257" y2="23.0863" gradientUnits="userSpaceOnUse">
                <stop stop-color="#39C4B6"/>
                <stop offset="1" stop-color="#529AC3"/>
            </linearGradient>
            <linearGradient id="paint10_linear_294_3899__Netlify" x1="18.335" y1="2.45842" x2="18.335" y2="23.0864" gradientUnits="userSpaceOnUse">
                <stop stop-color="#39C4B6"/>
                <stop offset="1" stop-color="#529AC3"/>
            </linearGradient>
            <linearGradient id="paint11_linear_294_3899__Netlify" x1="9.1518" y1="2.45841" x2="9.1518" y2="23.0864" gradientUnits="userSpaceOnUse">
                <stop stop-color="#39C4B6"/>
                <stop offset="1" stop-color="#529AC3"/>
            </linearGradient>
            <linearGradient id="paint12_linear_294_3899__Netlify" x1="12.1499" y1="2.45803" x2="12.1499" y2="23.086" gradientUnits="userSpaceOnUse">
                <stop stop-color="#39C4B6"/>
                <stop offset="1" stop-color="#529AC3"/>
            </linearGradient>
            <linearGradient id="paint13_linear_294_3899__Netlify" x1="10.5829" y1="2.45819" x2="10.5829" y2="23.0862" gradientUnits="userSpaceOnUse">
                <stop stop-color="#39C4B6"/>
                <stop offset="1" stop-color="#529AC3"/>
            </linearGradient>
            <linearGradient id="paint14_linear_294_3899__Netlify" x1="11.6469" y1="2.45825" x2="11.6469" y2="23.0863" gradientUnits="userSpaceOnUse">
                <stop stop-color="#39C4B6"/>
                <stop offset="1" stop-color="#529AC3"/>
            </linearGradient>
            <clipPath id="clip0_294_3899__Netlify">
                <rect width="24" height="24" fill="white" transform="translate(0.046875 0.333313)"/>
            </clipPath>
        </defs>
    </symbol>
    <symbol id="Node" width="25" height="25" viewBox="0 0 25 25" fill="none" xmlns="http://www.w3.org/2000/svg">
        <g clip-path="url(#clip0_294_3549__Node)">
            <path d="M12.6165 0.48402C12.2592 0.282996 11.8348 0.282996 11.4774 0.48402L2.07395 5.91166C1.71658 6.11268 1.51555 6.4924 1.51555 6.89444V17.7721C1.51555 18.1741 1.73891 18.5538 2.07395 18.7548L11.4774 24.1825C11.8348 24.3835 12.2592 24.3835 12.6165 24.1825L22.02 18.7548C22.3773 18.5538 22.5784 18.1741 22.5784 17.7721V6.89444C22.5784 6.4924 22.355 6.11268 22.02 5.91166L12.6165 0.48402Z" fill="url(#paint0_linear_294_3549__Node)"/>
            <mask id="mask0_294_3549__Node" style="mask-type:luminance" maskUnits="userSpaceOnUse" x="1" y="0" width="22" height="25">
                <path d="M12.6165 0.48402C12.2592 0.282996 11.8348 0.282996 11.4774 0.48402L2.07395 5.91166C1.71658 6.11268 1.51555 6.4924 1.51555 6.89444V17.7721C1.51555 18.1741 1.73891 18.5538 2.07395 18.7548L11.4774 24.1825C11.8348 24.3835 12.2592 24.3835 12.6165 24.1825L22.02 18.7548C22.3773 18.5538 22.5784 18.1741 22.5784 17.7721V6.89444C22.5784 6.4924 22.355 6.11268 22.02 5.91166L12.6165 0.48402Z" fill="white"/>
            </mask>
            <g mask="url(#mask0_294_3549__Node)">
                <path d="M22.0423 5.91166L12.5942 0.484025C12.5049 0.439353 12.3932 0.394681 12.3038 0.372345L1.71658 18.5092C1.80593 18.6208 1.91761 18.7102 2.02929 18.7772L11.4774 24.2048C11.7454 24.3612 12.0581 24.4058 12.3485 24.3165L22.288 6.13502C22.221 6.04568 22.1317 5.97867 22.0423 5.91166Z" fill="url(#paint1_linear_294_3549__Node)"/>
            </g>
            <mask id="mask1_294_3549__Node" style="mask-type:luminance" maskUnits="userSpaceOnUse" x="1" y="0" width="22" height="25">
                <path d="M12.6165 0.48402C12.2592 0.282996 11.8348 0.282996 11.4774 0.48402L2.07395 5.91166C1.71658 6.11268 1.51555 6.4924 1.51555 6.89444V17.7721C1.51555 18.1741 1.73891 18.5538 2.07395 18.7548L11.4774 24.1825C11.8348 24.3835 12.2592 24.3835 12.6165 24.1825L22.02 18.7548C22.3773 18.5538 22.5784 18.1741 22.5784 17.7721V6.89444C22.5784 6.4924 22.355 6.11268 22.02 5.91166L12.6165 0.48402Z" fill="white"/>
            </mask>
            <g mask="url(#mask1_294_3549__Node)">
                <path d="M22.0646 18.7548C22.3327 18.5985 22.5337 18.3305 22.623 18.0401L12.2592 0.350006C11.9911 0.305334 11.7008 0.32767 11.4551 0.484022L2.07396 5.88933L12.1922 24.3388C12.3262 24.3165 12.4825 24.2718 12.6165 24.2048L22.0646 18.7548Z" fill="url(#paint2_linear_294_3549__Node)"/>
            </g>
        </g>
        <defs>
            <linearGradient id="paint0_linear_294_3549__Node" x1="1437.76" y1="420.017" x2="407.009" y2="2039.56" gradientUnits="userSpaceOnUse">
                <stop stop-color="#41873F"/>
                <stop offset="0.3288" stop-color="#418B3D"/>
                <stop offset="0.6352" stop-color="#419637"/>
                <stop offset="0.9319" stop-color="#3FA92D"/>
                <stop offset="1" stop-color="#3FAE2A"/>
            </linearGradient>
            <linearGradient id="paint1_linear_294_3549__Node" x1="891.977" y1="1323.85" x2="3473.32" y2="-78.5818" gradientUnits="userSpaceOnUse">
                <stop offset="0.1376" stop-color="#41873F"/>
                <stop offset="0.4032" stop-color="#54A044"/>
                <stop offset="0.7136" stop-color="#66B848"/>
                <stop offset="0.9081" stop-color="#6CC04A"/>
            </linearGradient>
            <linearGradient id="paint2_linear_294_3549__Node" x1="-88.112" y1="1200.72" x2="2087.79" y2="1200.72" gradientUnits="userSpaceOnUse">
                <stop offset="0.0919165" stop-color="#6CC04A"/>
                <stop offset="0.2864" stop-color="#66B848"/>
                <stop offset="0.5968" stop-color="#54A044"/>
                <stop offset="0.8624" stop-color="#41873F"/>
            </linearGradient>
            <clipPath id="clip0_294_3549__Node">
                <rect width="24" height="24" fill="white" transform="translate(0.046875 0.333313)"/>
            </clipPath>
        </defs>
    </symbol>
    <symbol id="Notion" width="25" height="25" viewBox="0 0 25 25" fill="none" xmlns="http://www.w3.org/2000/svg">
        <g clip-path="url(#clip0_294_3700__Notion)">
            <path d="M2.00531 1.36857L15.2852 0.387782C16.9163 0.247783 17.3355 0.342182 18.3611 1.08777L22.6003 4.07414C23.2995 4.58773 23.5323 4.72773 23.5323 5.28692V21.6651C23.5323 22.6915 23.1595 23.2987 21.8547 23.3915L6.43326 24.3251C5.45407 24.3715 4.98767 24.2315 4.47488 23.5779L1.35332 19.5188C0.793322 18.7716 0.561325 18.2124 0.561325 17.5588V3.00055C0.561325 2.16136 0.934121 1.46137 2.00531 1.36857Z" fill="white"/>
            <path d="M15.2852 0.387782L2.00531 1.36857C0.934121 1.46137 0.561325 2.16136 0.561325 3.00055V17.5588C0.561325 18.2124 0.793322 18.7716 1.35332 19.5188L4.47488 23.5779C4.98767 24.2315 5.45407 24.3715 6.43326 24.3251L21.8547 23.3915C23.1587 23.2987 23.5323 22.6915 23.5323 21.6651V5.28692C23.5323 4.75653 23.3227 4.60373 22.7059 4.15094C22.6704 4.12537 22.6349 4.09977 22.5995 4.07414L18.3611 1.08777C17.3355 0.342182 16.9163 0.247783 15.2852 0.387782ZM6.78205 5.01893C5.52287 5.10373 5.23727 5.12293 4.52208 4.54133L2.7037 3.09495C2.5189 2.90775 2.6117 2.67416 3.0773 2.62776L15.8435 1.69497C16.9155 1.60137 17.4739 1.97496 17.8931 2.30136L20.0827 3.88774C20.1763 3.93494 20.4091 4.21414 20.1291 4.21414L6.94525 5.00773L6.78205 5.01893ZM5.31407 21.5251V7.6213C5.31407 7.01411 5.50047 6.73411 6.05886 6.68691L21.2011 5.80052C21.7147 5.75412 21.9467 6.08052 21.9467 6.68691V20.4979C21.9467 21.1051 21.8531 21.6187 21.0147 21.6651L6.52446 22.5051C5.68607 22.5515 5.31407 22.2723 5.31407 21.5251ZM19.6179 8.36689C19.7107 8.78688 19.6179 9.20688 19.1979 9.25488L18.4995 9.39328V19.6588C17.8931 19.9852 17.3347 20.1716 16.8683 20.1716C16.1227 20.1716 15.9363 19.938 15.378 19.2388L10.8108 12.0532V19.0052L12.2556 19.3324C12.2556 19.3324 12.2556 20.1724 11.09 20.1724L7.87644 20.3588C7.78284 20.1716 7.87644 19.7052 8.20204 19.6124L9.04123 19.3796V10.1877L7.87644 10.0933C7.78284 9.67327 8.01564 9.06688 8.66843 9.01968L12.1164 8.78768L16.8683 16.066V9.62687L15.6572 9.48768C15.5636 8.97328 15.9363 8.59969 16.4019 8.55409L19.6179 8.36689Z" fill="black"/>
        </g>
        <defs>
            <clipPath id="clip0_294_3700__Notion">
                <rect width="24" height="24" fill="white" transform="translate(0.046875 0.333313)"/>
            </clipPath>
        </defs>
    </symbol>
    <symbol id="Photoshop" width="25" height="25" viewBox="0 0 25 25" fill="none" xmlns="http://www.w3.org/2000/svg">
        <g clip-path="url(#clip0_294_3670__Photoshop)">
            <rect x="0.046875" y="0.333313" width="24" height="24" rx="4" fill="#001E36"/>
            <path d="M8.02648 6.93341C7.72648 6.93341 7.42648 6.93341 7.11654 6.94354C6.80642 6.95347 6.51635 6.95347 6.24635 6.9636C5.97635 6.97354 5.72642 6.97354 5.48642 6.98347C5.25635 6.99341 5.09642 6.99341 4.92635 6.99341C4.85642 6.99341 4.82642 7.03335 4.82642 7.10347V17.3935C4.82642 17.4835 4.86635 17.5236 4.94642 17.5236H6.88648C6.95642 17.5135 7.00648 17.4535 6.99635 17.3835V14.1735C7.18629 14.1735 7.32635 14.1735 7.42648 14.1835C7.52642 14.1934 7.68635 14.1934 7.92635 14.1934C8.74648 14.1934 9.49648 14.1034 10.1764 13.8535C10.8264 13.6135 11.3865 13.1935 11.7864 12.6334C12.1864 12.0735 12.3864 11.3635 12.3864 10.5034C12.3864 10.0534 12.3065 9.62347 12.1565 9.20347C11.9977 8.77553 11.7487 8.38674 11.4264 8.06347C11.0461 7.69403 10.5884 7.41387 10.0864 7.24335C9.52629 7.03335 8.84642 6.93341 8.02648 6.93341ZM8.2496 8.9031C8.60585 8.90985 8.95273 8.9721 9.27635 9.10335C9.56642 9.21341 9.80642 9.41347 9.97648 9.67335C10.1362 9.94222 10.216 10.251 10.2065 10.5636C10.2065 11.0035 10.1064 11.3436 9.89642 11.5935C9.67629 11.8435 9.39635 12.0336 9.07648 12.1236C8.70635 12.2436 8.31635 12.3034 7.92635 12.3034H7.39629C7.27629 12.3034 7.14654 12.2935 7.00648 12.2835V8.92354C7.07642 8.91341 7.21648 8.90347 7.41654 8.9136C7.60648 8.90347 7.83635 8.90347 8.09642 8.90347C8.1476 8.90216 8.19879 8.90197 8.2496 8.9031ZM16.6365 9.41366C15.9264 9.41366 15.3364 9.52354 14.8665 9.76354C14.4365 9.9636 14.0664 10.2835 13.8165 10.6834C13.5965 11.0535 13.4764 11.4634 13.4764 11.8935C13.4678 12.2473 13.5468 12.5977 13.7064 12.9135C13.8935 13.2498 14.1532 13.5402 14.4665 13.7635C14.9065 14.0643 15.3838 14.3063 15.8865 14.4835C16.3764 14.6734 16.7064 14.8234 16.8665 14.9533C17.0265 15.0835 17.1065 15.2134 17.1065 15.3535C17.1065 15.5335 16.9965 15.7035 16.8365 15.7735C16.6565 15.8635 16.3865 15.9135 16.0065 15.9135C15.6065 15.9135 15.2064 15.8635 14.8264 15.7635C14.39 15.666 13.9716 15.5007 13.5864 15.2736C13.5564 15.2535 13.5264 15.2436 13.4964 15.2637C13.4664 15.2835 13.4565 15.3235 13.4565 15.3535V17.0935C13.4465 17.1735 13.4964 17.2435 13.5665 17.2834C13.8908 17.4349 14.2338 17.5426 14.5865 17.6035C15.0365 17.6935 15.4864 17.7334 15.9463 17.7334C16.6663 17.7334 17.2665 17.6235 17.7564 17.4135C18.2064 17.2335 18.5964 16.9236 18.8764 16.5235C19.1384 16.1301 19.2745 15.6662 19.2664 15.1935C19.2761 14.8365 19.1971 14.4826 19.0365 14.1636C18.8464 13.8235 18.5764 13.5435 18.2464 13.3335C17.7636 13.0304 17.2467 12.7853 16.7064 12.6034C16.4651 12.5036 16.2282 12.3935 15.9964 12.2734C15.8664 12.2035 15.7464 12.1135 15.6564 12.0034C15.5964 11.9233 15.5565 11.8335 15.5565 11.7435C15.5565 11.6535 15.5865 11.5536 15.6364 11.4735C15.7065 11.3736 15.8164 11.3035 15.9463 11.2735C16.1364 11.2236 16.3464 11.1934 16.5463 11.2033C16.9264 11.2033 17.2963 11.2534 17.6664 11.3335C18.0065 11.4034 18.3264 11.5135 18.6264 11.6736C18.6664 11.6935 18.7164 11.6935 18.8064 11.6736C18.8221 11.6621 18.8348 11.647 18.8435 11.6296C18.8522 11.6122 18.8566 11.5929 18.8565 11.5735V9.94354C18.8565 9.90341 18.8464 9.86347 18.8364 9.82354C18.8164 9.7836 18.7764 9.74347 18.7365 9.73354C18.4607 9.62073 18.1717 9.54343 17.8764 9.50347C17.4658 9.44367 17.0514 9.41378 16.6365 9.41366Z" fill="#31A8FF"/>
        </g>
        <defs>
            <clipPath id="clip0_294_3670__Photoshop">
                <rect width="24" height="24" fill="white" transform="translate(0.046875 0.333313)"/>
            </clipPath>
        </defs>
    </symbol>
    <symbol id="Pocketbase" width="25" height="25" viewBox="0 0 25 25" fill="none" xmlns="http://www.w3.org/2000/svg">
        <g clip-path="url(#clip0_294_3694__Pocketbase)">
            <path d="M5.73093 12.3333C5.56349 12.333 5.40299 12.2663 5.28468 12.1479C5.16638 12.0294 5.09993 11.8688 5.09993 11.7013V4.75431C5.09993 4.40531 5.38193 4.12231 5.73093 4.12231H8.10093C8.56093 4.12231 8.98993 4.16931 9.38793 4.26131C9.79493 4.34531 10.1459 4.49131 10.4409 4.70131C10.7439 4.90331 10.9819 5.17631 11.1559 5.52131C11.3289 5.85631 11.4159 6.27131 11.4159 6.76731C11.4159 7.24631 11.3239 7.66131 11.1429 8.01431C10.9777 8.35712 10.7325 8.65517 10.4279 8.88331C10.1118 9.11592 9.75452 9.28659 9.37493 9.38631C8.97693 9.49631 8.55193 9.55031 8.10193 9.55031H7.64193C7.47431 9.55031 7.31356 9.6169 7.19504 9.73542C7.07651 9.85394 7.00993 10.0147 7.00993 10.1823V11.7023C7.00966 11.8698 6.94296 12.0303 6.82447 12.1486C6.70597 12.2669 6.54537 12.3333 6.37793 12.3333H5.73093ZM7.00993 7.44531C7.00993 7.79431 7.29293 8.07731 7.64193 8.07731H7.98493C9.02493 8.07731 9.54493 7.64031 9.54493 6.76731C9.54493 6.33931 9.40993 6.03731 9.14093 5.86031C8.88093 5.68431 8.49593 5.59631 7.98493 5.59631H7.64193C7.47448 5.59631 7.31388 5.66276 7.19539 5.78107C7.0769 5.89937 7.01019 6.05987 7.00993 6.22731V7.44531ZM13.3099 20.5433C13.1427 20.543 12.9823 20.4765 12.864 20.3582C12.7458 20.2399 12.6792 20.0796 12.6789 19.9123V12.9653C12.6787 12.8823 12.6948 12.8001 12.7264 12.7234C12.758 12.6466 12.8045 12.5769 12.8631 12.5182C12.9217 12.4595 12.9914 12.4129 13.0681 12.3812C13.1447 12.3494 13.2269 12.3332 13.3099 12.3333H15.5129C15.9529 12.3333 16.3579 12.3673 16.7289 12.4333C17.1089 12.4933 17.4369 12.6023 17.7129 12.7613C17.9889 12.9213 18.2049 13.1313 18.3599 13.3913C18.5239 13.6513 18.6059 13.9783 18.6059 14.3733C18.6059 14.5583 18.5759 14.7433 18.5159 14.9273C18.4627 15.1142 18.3744 15.2893 18.2559 15.4433C17.9919 15.7971 17.6104 16.0453 17.1799 16.1433C17.1733 16.1451 17.1675 16.149 17.1633 16.1544C17.1592 16.1598 17.1569 16.1665 17.1569 16.1733C17.1569 16.1883 17.1669 16.2013 17.1819 16.2033C17.7729 16.3143 18.2219 16.5233 18.5279 16.8293C18.8389 17.1393 18.9939 17.5723 18.9939 18.1263C18.9939 18.5463 18.9119 18.9063 18.7479 19.2093C18.5833 19.5122 18.3484 19.7711 18.0629 19.9643C17.7445 20.1679 17.3944 20.3169 17.0269 20.4053C16.6111 20.5009 16.1856 20.5475 15.7589 20.5443L13.3099 20.5433ZM14.5809 15.0013C14.5809 15.3503 14.8639 15.6323 15.2129 15.6323H15.4229C15.8879 15.6323 16.2249 15.5443 16.4319 15.3683C16.6389 15.1923 16.7419 14.9443 16.7419 14.6253C16.7419 14.3233 16.6349 14.1093 16.4189 13.9833C16.2119 13.8483 15.8839 13.7813 15.4349 13.7813H15.2129C15.0453 13.7813 14.8846 13.8479 14.766 13.9664C14.6475 14.0849 14.5809 14.2457 14.5809 14.4133V15.0013ZM14.5809 18.4643C14.5809 18.8133 14.8639 19.0953 15.2129 19.0953H15.6029C16.6219 19.0953 17.1309 18.7263 17.1309 17.9873C17.1309 17.6273 17.0059 17.3663 16.7549 17.2073C16.5139 17.0473 16.1299 16.9673 15.6029 16.9673H15.2129C15.0453 16.9673 14.8846 17.0339 14.766 17.1524C14.6475 17.2709 14.5809 17.4317 14.5809 17.5993V18.4643ZM1.43593 0.333313C0.675928 0.333313 0.0469284 0.962313 0.0469284 1.72231V15.3633C0.0495434 15.731 0.196692 16.0829 0.456587 16.3429C0.716482 16.603 1.06826 16.7504 1.43593 16.7533H8.25693C8.4242 16.7528 8.58444 16.686 8.70253 16.5675C8.82062 16.449 8.88693 16.2886 8.88693 16.1213C8.8864 15.9544 8.81986 15.7945 8.70182 15.6764C8.58379 15.5584 8.42385 15.4918 8.25693 15.4913H1.43593C1.35793 15.4913 1.31093 15.4413 1.31093 15.3633V1.72331C1.31093 1.64531 1.35793 1.59831 1.43593 1.59831H15.0769C15.1549 1.59831 15.2039 1.64531 15.2039 1.72331V8.54331C15.2045 8.71041 15.2711 8.8705 15.3894 8.98856C15.5076 9.10662 15.6678 9.17305 15.8349 9.17331C16.0024 9.17358 16.1631 9.10738 16.2818 8.98927C16.4004 8.87115 16.4674 8.71076 16.4679 8.54331V1.72231C16.4651 1.35482 16.3178 1.00319 16.0579 0.743321C15.7981 0.483453 15.4464 0.336189 15.0789 0.333313H1.43593ZM15.8369 7.91131C15.7538 7.91131 15.6716 7.92769 15.5948 7.95952C15.5181 7.99134 15.4484 8.03798 15.3897 8.09678C15.331 8.15557 15.2845 8.22536 15.2527 8.30215C15.221 8.37894 15.2048 8.46123 15.2049 8.54431C15.2055 8.71141 15.2721 8.8715 15.3904 8.98956C15.5086 9.10762 15.6688 9.17405 15.8359 9.17431H22.6579C22.7359 9.17431 22.7829 9.22431 22.7829 9.30231V22.9433C22.7829 23.0213 22.7359 23.0683 22.6579 23.0683H9.01693C8.93993 23.0683 8.88993 23.0213 8.88993 22.9433V16.1233C8.8894 15.9562 8.82272 15.7961 8.70447 15.6781C8.58622 15.56 8.42603 15.4936 8.25893 15.4933C8.09148 15.493 7.93078 15.5592 7.8121 15.6774C7.69341 15.7955 7.62646 15.9559 7.62593 16.1233V22.9453C7.62907 23.3126 7.77645 23.664 8.03628 23.9237C8.29612 24.1833 8.6476 24.3304 9.01493 24.3333H22.6579C23.4179 24.3333 24.0469 23.7043 24.0469 22.9443V9.30331C24.0443 8.93564 23.8972 8.58376 23.6373 8.32368C23.3774 8.06359 23.0256 7.91619 22.6579 7.91331L15.8369 7.91131Z" fill="black"/>
        </g>
        <defs>
            <clipPath id="clip0_294_3694__Pocketbase">
                <rect width="24" height="24" fill="white" transform="translate(0.046875 0.333313)"/>
            </clipPath>
        </defs>
    </symbol>
    <symbol id="React" width="25" height="25" viewBox="0 0 25 25" fill="none" xmlns="http://www.w3.org/2000/svg">
        <g clip-path="url(#clip0_294_3624__React)">
            <path d="M12.0469 14.4547C13.2304 14.4547 14.1897 13.4953 14.1897 12.3118C14.1897 11.1283 13.2304 10.1689 12.0469 10.1689C10.8634 10.1689 9.90403 11.1283 9.90403 12.3118C9.90403 13.4953 10.8634 14.4547 12.0469 14.4547Z" fill="#00D8FF"/>
            <path d="M12.0469 17.2249C9.47129 17.2872 6.90214 16.94 4.43546 16.1963C3.29599 15.8351 2.23323 15.2661 1.30089 14.518C0.945116 14.2624 0.648837 13.9329 0.432383 13.5521C0.21593 13.1713 0.0844242 12.7481 0.0468903 12.3117C0.0468903 10.8949 1.60346 9.50628 4.21089 8.59771C6.74352 7.79264 9.38968 7.40246 12.0469 7.44228C14.6686 7.40565 17.2794 7.78878 19.78 8.57714C20.8774 8.92699 21.9041 9.4685 22.8126 10.1766C23.1623 10.4202 23.4541 10.7378 23.6674 11.1067C23.8807 11.4757 24.0103 11.8871 24.0469 12.3117C24.0469 13.7843 22.3069 15.2766 19.504 16.204C17.0851 16.9235 14.5702 17.2677 12.0469 17.2249ZM12.0469 8.46742C9.5047 8.43344 6.97331 8.80437 4.54775 9.56628C2.14775 10.4037 1.07203 11.5489 1.07203 12.3091C1.07203 13.1046 2.22832 14.3551 4.76718 15.2234C7.12695 15.9313 9.58399 16.2608 12.0469 16.1997C14.461 16.2429 16.8674 15.9162 19.1826 15.2311C21.8183 14.3577 23.0183 13.1054 23.0183 12.3117C22.9751 12.0393 22.8758 11.7789 22.7268 11.5468C22.5778 11.3147 22.3823 11.1161 22.1526 10.9634C21.3398 10.3353 20.4226 9.85534 19.4432 9.54571C17.0509 8.79464 14.554 8.43063 12.0469 8.46742Z" fill="#00D8FF"/>
            <path d="M7.1784 22.9994C6.77855 23.0086 6.38341 22.9116 6.03326 22.7182C4.80583 22.0102 4.38069 19.9685 4.89583 17.2557C5.46381 14.6595 6.44795 12.1722 7.81012 9.89025C9.08788 7.60091 10.7237 5.53074 12.6555 3.75825C13.5068 2.98228 14.4889 2.36328 15.5561 1.92996C15.9421 1.74905 16.3632 1.65527 16.7895 1.65527C17.2159 1.65527 17.637 1.74905 18.023 1.92996C19.2993 2.66539 19.7218 4.91796 19.1261 7.8091C18.5406 10.2644 17.582 12.6155 16.2838 14.7802C15.051 17.0426 13.4667 19.0947 11.5901 20.86C10.7079 21.6663 9.68412 22.3025 8.5704 22.7362C8.12453 22.9017 7.65391 22.9907 7.1784 22.9994ZM8.69812 10.3994C7.39877 12.5845 6.45554 14.9626 5.90383 17.4442C5.42983 19.9428 5.88497 21.4454 6.54669 21.8277C7.2324 22.2245 8.89697 21.8482 10.9181 20.0825C12.7096 18.3913 14.2217 16.427 15.3984 14.2625C16.6421 12.193 17.5616 9.94523 18.125 7.59739C18.6855 4.87596 18.2013 3.20968 17.5138 2.81368C17.2562 2.71496 16.9809 2.67076 16.7053 2.68389C16.4297 2.69703 16.1598 2.76719 15.9127 2.88996C14.9627 3.28197 14.0893 3.8385 13.3327 4.53396C11.487 6.23178 9.92442 8.21362 8.70412 10.4045L8.69812 10.3994Z" fill="#00D8FF"/>
            <path d="M16.9129 23.0105C15.7515 23.0105 14.2764 22.3077 12.7404 20.9868C10.7747 19.1982 9.11119 17.1034 7.81435 14.7837C6.46927 12.5331 5.49293 10.0819 4.92235 7.52282C4.6749 6.39695 4.62905 5.23612 4.78693 4.09425C4.82342 3.67065 4.95241 3.26022 5.16478 2.8919C5.37716 2.52358 5.66775 2.20633 6.01607 1.96253C7.29064 1.22453 9.45321 1.9831 11.6604 3.94253C13.4951 5.67583 15.0533 7.68028 16.2804 9.88596C17.6246 12.084 18.6112 14.4816 19.2032 16.9891C19.4613 18.1563 19.5011 19.3611 19.3206 20.5428C19.2777 20.9786 19.141 21.3999 18.92 21.7779C18.699 22.156 18.3988 22.4817 18.0401 22.7328C17.6956 22.9237 17.3066 23.0196 16.9129 23.0105ZM8.7015 14.2677C9.94558 16.4846 11.5346 18.4894 13.4089 20.2068C15.3366 21.8654 16.8658 22.222 17.5232 21.8354C18.2089 21.4368 18.7146 19.81 18.1935 17.1777C17.6225 14.7836 16.6763 12.495 15.3898 10.3968C14.2188 8.28578 12.7316 6.36641 10.9798 4.70539C8.90207 2.86082 7.21693 2.44853 6.53035 2.84625C6.31636 3.02014 6.14075 3.23652 6.01462 3.48172C5.88848 3.72692 5.81455 3.9956 5.7975 4.27082C5.66122 5.28918 5.70561 6.32359 5.92864 7.32653C6.47747 9.77379 7.41385 12.1176 8.70235 14.2694L8.7015 14.2677Z" fill="#00D8FF"/>
        </g>
        <defs>
            <clipPath id="clip0_294_3624__React">
                <rect width="24" height="24" fill="white" transform="translate(0.046875 0.333313)"/>
            </clipPath>
        </defs>
    </symbol>
    <symbol id="SCSS" width="25" height="25" viewBox="0 0 25 25" fill="none" xmlns="http://www.w3.org/2000/svg">
        <g clip-path="url(#clip0_294_3678__SCSS)">
            <path fill-rule="evenodd" clip-rule="evenodd" d="M12.0468 0.333313C14.4202 0.333313 16.7403 1.0371 18.7137 2.35568C20.687 3.67425 22.2251 5.5484 23.1334 7.74111C24.0416 9.93382 24.2793 12.3466 23.8162 14.6744C23.3532 17.0022 22.2103 19.1404 20.5321 20.8186C18.8539 22.4968 16.7157 23.6397 14.3879 24.1027C12.0601 24.5658 9.64732 24.3281 7.45461 23.4199C5.2619 22.5116 3.38775 20.9735 2.06918 19.0002C0.750602 17.0268 0.046814 14.7067 0.046814 12.3333C0.046814 9.15071 1.3111 6.09847 3.56153 3.84803C5.81197 1.59759 8.86421 0.333313 12.0468 0.333313Z" fill="#CC6699"/>
            <path d="M19.5744 5.46924C19.031 3.33838 15.497 2.64067 12.1524 3.82524C10.0578 4.52908 8.1226 5.63912 6.45755 7.09181C4.61555 8.81467 4.32155 10.3147 4.44241 10.9412C4.87098 13.1527 7.89927 14.5978 9.14469 15.6701V15.6761C8.77784 15.8569 6.08984 17.2189 5.45898 18.6075C4.79555 20.0749 5.56441 21.1275 6.07441 21.2689C6.84011 21.4533 7.64431 21.3933 8.37419 21.0974C9.10406 20.8015 9.72299 20.2845 10.1441 19.6189C10.4922 19.0797 10.7099 18.4669 10.7801 17.829C10.8504 17.191 10.7711 16.5455 10.5487 15.9435C11.1486 15.7911 11.7722 15.7553 12.3856 15.8381C14.4907 16.0841 14.9038 17.3981 14.825 17.9484C14.7879 18.1443 14.7091 18.3299 14.5938 18.4925C14.4786 18.6552 14.3297 18.7912 14.1573 18.8912C14.0098 18.9829 13.9644 19.0138 13.9773 19.0824C13.9953 19.181 14.063 19.1775 14.189 19.1561C14.5053 19.0565 14.7841 18.8633 14.9885 18.6021C15.1929 18.341 15.3134 18.024 15.3341 17.693C15.3847 16.4072 14.1496 14.9621 11.9621 14.999C11.3268 14.9808 10.6928 15.0677 10.0858 15.2561C10.0558 15.2218 10.025 15.1875 9.99327 15.1532C8.64069 13.7107 6.14127 12.6898 6.24669 10.7501C6.28527 10.0447 6.53041 8.1881 11.0467 5.93552C14.7496 4.0901 17.7135 4.59838 18.2261 5.72381C18.9581 7.33181 16.6421 10.319 12.797 10.7501C12.372 10.8364 11.933 10.8259 11.5127 10.7193C11.0923 10.6128 10.7013 10.4129 10.3687 10.1347C10.1664 9.91181 10.1364 9.90238 10.061 9.94352C9.93841 10.0112 10.0164 10.2084 10.061 10.325C10.2082 10.5903 10.407 10.8236 10.6455 11.0111C10.8841 11.1986 11.1578 11.3366 11.4504 11.417C12.9622 11.7454 14.5391 11.5895 15.9573 10.9712C18.2895 10.0721 20.1084 7.56495 19.5744 5.46924ZM9.66241 16.3301C9.83265 16.917 9.824 17.5413 9.63755 18.1232C9.61755 18.1838 9.59555 18.2438 9.57155 18.3032C9.54755 18.3627 9.52155 18.4198 9.49355 18.4747C9.3493 18.7698 9.16244 19.0421 8.93898 19.2829C8.24212 20.0432 7.26755 20.3312 6.85012 20.0887C6.39927 19.8272 6.62469 18.755 7.43298 17.9004C8.05405 17.2862 8.7701 16.7763 9.55355 16.3901L9.66241 16.3301Z" fill="white"/>
        </g>
        <defs>
            <clipPath id="clip0_294_3678__SCSS">
                <rect width="24" height="24" fill="white" transform="translate(0.046875 0.333313)"/>
            </clipPath>
        </defs>
    </symbol>
    <symbol id="Slack" width="25" height="25" viewBox="0 0 25 25" fill="none" xmlns="http://www.w3.org/2000/svg">
        <g clip-path="url(#clip0_294_3740__Slack)">
            <path d="M5.10651 15.5028C5.10651 16.8966 3.98001 18.0231 2.58622 18.0231C1.19242 18.0231 0.0659332 16.8966 0.0659332 15.5028C0.0659332 14.109 1.19242 12.9825 2.58622 12.9825H5.10651V15.5028ZM6.36665 15.5028C6.36665 14.109 7.49314 12.9825 8.88694 12.9825C10.2807 12.9825 11.4072 14.109 11.4072 15.5028V21.8035C11.4072 23.1973 10.2807 24.3238 8.88694 24.3238C7.49314 24.3238 6.36665 23.1973 6.36665 21.8035V15.5028Z" fill="#E01E5A"/>
            <path d="M8.88694 5.38347C7.49314 5.38347 6.36665 4.25698 6.36665 2.86318C6.36665 1.46939 7.49314 0.342896 8.88694 0.342896C10.2807 0.342896 11.4072 1.46939 11.4072 2.86318V5.38347H8.88694ZM8.88694 6.6627C10.2807 6.6627 11.4072 7.7892 11.4072 9.18299C11.4072 10.5768 10.2807 11.7033 8.88694 11.7033H2.56713C1.17334 11.7033 0.0468445 10.5768 0.0468445 9.18299C0.0468445 7.7892 1.17334 6.6627 2.56713 6.6627H8.88694Z" fill="#36C5F0"/>
            <path d="M18.9872 9.18299C18.9872 7.7892 20.1137 6.6627 21.5075 6.6627C22.9012 6.6627 24.0277 7.7892 24.0277 9.18299C24.0277 10.5768 22.9012 11.7033 21.5075 11.7033H18.9872V9.18299ZM17.727 9.18299C17.727 10.5768 16.6005 11.7033 15.2067 11.7033C13.8129 11.7033 12.6864 10.5768 12.6864 9.18299V2.86318C12.6864 1.46939 13.8129 0.342896 15.2067 0.342896C16.6005 0.342896 17.727 1.46939 17.727 2.86318V9.18299Z" fill="#2EB67D"/>
            <path d="M15.2067 19.2832C16.6005 19.2832 17.727 20.4097 17.727 21.8035C17.727 23.1973 16.6005 24.3238 15.2067 24.3238C13.8129 24.3238 12.6864 23.1973 12.6864 21.8035V19.2832H15.2067ZM15.2067 18.0231C13.8129 18.0231 12.6864 16.8966 12.6864 15.5028C12.6864 14.109 13.8129 12.9825 15.2067 12.9825H21.5265C22.9203 12.9825 24.0468 14.109 24.0468 15.5028C24.0468 16.8966 22.9203 18.0231 21.5265 18.0231H15.2067Z" fill="#ECB22E"/>
        </g>
        <defs>
            <clipPath id="clip0_294_3740__Slack">
                <rect width="24" height="24" fill="white" transform="translate(0.046875 0.333313)"/>
            </clipPath>
        </defs>
    </symbol>
    <symbol id="Supabase" width="24" height="24" viewBox="0 0 24 24" fill="none" xmlns="http://www.w3.org/2000/svg">
        <g clip-path="url(#clip0_299_911__Supabase)">
            <path d="M14.0296 23.6013C13.4164 24.3734 12.1733 23.9503 12.1585 22.9645L11.9425 8.54477H21.6383C23.3944 8.54477 24.3739 10.5732 23.2819 11.9485L14.0296 23.6013Z" fill="#249361"/>
            <path d="M10.0864 0.39878C10.6995 -0.373415 11.9426 0.0496921 11.9574 1.03559L12.0521 15.4553H2.47765C0.721435 15.4553 -0.25804 13.4269 0.834028 12.0515L10.0864 0.39878Z" fill="#3ECF8E"/>
        </g>
        <defs>
            <clipPath id="clip0_299_911__Supabase">
                <rect width="24" height="24" fill="white"/>
            </clipPath>
        </defs>
    </symbol>
    <symbol id="TailwindCSS" width="25" height="25" viewBox="0 0 25 25" fill="none" xmlns="http://www.w3.org/2000/svg">
        <g clip-path="url(#clip0_294_3718__TailwindCSS)">
            <path d="M12.0469 5.13368C8.84681 5.13368 6.8475 6.73306 6.04688 9.93312C7.2465 8.33356 8.64694 7.73375 10.2465 8.13368C11.1598 8.36131 11.8125 9.02356 12.5353 9.75743C13.7117 10.9512 15.0733 12.3333 18.0469 12.3333C21.2467 12.3333 23.2463 10.7337 24.0469 7.53293C22.8471 9.13343 21.4468 9.73324 19.8471 9.33331C18.9339 9.10549 18.282 8.44343 17.5583 7.70956C16.3826 6.51574 15.0214 5.13368 12.0469 5.13368ZM6.04688 12.3333C2.847 12.3333 0.8475 13.9329 0.046875 17.1337C1.2465 15.5332 2.64675 14.9334 4.2465 15.3333C5.15981 15.5611 5.8125 16.2232 6.53531 16.9571C7.71169 18.1509 9.07331 19.5329 12.0469 19.5329C15.2467 19.5329 17.2463 17.9336 18.0469 14.7335C16.8471 16.3331 15.4468 16.9329 13.8471 16.5329C12.9339 16.3053 12.282 15.6431 11.5582 14.9092C10.3826 13.7154 9.02137 12.3333 6.04688 12.3333Z" fill="#38BDF8"/>
        </g>
        <defs>
            <clipPath id="clip0_294_3718__TailwindCSS">
                <rect width="24" height="24" fill="white" transform="translate(0.046875 0.333313)"/>
            </clipPath>
        </defs>
    </symbol>
    <symbol id="Velog" width="25" height="25" viewBox="0 0 25 25" fill="none" xmlns="http://www.w3.org/2000/svg">
        <g clip-path="url(#clip0_296_915__Velog)">
            <path d="M3.04688 0.333313C1.38488 0.333313 0.046875 1.67131 0.046875 3.33331V21.3333C0.046875 22.9953 1.38488 24.3333 3.04688 24.3333H21.0469C22.7089 24.3333 24.0469 22.9953 24.0469 21.3333V3.33331C24.0469 1.67131 22.7089 0.333313 21.0469 0.333313H3.04688ZM9.92988 6.58331C10.5599 6.58331 10.9349 6.88331 11.0549 7.48331L12.5179 15.7863C12.9829 15.1713 13.3639 14.6533 13.6639 14.2333C14.1289 13.5733 14.5569 12.8153 14.9469 11.9603C15.3519 11.1053 15.5549 10.3403 15.5549 9.66531C15.5549 9.26031 15.4419 8.93831 15.2169 8.69831C15.0069 8.44331 14.6089 8.12131 14.0239 7.73131C14.6239 6.96631 15.3739 6.58331 16.2739 6.58331C16.7539 6.58331 17.1519 6.72631 17.4669 7.01131C17.7969 7.29631 17.9609 7.71531 17.9609 8.27131C17.9609 9.20131 17.5709 10.3643 16.7909 11.7593C16.0259 13.1393 14.5499 15.2163 12.3599 17.9913L10.1329 18.1473L8.42188 8.51931H6.17188V7.57331C6.77187 7.37831 7.47687 7.16731 8.28687 6.94331C9.09688 6.70331 9.64488 6.58331 9.92988 6.58331Z" fill="#121212"/>
        </g>
        <defs>
            <clipPath id="clip0_296_915__Velog">
                <rect width="24" height="24" fill="white" transform="translate(0.046875 0.333313)"/>
            </clipPath>
        </defs>
    </symbol>
    <symbol id="Vercel" width="25" height="25" viewBox="0 0 25 25" fill="none" xmlns="http://www.w3.org/2000/svg">
        <g clip-path="url(#clip0_294_3731__Vercel)">
            <path d="M12.0469 1.94089L24.0469 22.7257H0.046875L12.0469 1.94089Z" fill="black"/>
        </g>
        <defs>
            <clipPath id="clip0_294_3731__Vercel">
                <rect width="24" height="24" fill="white" transform="translate(0.046875 0.333313)"/>
            </clipPath>
        </defs>
    </symbol>
    <symbol id="Vite" width="25" height="25" viewBox="0 0 25 25" fill="none" xmlns="http://www.w3.org/2000/svg">
        <g clip-path="url(#clip0_294_3724__Vite)">
            <path d="M23.9591 3.87801L12.6943 24.0199C12.6415 24.1144 12.5645 24.1932 12.4712 24.2483C12.378 24.3033 12.2718 24.3327 12.1635 24.3333C12.0552 24.3339 11.9487 24.3058 11.8548 24.2518C11.7609 24.1978 11.683 24.1199 11.6291 24.026L0.143934 3.88413C0.0865081 3.78326 0.0589444 3.66813 0.0644575 3.55218C0.0699706 3.43623 0.108333 3.32424 0.175072 3.22927C0.241811 3.13429 0.334175 3.06025 0.441394 3.01577C0.548613 2.97129 0.666268 2.95821 0.780637 2.97806L12.0576 4.99224C12.1311 5.00449 12.2046 5.00449 12.278 4.99224L23.3101 2.97806C23.4241 2.9577 23.5415 2.97009 23.6488 3.01378C23.756 3.05747 23.8486 3.13067 23.9159 3.22489C23.9832 3.31911 24.0224 3.43049 24.029 3.54609C24.0355 3.6617 24.0092 3.77679 23.953 3.87801H23.9591Z" fill="#41D1FF"/>
            <path d="M23.9591 3.87801L12.6943 24.0199C12.6415 24.1144 12.5645 24.1932 12.4712 24.2483C12.378 24.3033 12.2718 24.3327 12.1635 24.3333C12.0552 24.3339 11.9487 24.3058 11.8548 24.2518C11.7609 24.1978 11.683 24.1199 11.6291 24.026L0.143934 3.88413C0.0865081 3.78326 0.0589444 3.66813 0.0644575 3.55218C0.0699706 3.43623 0.108333 3.32424 0.175072 3.22927C0.241811 3.13429 0.334175 3.06025 0.441394 3.01577C0.548613 2.97129 0.666268 2.95821 0.780637 2.97806L12.0576 4.99224C12.1311 5.00449 12.2046 5.00449 12.278 4.99224L23.3101 2.97806C23.4241 2.9577 23.5415 2.97009 23.6488 3.01378C23.756 3.05747 23.8486 3.13067 23.9159 3.22489C23.9832 3.31911 24.0224 3.43049 24.029 3.54609C24.0355 3.6617 24.0092 3.77679 23.953 3.87801H23.9591Z" fill="url(#paint0_linear_294_3724__Vite)"/>
            <path d="M17.4329 0.333313L9.09453 1.96793C9.02837 1.9813 8.96849 2.01617 8.9242 2.0671C8.87991 2.11803 8.8537 2.18217 8.84964 2.24954L8.33538 10.9063C8.33228 10.9538 8.34033 11.0014 8.35889 11.0453C8.37744 11.0892 8.40599 11.1282 8.44226 11.1591C8.47853 11.19 8.52151 11.212 8.56779 11.2234C8.61407 11.2348 8.66236 11.2352 8.70883 11.2246L11.0352 10.6859C11.0859 10.6741 11.1387 10.6755 11.1886 10.6898C11.2386 10.7041 11.2841 10.7309 11.3208 10.7676C11.3576 10.8044 11.3844 10.8499 11.3987 10.8998C11.413 10.9498 11.4143 11.0026 11.4026 11.0532L10.7108 14.4204C10.6989 14.4725 10.701 14.5268 10.7166 14.5779C10.7323 14.6289 10.761 14.675 10.8 14.7116C10.839 14.7481 10.8869 14.7738 10.9389 14.7861C10.9909 14.7983 11.0452 14.7968 11.0965 14.7816L12.529 14.3408C12.5801 14.3246 12.6344 14.3222 12.6867 14.3336C12.7389 14.345 12.7873 14.3699 12.8269 14.4058C12.8666 14.4417 12.8961 14.4874 12.9126 14.5383C12.9291 14.5892 12.9319 14.6435 12.9209 14.6959L11.825 20.0099C11.7577 20.3405 12.1923 20.518 12.376 20.2364L12.5046 20.0466L19.3001 6.49219C19.3271 6.44058 19.3388 6.38234 19.3338 6.32432C19.3289 6.26629 19.3074 6.21089 19.2721 6.16461C19.2367 6.11833 19.1889 6.0831 19.1342 6.06305C19.0796 6.04299 19.0203 6.03895 18.9634 6.0514L16.5758 6.51668C16.5246 6.52599 16.4718 6.52209 16.4225 6.50532C16.3732 6.48856 16.329 6.4595 16.294 6.42088C16.2591 6.38227 16.2346 6.33538 16.2228 6.28465C16.2111 6.23392 16.2124 6.18103 16.2268 6.13098L17.7818 0.72513C17.8431 0.504733 17.6594 0.29658 17.4329 0.339435V0.333313Z" fill="url(#paint1_linear_294_3724__Vite)"/>
        </g>
        <defs>
            <linearGradient id="paint0_linear_294_3724__Vite" x1="-0.137684" y1="2.25564" x2="13.882" y2="21.2955" gradientUnits="userSpaceOnUse">
                <stop stop-color="#41D1FF"/>
                <stop offset="1" stop-color="#BD34FE"/>
            </linearGradient>
            <linearGradient id="paint1_linear_294_3724__Vite" x1="11.4148" y1="0.774107" x2="13.9494" y2="18.1732" gradientUnits="userSpaceOnUse">
                <stop stop-color="#FFEA83"/>
                <stop offset="0.1" stop-color="#FFDD35"/>
                <stop offset="1" stop-color="#FFA800"/>
            </linearGradient>
            <clipPath id="clip0_294_3724__Vite">
                <rect width="24" height="24" fill="white" transform="translate(0.046875 0.333313)"/>
            </clipPath>
        </defs>
    </symbol>
    <symbol id="Zeplin" width="25" height="25" viewBox="0 0 25 25" fill="none" xmlns="http://www.w3.org/2000/svg">
        <g clip-path="url(#clip0_294_3928__Zeplin)">
            <path d="M3.74608 15.9682L2.49055 16.4269L2.42314 20.162L6.76934 18.5743C5.27865 18.0735 4.19005 17.1925 3.74608 15.9682Z" fill="#FDBD39"/>
            <path d="M4.40313 12.0177L0.046875 13.6091L2.49055 16.4269L3.74608 15.9682C3.30341 14.7475 3.5764 13.3676 4.40313 12.0177Z" fill="#F69833"/>
            <path d="M11.7339 6.62823C6.18664 8.65471 2.61034 12.8364 3.74606 15.9683L23.8346 8.62967C22.6988 5.49779 17.2812 4.60173 11.7339 6.62823Z" fill="#FECF33"/>
            <path d="M15.8467 17.9697C21.394 15.9432 24.977 11.7801 23.8346 8.62967L3.74608 15.9682C4.88851 19.1187 10.2994 19.9962 15.8467 17.9697Z" fill="#EE6723"/>
            <path d="M23.8346 8.62967L3.74608 15.9682C4.13944 17.053 5.63948 17.5874 7.74421 17.5874C9.79615 17.5874 12.4228 17.0798 15.1612 16.0794C20.7085 14.053 24.6114 10.7719 23.8346 8.62967Z" fill="#F69833"/>
            <path d="M19.8364 7.0105C17.7845 7.0105 15.1578 7.51807 12.4194 8.51846C6.87211 10.545 2.96922 13.826 3.74609 15.9682L23.8346 8.62966C23.4412 7.54491 21.9412 7.0105 19.8364 7.0105Z" fill="#FDBD39"/>
            <path d="M18.727 20.3598H18.7269C18.1358 20.3598 17.2639 19.8259 16.1352 18.773C14.7999 17.5273 13.2703 15.7028 11.8281 13.6356C10.386 11.5685 9.20099 9.5018 8.4914 7.8163C7.71827 5.97952 7.60804 4.85015 8.16375 4.45953C8.2856 4.37397 8.43248 4.33063 8.60028 4.33063C9.05232 4.33063 9.93309 4.66717 11.5618 6.27056L11.5974 6.30561L11.5926 6.35544C11.5815 6.47063 11.5712 6.58685 11.562 6.70091L11.5439 6.92742L11.3841 6.76643C9.62923 4.99849 8.85675 4.80762 8.60604 4.80762C8.53455 4.80762 8.47762 4.82216 8.4368 4.85086C8.19576 5.02023 8.18024 5.84978 8.92979 7.63033C9.62672 9.2858 10.7945 11.3212 12.218 13.3616C13.6415 15.4021 15.1477 17.1997 16.4592 18.4231C17.8733 19.7423 18.5106 19.8847 18.719 19.8847C18.7909 19.8847 18.8494 19.8693 18.8927 19.8388C19.147 19.6601 19.1473 18.7714 18.3114 16.855L18.2731 16.767L18.3571 16.721C18.4411 16.675 18.5223 16.6297 18.5985 16.5864L18.6991 16.5292L18.7455 16.6355C19.3382 17.9935 19.8922 19.7194 19.1658 20.2301C19.0433 20.3161 18.8957 20.3598 18.727 20.3598ZM18.7269 20.1503H18.727L18.7269 20.255L18.7269 20.1503Z" fill="#EE6723"/>
            <path d="M15.9814 17.9124L15.9729 18.0168C15.8327 19.7521 15.4634 21.8384 14.5006 21.9228C14.4813 21.9246 14.4612 21.9255 14.4411 21.9255C13.787 21.9255 13.1682 20.9883 12.6019 19.1401C12.0661 17.3916 11.6503 15.0439 11.4312 12.5295C11.212 10.0157 11.2153 7.63117 11.4404 5.81533C11.6858 3.83663 12.153 2.80329 12.8289 2.74397C12.8489 2.74213 12.8696 2.74118 12.8901 2.74118C13.3645 2.74118 14.0796 3.27844 14.8117 5.7809L14.3337 5.87316C14.0893 5.0369 13.8229 4.35676 13.5584 3.8894C13.3138 3.45711 13.076 3.21904 12.8887 3.21904C12.8825 3.21904 12.8763 3.2193 12.8702 3.21982C12.5773 3.24555 12.1506 3.95621 11.9127 5.87434C11.6916 7.6576 11.6889 10.0063 11.9052 12.4879C12.1216 14.9699 12.5306 17.2825 13.0568 18.9997C13.2925 19.7688 13.5509 20.4026 13.8043 20.8327C14.0379 21.2294 14.264 21.4478 14.4409 21.4478C14.447 21.4478 14.4531 21.4475 14.4591 21.447C14.7394 21.4224 15.2677 20.6829 15.49 18.081L15.9814 17.9124Z" fill="#EE6723"/>
        </g>
        <defs>
            <clipPath id="clip0_294_3928__Zeplin">
                <rect width="24" height="24" fill="white" transform="translate(0.046875 0.333313)"/>
            </clipPath>
        </defs>
    </symbol>
</svg>