<svg width="0" height="0" fill="none" style="visibility: hidden; position: absolute;" aria-hidden="true">
    <symbol id="AdobeXD" width="24" height="24" viewBox="0 0 24 24" fill="none" xmlns="http://www.w3.org/2000/svg">
        <g clip-path="url(#clip0_294_3598__AdobeXD)">
            <rect width="24" height="24" rx="4" fill="#470137"/>
            <path d="M12.6167 7.24268L9.62206 12.1854L12.826 17.434C12.8465 17.4707 12.8523 17.5139 12.8421 17.5547C12.8371 17.5721 12.8264 17.5765 12.81 17.5771L12.7918 17.5769L12.7697 17.5763C12.7577 17.5762 12.7442 17.5768 12.7294 17.5793L10.4194 17.5792L10.374 17.5786C10.2494 17.5753 10.1598 17.5575 10.1051 17.4662C9.89022 17.0476 9.67556 16.6317 9.46107 16.2184C9.27308 15.857 9.07496 15.4893 8.86671 15.1152L8.77684 14.9546C8.53534 14.5254 8.29652 14.0907 8.06039 13.6505H8.04427C7.82943 14.0799 7.60671 14.5092 7.37611 14.9385C7.1452 15.3679 6.91713 15.7946 6.69188 16.2184C6.46649 16.6426 6.23573 17.0638 5.9996 17.4823C5.96164 17.5675 5.89859 17.5853 5.81066 17.5883L5.77416 17.5889H3.56849L3.55895 17.5891L3.5274 17.592C3.50989 17.593 3.49943 17.5892 3.49603 17.5628C3.48997 17.5235 3.49858 17.4834 3.5202 17.4501L6.62748 12.3464L3.60067 7.22657C3.56849 7.18382 3.56312 7.14894 3.58456 7.12193C3.60866 7.09408 3.64444 7.07917 3.68119 7.08167H5.95126C6.00076 7.07897 6.05025 7.0872 6.09618 7.10584C6.13467 7.12765 6.1677 7.15793 6.19276 7.19439C6.38597 7.62379 6.60064 8.05312 6.83676 8.48238C7.07274 8.9118 7.31156 9.33577 7.55321 9.75428C7.79472 10.1729 8.01744 10.5968 8.22138 11.0262H8.23749C8.45204 10.5862 8.66939 10.1569 8.88954 9.73819C9.10941 9.31959 9.3348 8.8983 9.56571 8.47432C9.79642 8.05045 10.0191 7.62917 10.2339 7.21048C10.2462 7.17075 10.2684 7.13476 10.2983 7.10584C10.338 7.08566 10.3827 7.07727 10.4271 7.08167H12.5362C12.578 7.07133 12.6215 7.0914 12.6408 7.12998C12.6583 7.16506 12.6517 7.20693 12.6252 7.23477L12.6167 7.24268ZM17.3483 17.787L17.2372 17.7882C16.4961 17.7995 15.7619 17.6455 15.0878 17.3374C14.4599 17.0468 13.935 16.5724 13.5825 15.9769C13.2271 15.3866 13.0447 14.6511 13.0355 13.7705L13.0351 13.6988C13.029 12.9599 13.2179 12.2324 13.5825 11.5897C13.9477 10.9532 14.48 10.4292 15.1212 10.0741L15.1764 10.0441C15.874 9.65767 16.7165 9.46448 17.7041 9.46448L17.7473 9.46499L17.7966 9.4665L17.8519 9.46902L17.9134 9.47254L18.0167 9.47982L18.1337 9.48923L18.2193 9.49669V6.32499C18.2193 6.25001 18.2515 6.21229 18.3159 6.21229H20.3445C20.3711 6.20848 20.3979 6.21743 20.4169 6.23642C20.4359 6.25542 20.4449 6.28226 20.4411 6.30887V15.824C20.4411 15.9838 20.4473 16.1558 20.4596 16.34L20.4896 16.7577L20.5055 16.9993C20.5095 17.0677 20.4712 17.1316 20.4089 17.1603C19.8855 17.3785 19.3404 17.5405 18.7828 17.6433C18.3093 17.7307 17.8295 17.7787 17.3483 17.787ZM18.2193 15.7918V11.3965C18.1323 11.3729 18.0434 11.3568 17.9536 11.3482C17.844 11.3372 17.7338 11.3318 17.6236 11.3321C17.2329 11.3282 16.8468 11.4164 16.4966 11.5897C16.1555 11.7592 15.8642 12.0144 15.6514 12.3303C15.4388 12.6412 15.3289 13.0471 15.3217 13.5481L15.3213 13.6022C15.3134 13.9531 15.3708 14.3025 15.4903 14.6326C15.5876 14.8985 15.7414 15.1402 15.9412 15.341C16.1323 15.5257 16.3638 15.6635 16.6173 15.7435C16.8851 15.8302 17.165 15.8737 17.4465 15.8723C17.5967 15.8723 17.7362 15.8669 17.8651 15.8562C17.9679 15.8484 18.0698 15.8315 18.1696 15.8055L18.2193 15.7918Z" fill="#FF61F6"/>
        </g>
        <defs>
            <clipPath id="clip0_294_3598__AdobeXD">
                <rect width="24" height="24" fill="white"/>
            </clipPath>
        </defs>
    </symbol>
    <symbol id="CSS3" width="24" height="24" viewBox="0 0 24 24" fill="none" xmlns="http://www.w3.org/2000/svg">
        <g clip-path="url(#clip0_294_3610__CSS3)">
            <path d="M3.34486 21.6008L1.41907 6.10352e-05H22.5809L20.6532 21.5975L11.9872 24.0001L3.34486 21.6008Z" fill="#1572B6"/>
            <path d="M12.0002 22.1637L19.0029 20.2222L20.6504 1.76605H12.0002V22.1637Z" fill="#33A9DC"/>
            <path d="M12.0002 9.59206H15.5059L15.748 6.87921H12.0002V4.22995H18.6434L18.5798 4.94077L17.9285 12.2413H12.0002V9.59206Z" fill="white"/>
            <path d="M12.0159 16.4723L12.0042 16.4757L9.05384 15.6791L8.86517 13.5662H6.20615L6.57717 17.726L12.0038 19.2321L12.0159 19.2286V16.4723Z" fill="#EBEBEB"/>
            <path d="M15.2806 12.1292L14.9615 15.677L12.0067 16.4746V19.2309L17.4378 17.7258L17.4776 17.2781L17.9385 12.1292H15.2806Z" fill="white"/>
            <path d="M12.0092 4.22995V6.87921H5.61009L5.55703 6.28389L5.43636 4.94077L5.37296 4.22995H12.0092ZM12.0002 9.59244V12.2417H9.08701L9.03395 11.6464L8.91309 10.3033L8.84988 9.59244H12.0002Z" fill="#EBEBEB"/>
        </g>
        <defs>
            <clipPath id="clip0_294_3610__CSS3">
                <rect width="24" height="24" fill="white"/>
            </clipPath>
        </defs>
    </symbol>
    <symbol id="Figma" width="24" height="24" viewBox="0 0 24 24" fill="none" xmlns="http://www.w3.org/2000/svg">
        <g clip-path="url(#clip0_294_3507__Figma)">
            <path d="M8.00008 24C10.2081 24 12.0001 22.208 12.0001 20V16H8.00008C5.79208 16 4.00008 17.792 4.00008 20C4.00008 22.208 5.79208 24 8.00008 24Z" fill="#0ACF83"/>
            <path d="M4.00008 12C4.00008 9.79198 5.79208 7.99998 8.00008 7.99998H12.0001V16H8.00008C5.79208 16 4.00008 14.208 4.00008 12Z" fill="#A259FF"/>
            <path d="M4.00008 3.99998C4.00008 1.79198 5.79208 -1.52588e-05 8.00008 -1.52588e-05H12.0001V7.99998H8.00008C5.79208 7.99998 4.00008 6.20798 4.00008 3.99998Z" fill="#F24E1E"/>
            <path d="M12.0001 -1.52588e-05H16.0001C18.2081 -1.52588e-05 20.0001 1.79198 20.0001 3.99998C20.0001 6.20798 18.2081 7.99998 16.0001 7.99998H12.0001V-1.52588e-05Z" fill="#FF7262"/>
            <path d="M20.0001 12C20.0001 14.208 18.2081 16 16.0001 16C13.7921 16 12.0001 14.208 12.0001 12C12.0001 9.79198 13.7921 7.99998 16.0001 7.99998C18.2081 7.99998 20.0001 9.79198 20.0001 12Z" fill="#1ABCFE"/>
        </g>
        <defs>
            <clipPath id="clip0_294_3507__Figma">
                <rect width="24" height="24" fill="white"/>
            </clipPath>
        </defs>
    </symbol>
    <symbol id="Git" width="24" height="24" viewBox="0 0 24 24" fill="none" xmlns="http://www.w3.org/2000/svg">
        <g clip-path="url(#clip0_294_3565__Git)">
            <path d="M23.5474 10.9309L13.0685 0.452737C12.4654 -0.150831 11.4866 -0.150831 10.8828 0.452737L8.70683 2.62869L11.4671 5.38899C12.1086 5.17226 12.8441 5.31762 13.3555 5.82902C13.8693 6.34358 14.0136 7.0854 13.7916 7.729L16.4518 10.3892C17.0954 10.1675 17.838 10.311 18.3521 10.8258C19.0705 11.544 19.0705 12.7079 18.3521 13.4266C17.6334 14.1452 16.4695 14.1452 15.7506 13.4266C15.2102 12.8857 15.0767 12.092 15.3503 11.4263L12.8694 8.94535L12.8691 15.474C13.0443 15.5609 13.2096 15.6765 13.3555 15.8219C14.0739 16.54 14.0739 17.7039 13.3555 18.4231C12.6369 19.1415 11.4724 19.1415 10.7548 18.4231C10.0364 17.7039 10.0364 16.54 10.7548 15.8219C10.9323 15.6446 11.1377 15.5106 11.3568 15.4205V8.83107C11.1377 8.74153 10.9326 8.60828 10.7548 8.42974C10.2105 7.88621 10.0796 7.08751 10.3585 6.41916L7.63769 3.69784L0.452538 10.8825C-0.151294 11.4866 -0.151294 12.4654 0.452538 13.0689L10.9315 23.5474C11.5348 24.151 12.5134 24.151 13.1175 23.5474L23.5474 13.1177C24.151 12.5138 24.151 11.5345 23.5474 10.9309Z" fill="#F05133"/>
        </g>
        <defs>
            <clipPath id="clip0_294_3565__Git">
                <rect width="24" height="24" fill="white"/>
            </clipPath>
        </defs>
    </symbol>
    <symbol id="GitHub" width="24" height="24" viewBox="0 0 24 24" fill="none" xmlns="http://www.w3.org/2000/svg">
        <g clip-path="url(#clip0_296_911__GitHub)">
            <path fill-rule="evenodd" clip-rule="evenodd" d="M11.9999 -3.05176e-05C5.37326 -3.05176e-05 7.62939e-05 5.50846 7.62939e-05 12.3038C7.62939e-05 17.7398 3.4386 22.3518 8.20611 23.9786C8.80606 24.0927 9.02639 23.7118 9.02639 23.387C9.02639 23.0936 9.01526 22.1242 9.00986 21.096C5.67149 21.8404 4.96725 19.6445 4.96725 19.6445C4.42119 18.2226 3.63477 17.8442 3.63477 17.8442C2.54582 17.0806 3.71679 17.0961 3.71679 17.0961C4.92179 17.1831 5.55608 18.3642 5.55608 18.3642C6.62658 20.2452 8.36349 19.7014 9.04833 19.387C9.15611 18.5919 9.4669 18.0488 9.81011 17.7417C7.14482 17.431 4.34314 16.3758 4.34314 11.6613C4.34314 10.3182 4.81178 9.22039 5.57929 8.35895C5.45481 8.04893 5.04403 6.79744 5.69581 5.10276C5.69581 5.10276 6.70336 4.77187 8.99603 6.36387C9.9535 6.09133 10.98 5.95474 11.9998 5.94985C13.0196 5.95474 14.047 6.09133 15.0059 6.36387C17.2963 4.77204 18.3026 5.10259 18.3026 5.10259C18.9557 6.79711 18.545 8.0486 18.4202 8.35846C19.1897 9.22006 19.6551 10.3177 19.6551 11.6608C19.6551 16.3869 16.848 17.4271 14.1761 17.7318C14.6064 18.1138 14.99 18.8625 14.99 20.0105C14.99 21.6567 14.9763 22.9819 14.9763 23.387C14.9763 23.7146 15.192 24.098 15.8003 23.9773C20.5662 22.3487 23.9999 17.7383 23.9999 12.304C23.9998 5.50846 18.6272 -3.05176e-05 11.9999 -3.05176e-05Z" fill="#121212"/>
            <path d="M4.5463 17.6648C4.51975 17.7261 4.42596 17.7447 4.34059 17.7023C4.25316 17.6622 4.20467 17.5787 4.23281 17.5174C4.25872 17.4547 4.35251 17.4372 4.43947 17.4791C4.52659 17.5194 4.57619 17.6035 4.5463 17.6648ZM5.03101 18.2209C4.97378 18.2754 4.8617 18.2503 4.78619 18.1642C4.70734 18.0783 4.69287 17.9634 4.7509 17.9083C4.80972 17.854 4.91845 17.8795 4.99683 17.9654C5.07552 18.0521 5.09094 18.1659 5.03101 18.2209ZM5.50411 18.93C5.4305 18.9826 5.31016 18.9336 5.23576 18.824C5.16216 18.7145 5.16216 18.5833 5.23735 18.5306C5.31207 18.4782 5.4305 18.5258 5.50601 18.634C5.57914 18.7453 5.57914 18.8764 5.50411 18.93ZM6.15383 19.6148C6.08801 19.6891 5.94796 19.669 5.84542 19.5675C5.7405 19.4684 5.71125 19.3276 5.77706 19.2532C5.84383 19.1787 5.98468 19.1994 6.08801 19.3005C6.19214 19.3993 6.22377 19.5411 6.15383 19.6148ZM7.04804 20.012C7.01879 20.1082 6.8843 20.1522 6.74822 20.1109C6.6123 20.0689 6.52344 19.9561 6.5511 19.8588C6.57908 19.7618 6.71484 19.7161 6.85155 19.76C6.98716 19.8019 7.07634 19.914 7.04804 20.012ZM8.0297 20.0853C8.03287 20.1869 7.91778 20.2712 7.77534 20.2728C7.63163 20.276 7.51542 20.1939 7.51383 20.0941C7.51383 19.9914 7.6267 19.9083 7.76978 19.9059C7.91285 19.9026 8.0297 19.9846 8.0297 20.0852M8.94378 19.9264C8.96079 20.0252 8.86175 20.1269 8.71995 20.154C8.58069 20.1804 8.45177 20.1191 8.43412 20.0211C8.41663 19.9196 8.51758 19.818 8.65668 19.7918C8.79864 19.7663 8.92566 19.8258 8.94378 19.9264Z" fill="#121212"/>
        </g>
        <defs>
            <clipPath id="clip0_296_911__GitHub">
                <rect width="24" height="24" fill="white"/>
            </clipPath>
        </defs>
    </symbol>
    <symbol id="GitLab" width="24" height="24" viewBox="0 0 24 24" fill="none" xmlns="http://www.w3.org/2000/svg">
        <g clip-path="url(#clip0_294_3585__GitLab)">
            <path d="M12 23.054L16.4191 9.45361H7.58093L12 23.054Z" fill="#E24329"/>
            <path d="M12 23.054L7.58094 9.45358H1.38773L12 23.054Z" fill="#FC6D26"/>
            <path d="M1.38772 9.45361L0.0448467 13.5867C-0.0776384 13.9636 0.0565119 14.3766 0.377192 14.6095L12 23.054L1.38772 9.45361Z" fill="#FCA326"/>
            <path d="M1.38773 9.45363H7.58094L4.91932 1.26223C4.78243 0.840676 4.18613 0.84079 4.04923 1.26223L1.38773 9.45363Z" fill="#E24329"/>
            <path d="M12 23.054L16.4191 9.45358H22.6123L12 23.054Z" fill="#FC6D26"/>
            <path d="M22.6123 9.45361L23.9552 13.5867C24.0776 13.9636 23.9435 14.3766 23.6228 14.6095L12 23.054L22.6123 9.45361Z" fill="#FCA326"/>
            <path d="M22.6123 9.45363H16.4191L19.0807 1.26223C19.2176 0.840676 19.8139 0.84079 19.9508 1.26223L22.6123 9.45363Z" fill="#E24329"/>
        </g>
        <defs>
            <clipPath id="clip0_294_3585__GitLab">
                <rect width="24" height="24" fill="white"/>
            </clipPath>
        </defs>
    </symbol>
    <symbol id="GoogleDrive" width="24" height="24" viewBox="0 0 24 24" fill="none" xmlns="http://www.w3.org/2000/svg">
        <path d="M1.8145 19.6567L2.87301 21.4847C3.09112 21.861 3.40378 22.1739 3.78001 22.3922L7.56002 15.8492H0C0 16.2752 0.11 16.7012 0.330001 17.0862L1.8145 19.6567Z" fill="#0066DA"/>
        <path d="M12 8.15093L8.22002 1.60791C7.84361 1.82616 7.53077 2.139 7.31252 2.51541L0.330001 14.6114C0.114003 14.9881 0.000241165 15.4147 0 15.8489H7.56002L12 8.15093Z" fill="#00AC47"/>
        <path d="M20.22 22.3922C20.5962 22.1739 20.9089 21.861 21.127 21.4847L21.567 20.7287L23.67 17.0862C23.89 16.7012 24 16.2752 24 15.8492H16.44L18.0485 19.0107L20.22 22.3922Z" fill="#EA4335"/>
        <path d="M12 8.15092L15.78 1.6079C15.4048 1.38869 14.9775 1.27468 14.543 1.2779H9.45699C9.02336 1.28135 8.59772 1.39491 8.21999 1.6079L12 8.15092Z" fill="#00832D"/>
        <path d="M16.4401 15.8492H7.56005L3.78004 22.3922C4.15105 22.6122 4.57755 22.7222 5.01705 22.7222H18.9831C19.4167 22.7187 19.8424 22.6052 20.2201 22.3922L16.4401 15.8492Z" fill="#2684FC"/>
        <path d="M20.1791 8.56343L16.6875 2.51541C16.4693 2.139 16.1565 1.82616 15.78 1.60791L12 8.15093L16.44 15.8489H23.9866C23.9866 15.4224 23.8766 14.9964 23.6566 14.6114L20.1791 8.56343Z" fill="#FFBA00"/>
    </symbol>
    <symbol id="Hancom" width="24" height="24" viewBox="0 0 24 24" fill="none" xmlns="http://www.w3.org/2000/svg">
        <path d="M6.82823 6.10352e-05H1.99036V9.4009H6.82823V6.10352e-05Z" fill="#444444"/>
        <path d="M6.82823 14.2145H1.99036V23.9999H6.82823V14.2145Z" fill="#444444"/>
        <path d="M22.0098 6.10352e-05H17.1719V9.4009H22.0098V6.10352e-05Z" fill="#444444"/>
        <path d="M22.0098 14.2145H17.1719V23.9999H22.0098V14.2145Z" fill="#444444"/>
        <path d="M22.0046 9.39722H6.82507V14.209H22.0046V9.39722Z" fill="#F05323"/>
    </symbol>
    <symbol id="HTML5" width="24" height="24" viewBox="0 0 24 24" fill="none" xmlns="http://www.w3.org/2000/svg">
        <g clip-path="url(#clip0_294_3530__HTML5)">
            <path d="M3.35147 21.5625L1.4296 3.05176e-05H22.5702L20.6483 21.5625L11.9765 24" fill="#E34F26"/>
            <path d="M12.0233 22.125L19.0077 20.2032L20.6483 1.73441H12.0233" fill="#EF652A"/>
            <path d="M11.9765 19.4063L6.53897 17.9063L6.21085 13.7344H8.83585L9.02335 15.8438L11.9765 16.6407V19.4063ZM12.0233 12.4219H6.07022L5.3671 4.40628H12.0233V7.03128H8.27335L8.50772 9.75003H12.0233V12.4219Z" fill="#EBEBEB"/>
            <path d="M11.9765 9.75003V12.4219H15.2577L14.9296 15.8438L11.9765 16.6407V19.4063L17.414 17.9063L18.164 9.75003H11.9765ZM11.9765 4.40628V7.03128H18.3983L18.6327 4.40628H11.9765Z" fill="white"/>
        </g>
        <defs>
            <clipPath id="clip0_294_3530__HTML5">
                <rect width="24" height="24" fill="white"/>
            </clipPath>
        </defs>
    </symbol>
    <symbol id="Illustrator" width="24" height="24" viewBox="0 0 24 24" fill="none" xmlns="http://www.w3.org/2000/svg">
        <g clip-path="url(#clip0_294_3710__Illustrator)">
            <rect width="24" height="24" rx="4" fill="#330000"/>
            <path d="M12.0294 15.1794H8.31027L7.55358 17.53C7.54328 17.5729 7.51833 17.6108 7.48305 17.6372C7.44778 17.6637 7.4044 17.677 7.36038 17.6749H5.47668C5.36924 17.6749 5.33169 17.6159 5.36398 17.4978L8.58394 8.22422C8.61617 8.12764 8.64837 8.01763 8.68058 7.89416C8.7227 7.67935 8.74426 7.46103 8.74499 7.24212C8.74279 7.22683 8.7442 7.21121 8.74908 7.19655C8.754 7.18187 8.76221 7.16856 8.77315 7.15762C8.78409 7.14668 8.79743 7.13843 8.81209 7.13355C8.82677 7.12863 8.84236 7.12723 8.85769 7.12942H11.4175C11.4926 7.12942 11.5355 7.15625 11.5463 7.20992L15.2011 17.5139C15.2333 17.6213 15.201 17.675 15.1045 17.6749H13.0114C12.9755 17.6789 12.9393 17.6697 12.9097 17.6489C12.8801 17.6282 12.859 17.5974 12.8505 17.5622L12.0294 15.1794ZM8.88986 13.1508H11.4336C11.3693 12.9362 11.2941 12.6947 11.2083 12.4263C11.1222 12.1581 11.031 11.871 10.9346 11.565C10.838 11.2591 10.7413 10.9532 10.6447 10.6473C10.5482 10.3414 10.4596 10.0462 10.3791 9.76175C10.2986 9.4775 10.2261 9.21723 10.1618 8.98092H10.1457C10.055 9.41575 9.94219 9.84564 9.80758 10.2689C9.65715 10.7519 9.50417 11.2457 9.34871 11.7501C9.19298 12.2548 9.04003 12.7217 8.88986 13.1508Z" fill="#FF9A00"/>
            <path d="M17.3744 8.83621C17.2101 8.84282 17.0464 8.81468 16.8938 8.75364C16.7412 8.6926 16.6032 8.60005 16.4889 8.48202C16.3748 8.35888 16.2862 8.21442 16.2282 8.05693C16.1702 7.89942 16.1438 7.73203 16.1507 7.56434C16.1449 7.39828 16.1741 7.23287 16.2365 7.0789C16.2989 6.92493 16.3932 6.78585 16.513 6.67078C16.6316 6.55688 16.7717 6.46764 16.9251 6.40823C17.0785 6.34879 17.2421 6.32039 17.4065 6.32463C17.7929 6.32463 18.0962 6.43999 18.3162 6.67078C18.4273 6.7907 18.5136 6.93134 18.5702 7.08466C18.6268 7.23799 18.6527 7.401 18.6462 7.56434C18.653 7.73267 18.6258 7.90068 18.5663 8.05831C18.5069 8.21597 18.4163 8.36005 18.3001 8.48202C18.1786 8.60177 18.0336 8.69508 17.8743 8.75604C17.715 8.817 17.5448 8.84429 17.3744 8.83621ZM16.2634 17.5141V9.81831C16.2634 9.72173 16.3062 9.67341 16.3922 9.67341H18.3725C18.4584 9.67341 18.5013 9.7217 18.5014 9.81831V17.5141C18.5014 17.6215 18.4584 17.6752 18.3725 17.6751H16.4083C16.3118 17.6751 16.2635 17.6214 16.2634 17.5141Z" fill="#FF9A00"/>
        </g>
        <defs>
            <clipPath id="clip0_294_3710__Illustrator">
                <rect width="24" height="24" fill="white"/>
            </clipPath>
        </defs>
    </symbol>
    <symbol id="InDesign" width="24" height="24" viewBox="0 0 24 24" fill="none" xmlns="http://www.w3.org/2000/svg">
        <g clip-path="url(#clip0_294_3752__InDesign)">
            <rect width="24" height="24" rx="4" fill="#49021F"/>
            <path d="M8.59457 7.21027V17.466C8.59457 17.5734 8.54628 17.627 8.4497 17.627H6.50156C6.41557 17.627 6.37266 17.5733 6.3728 17.466V7.21027C6.3728 7.12448 6.42109 7.08154 6.51768 7.08145H8.46579C8.48328 7.07896 8.50109 7.0806 8.51788 7.08619C8.53464 7.09178 8.54985 7.1012 8.56234 7.11368C8.57486 7.1262 8.58428 7.14141 8.58986 7.15817C8.59545 7.17493 8.59706 7.19278 8.59457 7.21027Z" fill="#FF3366"/>
            <path d="M14.3582 17.788C13.6172 17.7992 12.8829 17.6452 12.2089 17.3371C11.5809 17.0465 11.056 16.5721 10.7036 15.9767C10.3385 15.3704 10.156 14.611 10.1561 13.6985C10.1501 12.9596 10.3389 12.2322 10.7036 11.5894C11.0792 10.9348 11.6315 10.3991 12.2975 10.0438C12.995 9.65743 13.8376 9.46423 14.8251 9.46423C14.8787 9.46423 14.9485 9.46692 15.0344 9.4723C15.1202 9.47783 15.2222 9.48587 15.3403 9.49643V6.32474C15.3403 6.24977 15.3725 6.21204 15.4369 6.21204H17.4655C17.4786 6.21017 17.492 6.21137 17.5046 6.21558C17.5172 6.21976 17.5286 6.22681 17.538 6.23617C17.5474 6.24556 17.5544 6.25697 17.5586 6.26954C17.5628 6.28212 17.564 6.29552 17.5621 6.30862V15.8237C17.5621 16.0064 17.5702 16.2049 17.5863 16.4194C17.6024 16.6343 17.6158 16.8274 17.6265 16.999C17.6285 17.0325 17.6203 17.0657 17.6031 17.0945C17.5859 17.1232 17.5603 17.146 17.5299 17.16C17.0066 17.3783 16.4615 17.5402 15.9038 17.643C15.394 17.7371 14.8767 17.7856 14.3582 17.788ZM15.3403 15.7915V11.3962C15.2533 11.3727 15.1644 11.3565 15.0747 11.3479C14.965 11.3369 14.8548 11.3315 14.7446 11.3318C14.3539 11.328 13.9678 11.4162 13.6176 11.5894C13.2765 11.759 12.9853 12.0142 12.7724 12.33C12.5523 12.652 12.4423 13.076 12.4423 13.6019C12.4345 13.9529 12.4918 14.3023 12.6114 14.6323C12.7087 14.8983 12.8625 15.14 13.0622 15.3407C13.2534 15.5254 13.4849 15.6632 13.7384 15.7432C14.0061 15.83 14.286 15.8734 14.5675 15.872C14.7177 15.872 14.8572 15.8667 14.9861 15.8559C15.1061 15.8469 15.2248 15.8253 15.3403 15.7915Z" fill="#FF3366"/>
        </g>
        <defs>
            <clipPath id="clip0_294_3752__InDesign">
                <rect width="24" height="24" fill="white"/>
            </clipPath>
        </defs>
    </symbol>
    <symbol id="JavaScript" width="24" height="24" viewBox="0 0 24 24" fill="none" xmlns="http://www.w3.org/2000/svg">
        <g clip-path="url(#clip0_294_3519__JavaScript)">
            <path d="M9.15527e-05 6.10352e-05H24.0001V24.0001H9.15527e-05V6.10352e-05Z" fill="#F7DF1E"/>
            <path d="M6.31055 20.0562L8.1472 18.9447C8.50153 19.5729 8.82385 20.1045 9.59699 20.1045C10.3381 20.1045 10.8053 19.8146 10.8053 18.6869V11.0184H13.0607V18.7188C13.0607 21.0548 11.6914 22.1181 9.69368 22.1181C7.88945 22.1181 6.84214 21.1837 6.31052 20.056" fill="black"/>
            <path d="M14.2858 19.8145L16.1222 18.7512C16.6056 19.5407 17.234 20.1206 18.3455 20.1206C19.28 20.1206 19.8759 19.6534 19.8759 19.009C19.8759 18.2357 19.2638 17.9618 18.2327 17.5109L17.669 17.269C16.0418 16.5764 14.9623 15.7065 14.9623 13.8699C14.9623 12.1783 16.2511 10.8894 18.265 10.8894C19.6988 10.8894 20.7299 11.3889 21.4709 12.6938L19.7148 13.8215C19.3282 13.1288 18.9094 12.855 18.265 12.855C17.6045 12.855 17.1856 13.2738 17.1856 13.8215C17.1856 14.4981 17.6045 14.7721 18.571 15.191L19.1348 15.4326C21.052 16.2543 22.1314 17.0919 22.1314 18.9768C22.1314 21.0068 20.5365 22.1183 18.3939 22.1183C16.2996 22.1183 14.9462 21.1195 14.2858 19.8145Z" fill="black"/>
        </g>
        <defs>
            <clipPath id="clip0_294_3519__JavaScript">
                <rect width="24" height="24" fill="white"/>
            </clipPath>
        </defs>
    </symbol>
    <symbol id="Jenkins" width="24" height="24" viewBox="0 0 24 24" fill="none" xmlns="http://www.w3.org/2000/svg">
        <g clip-path="url(#clip0_294_3819__Jenkins)">
            <path fill-rule="evenodd" clip-rule="evenodd" d="M20.4174 11.565C20.4174 16.3199 16.6489 20.1747 12.0001 20.1747C7.35137 20.1747 3.58279 16.3199 3.58279 11.565C3.58279 6.80988 7.35137 2.95511 12.0001 2.95511C16.6489 2.95511 20.4174 6.80988 20.4174 11.565Z" fill="#D33833"/>
            <path d="M3.92581 13.6973C3.92581 13.6973 3.31646 4.71881 11.5896 4.46224L11.0124 3.50026L6.52317 5.0074L5.2405 6.48241L4.11821 8.63091L3.47684 11.1321L3.66923 12.7995" fill="#EF3D3A"/>
            <path d="M6.23495 5.69159C4.75811 7.20267 3.84422 9.28903 3.84422 11.5971C3.84422 13.9047 4.75811 15.9913 6.23495 17.5021C7.7125 19.013 9.74878 19.9452 12 19.9452C14.2512 19.9452 16.2877 19.013 17.7651 17.5021C19.2418 15.9913 20.1559 13.9047 20.1559 11.5971C20.1559 9.28903 19.2418 7.20267 17.7651 5.69159C16.2877 4.18108 14.2512 3.24882 12 3.24863C9.74878 3.24882 7.7125 4.18108 6.23495 5.69159ZM5.86112 17.8676C4.29158 16.2625 3.32126 14.0441 3.32126 11.5971C3.32126 9.14973 4.29158 6.93159 5.86112 5.32632C7.43029 3.72077 9.60242 2.7256 12 2.72589C14.3975 2.7256 16.5699 3.72077 18.1388 5.32632C19.7085 6.93159 20.6789 9.14992 20.6787 11.5971C20.6789 14.0441 19.7085 16.2625 18.1388 17.8676C16.5699 19.4731 14.3975 20.4681 12 20.4681C9.60242 20.4681 7.43029 19.4731 5.86112 17.8676Z" fill="#231F20"/>
            <path fill-rule="evenodd" clip-rule="evenodd" d="M15.5434 11.6127L14.2607 11.8051L12.5291 11.9975L11.4067 12.0295L10.3165 11.9975L9.48273 11.7409L8.7452 10.9393L8.16801 9.30392L8.03975 8.95116L7.27017 8.6947L6.82123 7.95714L6.50058 6.89896L6.85336 5.96901L7.68701 5.68041L8.3604 6.00114L8.68113 6.70656L9.06592 6.6424L9.19414 6.48213L9.06592 5.74458L9.03379 4.81463L9.22619 3.53201L9.21868 2.79937L9.80338 1.86461L10.8295 1.12705L12.6253 0.357465L14.6133 0.64606L16.3449 1.89664L17.1466 3.17925L17.6596 4.1092L17.7879 6.41797L17.4031 8.4061L16.6977 10.1697L16.0243 11.0997" fill="#F0D6B7"/>
            <path fill-rule="evenodd" clip-rule="evenodd" d="M14.453 17.1601L9.86751 17.3525V18.122L10.2523 20.8156L10.0599 21.0401L6.85335 19.9498L6.62882 19.565L6.30817 15.9416L5.57075 13.7611L5.41037 13.2481L7.9756 11.4845L8.77731 11.1637L9.48272 12.0295L10.092 12.5747L10.7975 12.7991L11.1181 12.8953L11.5029 14.5627L11.7915 14.9154L12.5291 14.6589L12.0159 15.653L14.8057 16.9677L14.453 17.1601Z" fill="#335061"/>
            <path fill-rule="evenodd" clip-rule="evenodd" d="M6.85337 5.96902L7.68702 5.68043L8.36041 6.00115L8.68114 6.70657L9.06593 6.64241L9.16213 6.25762L8.96973 5.52016L9.16213 3.75646L9.00175 2.79447L9.57894 2.12108L10.8295 1.12706L10.4768 0.646072L8.71315 1.51186L7.97562 2.08905L7.55877 2.98687L6.91743 3.85266L6.72504 4.8788L6.85337 5.96902Z" fill="#6D6B6D"/>
            <path fill-rule="evenodd" clip-rule="evenodd" d="M8.168 2.95482C8.168 2.95482 8.64899 1.7684 10.573 1.19121C12.4969 0.614021 10.6692 0.774287 10.6692 0.774287L8.58492 1.57601L7.78321 2.37763L7.43054 3.01898L8.168 2.95482Z" fill="#DCD9D8"/>
            <path fill-rule="evenodd" clip-rule="evenodd" d="M7.20603 5.74459C7.20603 5.74459 6.53264 3.4999 9.09794 3.17927L9.00175 2.79448L7.23816 3.2114L6.72504 4.87881L6.85337 5.96902L7.20603 5.74459Z" fill="#DCD9D8"/>
            <path fill-rule="evenodd" clip-rule="evenodd" d="M8.23215 8.72675L8.65201 8.31992C8.65201 8.31992 8.84151 8.34195 8.87352 8.56638C8.90554 8.79091 9.00173 10.8111 10.3806 11.9014C10.5063 12.0009 9.35451 11.7409 9.35451 11.7409L8.32835 10.1377" fill="#F7E4CD"/>
            <path fill-rule="evenodd" clip-rule="evenodd" d="M14.1325 8.11752C14.1325 8.11752 14.2073 7.14553 14.469 7.22028C14.7308 7.29503 14.7308 7.55678 14.7308 7.55678C14.7308 7.55678 14.0951 7.96803 14.1325 8.11752Z" fill="#F7E4CD"/>
            <path d="M16.7938 4.55818C16.7938 4.55818 16.2653 4.66977 16.2167 5.13537C16.168 5.60107 16.7938 5.23157 16.89 5.19953" fill="#F7E4CD"/>
            <path d="M12.9139 4.59029C12.9139 4.59029 12.2083 4.68649 12.2083 5.13535C12.2083 5.58431 13.0101 5.55228 13.2345 5.35988" fill="#F7E4CD"/>
            <path fill-rule="evenodd" clip-rule="evenodd" d="M8.5528 6.67454C8.5528 6.67454 7.33424 5.93699 7.20602 6.64251C7.07777 7.34793 6.7891 7.86105 7.39842 8.59851L6.98157 8.47028L6.59678 7.47626L6.46857 6.51428L7.20602 5.74459L8.03976 5.80876L8.52075 6.19355L8.5528 6.67454Z" fill="#F7E4CD"/>
            <path fill-rule="evenodd" clip-rule="evenodd" d="M9.13 4.65436C9.13 4.65436 9.67514 1.83257 12.4329 1.28741C14.7033 0.838647 15.8959 1.38361 16.3449 1.89664C16.3449 1.89664 14.3247 -0.508227 12.4007 0.22923C10.4768 0.966783 9.06593 2.31356 9.09795 3.17925C9.15255 4.65378 9.13 4.65436 9.13 4.65436Z" fill="#F7E4CD"/>
            <path fill-rule="evenodd" clip-rule="evenodd" d="M16.5694 2.21727C16.5694 2.21727 15.6396 2.18523 15.6074 3.01899C15.6074 3.01899 15.6073 3.14722 15.6715 3.27545C15.6715 3.27545 16.4091 2.4417 16.858 2.89066" fill="#F7E4CD"/>
            <path fill-rule="evenodd" clip-rule="evenodd" d="M12.4975 3.36231C12.4975 3.36231 12.3374 2.08258 11.2463 2.82658C10.5409 3.30757 10.6051 3.98096 10.7333 4.10919C10.8616 4.23752 10.8267 4.49582 10.9243 4.31852C11.0219 4.14123 10.9898 3.56404 11.3425 3.40377C11.6953 3.24341 12.2735 3.06429 12.4975 3.36231Z" fill="#F7E4CD"/>
            <path fill-rule="evenodd" clip-rule="evenodd" d="M9.48272 12.0295L6.46855 13.3763C6.46855 13.3763 7.71913 18.3466 7.07776 19.8858L6.62882 19.7255L6.59677 17.8336L5.76315 14.2422L5.41037 13.2481L8.55279 11.1318L9.48272 12.0295Z" fill="#49728B"/>
            <path fill-rule="evenodd" clip-rule="evenodd" d="M9.79266 14.7786L10.2203 15.3004V17.2243H9.70717C9.70717 17.2243 9.6431 15.8776 9.6431 15.7172C9.6431 15.5568 9.70717 14.9796 9.70717 14.9796" fill="#49728B"/>
            <path fill-rule="evenodd" clip-rule="evenodd" d="M9.80339 17.5129L8.36041 17.577L8.77734 17.8656L9.80339 18.0259" fill="#49728B"/>
            <path fill-rule="evenodd" clip-rule="evenodd" d="M14.7416 17.1922L15.9281 17.1601L16.2166 20.1103L14.9981 20.2705L14.7416 17.1922Z" fill="#335061"/>
            <path fill-rule="evenodd" clip-rule="evenodd" d="M15.0623 17.1922L16.858 17.096C16.858 17.096 17.5955 15.2362 17.5955 15.14C17.5955 15.0438 18.2368 12.4464 18.2368 12.4464L16.7939 10.9394L16.5053 10.6828L15.7357 11.4524V14.4346L15.0623 17.1922Z" fill="#335061"/>
            <path fill-rule="evenodd" clip-rule="evenodd" d="M15.8639 16.9678L14.7416 17.1922L14.9019 18.0901C15.3187 18.2825 16.0243 17.7694 16.0243 17.7694" fill="#49728B"/>
            <path fill-rule="evenodd" clip-rule="evenodd" d="M15.896 11.3562L18.1406 13.0236L18.2048 12.254L16.5053 10.6828L15.896 11.3562Z" fill="#49728B"/>
            <path fill-rule="evenodd" clip-rule="evenodd" d="M10.9162 23.5096L10.2523 20.8156L9.92213 18.8279L9.86752 17.3525L12.8723 17.1925L14.7416 17.1922L14.5717 20.5595L14.8603 23.1568L14.8282 23.6378L12.3913 23.8302L10.9162 23.5096Z" fill="white"/>
            <path fill-rule="evenodd" clip-rule="evenodd" d="M14.3247 17.1601C14.3247 17.1601 14.1645 20.4951 14.6455 22.8679C14.6455 22.8679 13.6835 23.4772 12.2725 23.6375L14.9661 23.5413L15.2867 23.3489L14.9019 18.0901L14.8057 16.9677" fill="#DCD9D8"/>
            <path fill-rule="evenodd" clip-rule="evenodd" d="M16.2713 19.854L17.5219 19.5013L19.8947 19.373L20.2475 18.2828L19.6061 16.3909L18.8687 16.2947L17.8425 16.6153L16.858 17.096L16.3354 17.0001L15.9281 17.1601" fill="white"/>
            <path fill-rule="evenodd" clip-rule="evenodd" d="M16.2487 19.2124C16.2487 19.2124 17.0823 18.8277 17.2107 18.8597L16.858 17.096L17.2748 16.9358C17.2748 16.9358 17.5634 18.6031 17.5634 18.7955C17.5634 18.7955 19.3591 18.8917 19.5194 18.8917C19.5194 18.8917 19.9042 18.1542 19.808 17.3846L20.1608 18.4107L20.1928 18.9879L19.6798 19.7575L19.1026 19.8858L18.1406 19.8537L17.82 19.4369L16.6976 19.5972L16.3449 19.7255" fill="#DCD9D8"/>
            <path d="M14.9886 16.936L14.2832 15.1403L13.5456 14.0821C13.5456 14.0821 13.7059 13.6331 13.9304 13.6331C14.1549 13.6331 14.668 13.6331 14.668 13.6331L15.3734 13.8897L15.3093 15.0761L14.9886 16.936Z" fill="white"/>
            <path fill-rule="evenodd" clip-rule="evenodd" d="M15.1264 16.3264C15.1264 16.3264 14.2285 14.5949 14.2285 14.3384C14.2285 14.3384 14.3888 13.9536 14.6133 14.0498C14.8378 14.146 15.3188 14.4024 15.3188 14.4024V13.7932L14.2285 13.5687L13.4911 13.6649L14.7416 16.615L14.9981 16.6471" fill="#DCD9D8"/>
            <path d="M11.2048 12.0941L10.3165 11.9975L9.48273 11.7409V12.0295L9.89011 12.4787L11.1727 13.0559" fill="white"/>
            <path fill-rule="evenodd" clip-rule="evenodd" d="M9.77143 12.1902C9.77143 12.1902 10.7655 12.6071 11.0862 12.5109L11.1181 12.8953L10.2204 12.7033L9.67523 12.3185L9.77143 12.1902Z" fill="#DCD9D8"/>
            <path fill-rule="evenodd" clip-rule="evenodd" d="M16.2678 13.7423C15.7237 13.7263 15.2322 13.6617 14.8018 13.5403C14.831 13.3639 14.7763 13.1907 14.8202 13.0636C14.9402 12.9772 15.1412 12.9786 15.3226 12.9583C15.1658 12.8812 14.9455 12.8507 14.7645 12.8953C14.7603 12.7728 14.7054 12.6969 14.6721 12.6011C14.978 12.4919 15.7002 11.7761 16.1064 12.0131C16.3 12.1259 16.3822 12.7698 16.3972 13.083C16.4097 13.3427 16.3736 13.6047 16.2678 13.7423Z" fill="#D33833"/>
            <path d="M16.2678 13.7423C15.7237 13.7263 15.2322 13.6617 14.8018 13.5403C14.831 13.3639 14.7763 13.1907 14.8202 13.0636C14.9402 12.9772 15.1412 12.9786 15.3226 12.9583C15.1658 12.8812 14.9455 12.8507 14.7645 12.8953C14.7603 12.7728 14.7054 12.6969 14.6721 12.6011C14.978 12.4919 15.7002 11.7761 16.1064 12.0131C16.3 12.1259 16.3822 12.7698 16.3972 13.083C16.4097 13.3427 16.3736 13.6047 16.2678 13.7423Z" stroke="#D33833" stroke-width="2.5"/>
            <path fill-rule="evenodd" clip-rule="evenodd" d="M13.666 12.8529C13.6645 12.8941 13.6628 12.9355 13.6612 12.9771C13.4913 13.0887 13.217 13.0873 13.0306 13.1811C13.3054 13.1931 13.5218 13.2593 13.709 13.3526C13.7048 13.4563 13.7009 13.5599 13.6968 13.6636C13.3855 13.8768 13.101 14.1943 12.7344 14.3942C12.561 14.4887 11.9526 14.732 11.7682 14.689C11.6639 14.6648 11.6545 14.5353 11.6127 14.4132C11.5239 14.1519 11.3193 13.7358 11.3014 13.3423C11.2787 12.8454 11.2285 12.0125 11.7641 12.1149C12.1961 12.1973 12.6987 12.3963 13.0332 12.5791C13.2376 12.6909 13.3558 12.829 13.666 12.8529Z" fill="#D33833"/>
            <path d="M13.666 12.8529C13.6645 12.8941 13.6628 12.9355 13.6612 12.9771C13.4913 13.0887 13.217 13.0873 13.0306 13.1811C13.3054 13.1931 13.5218 13.2593 13.709 13.3526C13.7048 13.4563 13.7009 13.5599 13.6968 13.6636C13.3855 13.8768 13.101 14.1943 12.7344 14.3942C12.561 14.4887 11.9526 14.732 11.7682 14.689C11.6639 14.6648 11.6545 14.5353 11.6127 14.4132C11.5239 14.1519 11.3193 13.7358 11.3014 13.3423C11.2787 12.8454 11.2285 12.0125 11.7641 12.1149C12.1961 12.1973 12.6987 12.3963 13.0332 12.5791C13.2376 12.6909 13.3558 12.829 13.666 12.8529Z" stroke="#D33833" stroke-width="2.5"/>
            <path fill-rule="evenodd" clip-rule="evenodd" d="M13.9752 13.4458C13.9277 13.1751 13.8728 13.0979 13.8941 12.8617C14.616 12.3803 14.7516 13.6885 13.9752 13.4458Z" fill="#D33833"/>
            <path d="M13.9752 13.4458C13.9277 13.1751 13.8728 13.0979 13.8941 12.8617C14.616 12.3803 14.7516 13.6885 13.9752 13.4458Z" stroke="#D33833" stroke-width="2.5"/>
            <path fill-rule="evenodd" clip-rule="evenodd" d="M15.0206 13.6653C15.0206 13.6653 14.7961 13.3446 14.9564 13.2484C15.1168 13.1522 15.2772 13.2485 15.3734 13.0881C15.4696 12.9277 15.3734 12.8315 15.4054 12.6391C15.4374 12.4467 15.5979 12.4146 15.7582 12.3826C15.9184 12.3505 16.3675 12.2864 16.4316 12.4467L16.2392 11.8695L15.8544 11.7413L14.6358 12.4467L14.5717 12.7995V13.5049" fill="#EF3D3A"/>
            <path fill-rule="evenodd" clip-rule="evenodd" d="M11.6537 14.7235C11.6152 14.223 11.5744 13.7233 11.529 13.2234C11.4612 12.4769 11.7083 12.6071 12.3554 12.6071C12.4543 12.6071 12.964 12.7249 13.0004 12.7995C13.1753 13.1567 12.708 13.0773 13.2019 13.3467C13.6188 13.574 14.3553 13.2086 14.1869 12.7033C14.0926 12.5909 13.6957 12.6683 13.5534 12.5945C13.3029 12.4646 13.0524 12.3348 12.8019 12.2049C12.4831 12.0395 11.7465 11.7985 11.4067 12.0295C10.5457 12.6151 11.461 14.0782 11.7682 14.689" fill="#EF3D3A"/>
            <path fill-rule="evenodd" clip-rule="evenodd" d="M12.4975 3.36233C11.6235 3.15877 11.1892 3.72808 10.9243 4.31854C10.6878 4.26121 10.7819 3.93952 10.8416 3.7756C10.9981 3.3454 11.6285 2.77273 12.1436 2.85036C12.3653 2.88374 12.6653 3.08643 12.4975 3.36233Z" fill="#231F20"/>
            <path fill-rule="evenodd" clip-rule="evenodd" d="M16.7558 4.35761C16.7696 4.35819 16.7836 4.35867 16.7973 4.35924C16.9948 4.76953 17.1657 5.20415 17.4149 5.56634C17.248 5.95508 16.151 6.29909 16.168 5.60107C16.4052 5.49737 16.8147 5.57991 17.025 5.44744C16.9034 5.11373 16.7279 4.82965 16.7558 4.35761Z" fill="#231F20"/>
            <path fill-rule="evenodd" clip-rule="evenodd" d="M12.945 4.36828C13.1324 4.71181 13.1934 5.07274 13.4597 5.33238C13.5797 5.44926 13.813 5.59173 13.6973 5.91679C13.6703 5.99346 13.4728 6.1644 13.3588 6.19798C12.9424 6.32092 11.972 6.22337 12.3006 5.70419C12.645 5.72025 13.1079 5.92785 13.3654 5.67783C13.1677 5.36182 12.8152 4.73662 12.945 4.36828Z" fill="#231F20"/>
            <path fill-rule="evenodd" clip-rule="evenodd" d="M16.5995 7.85969C15.9725 8.26247 15.2733 8.70046 14.2459 8.59888C14.0264 8.40802 13.9427 7.9833 14.156 7.70279C14.267 7.89364 14.1973 8.24467 14.5066 8.29749C15.0896 8.39724 15.7681 7.94088 16.1874 7.78138C16.4474 7.343 16.165 7.18178 15.9308 6.89963C15.4512 6.32157 14.8079 5.60508 14.8313 4.73968C15.0251 4.59914 15.0419 4.95421 15.0697 5.01885C15.3201 5.60489 15.9503 6.35437 16.4102 6.85595C16.5231 6.97947 16.7091 7.09799 16.7298 7.17966C16.7894 7.41717 16.5746 7.70173 16.5995 7.85969Z" fill="#231F20"/>
            <path fill-rule="evenodd" clip-rule="evenodd" d="M8.33334 7.43566C8.13681 7.32349 8.09003 6.82941 7.8593 6.81537C7.52956 6.79536 7.58968 7.45634 7.591 7.84286C7.36403 7.63681 7.32412 7.00238 7.49086 6.67655C7.30083 6.58324 7.21597 6.77949 7.11057 6.84865C7.24603 5.86454 8.55017 6.39219 8.33334 7.43566Z" fill="#231F20"/>
            <path fill-rule="evenodd" clip-rule="evenodd" d="M16.9988 8.26952C16.7069 8.82506 16.294 9.43688 15.4375 9.45468C15.4201 9.27527 15.4068 9.00226 15.4385 8.89423C16.0932 8.83132 16.4975 8.49808 16.9988 8.26952Z" fill="#231F20"/>
            <path fill-rule="evenodd" clip-rule="evenodd" d="M12.8956 8.62967C13.4418 8.91692 14.4457 8.9478 15.1882 8.92606C15.228 9.08873 15.2271 9.28969 15.2286 9.48805C14.2742 9.53567 13.1458 9.2995 12.8956 8.62967Z" fill="#231F20"/>
            <path fill-rule="evenodd" clip-rule="evenodd" d="M12.7917 9.1653C13.1695 10.1137 14.4678 10.0045 15.5626 9.97837C15.5144 10.1015 15.4099 10.247 15.2801 10.2996C14.9292 10.4423 13.9616 10.5507 13.4745 10.292C13.1656 10.1278 12.9672 9.75673 12.7979 9.53922C12.7162 9.43417 12.3092 9.16588 12.7917 9.1653Z" fill="#231F20"/>
            <path fill-rule="evenodd" clip-rule="evenodd" d="M16.554 14.3968C16.1107 15.1561 15.6865 15.9358 15.1606 16.6055C15.3811 15.9572 15.4755 14.8722 15.5088 14.045C15.97 13.8291 16.365 14.0935 16.554 14.3968Z" fill="#81B0C4"/>
            <path fill-rule="evenodd" clip-rule="evenodd" d="M18.9393 17.1255C18.443 17.2249 18.0942 17.7072 17.6101 17.6763C17.8762 17.3012 18.3424 17.1431 18.9393 17.1255Z" fill="#231F20"/>
            <path fill-rule="evenodd" clip-rule="evenodd" d="M19.1582 17.9022C18.7537 17.9449 18.2786 18.0104 17.8683 17.9767C18.0625 17.68 18.8108 17.7824 19.1582 17.9022Z" fill="#231F20"/>
            <path fill-rule="evenodd" clip-rule="evenodd" d="M19.2984 18.5719C18.8438 18.5817 18.2787 18.5727 17.8466 18.5364C18.1022 18.2619 19.0035 18.4345 19.2984 18.5719Z" fill="#231F20"/>
            <path fill-rule="evenodd" clip-rule="evenodd" d="M15.6985 20.4044C15.7638 20.9753 15.9901 21.5538 15.9617 22.1791C15.7104 22.2639 15.566 22.338 15.2292 22.3376C15.2054 21.8062 15.1343 20.9938 15.1556 20.4872C15.3212 20.4982 15.5655 20.3689 15.6985 20.4044Z" fill="#DCD9D8"/>
            <path fill-rule="evenodd" clip-rule="evenodd" d="M14.9656 11.9897C14.7373 12.1387 14.5429 12.3248 14.3237 12.4839C13.8375 12.5079 13.5722 12.4502 13.215 12.171C13.2209 12.1486 13.2567 12.1586 13.2581 12.1311C13.7785 12.363 14.4401 12.0366 14.9656 11.9897Z" fill="#F0D6B7"/>
            <path fill-rule="evenodd" clip-rule="evenodd" d="M12.2335 15.5373C12.3765 14.9177 12.9368 14.5968 13.4456 14.2556C13.9707 14.922 14.2901 15.7791 14.6418 16.6063C13.8108 16.3558 12.9618 15.9493 12.2335 15.5373Z" fill="#81B0C4"/>
            <path fill-rule="evenodd" clip-rule="evenodd" d="M15.1556 20.4872C15.1343 20.9938 15.2054 21.8061 15.2292 22.3376C15.566 22.338 15.7104 22.2639 15.9618 22.1791C15.9901 21.5538 15.7638 20.9753 15.6986 20.4043C15.5655 20.3688 15.3213 20.4981 15.1556 20.4872ZM9.91144 17.6061C10.1335 19.6478 10.4552 21.364 11.0451 23.1719C12.3545 23.5695 13.933 23.6041 15.0904 23.2454C14.8779 22.225 14.9707 20.9827 14.8465 19.8938C14.7529 19.0754 14.8006 18.2519 14.6723 17.4169C13.2699 17.1252 11.2877 17.3487 9.91144 17.6061ZM15.0039 17.4297C14.9921 18.3065 15.0432 19.1715 15.1101 20.0494C15.4468 19.9988 15.6753 19.9651 15.9881 19.8965C15.8865 19.0513 15.899 18.1003 15.6921 17.3526C15.453 17.3549 15.2424 17.3499 15.0039 17.4297ZM16.7119 17.2884C16.5521 17.2517 16.3661 17.287 16.2134 17.2899C16.2852 18.0047 16.4593 18.7934 16.5206 19.5437C16.7608 19.5512 16.8891 19.4379 17.0867 19.3998C17.0973 18.7412 17.0292 17.8338 16.7119 17.2884ZM19.2981 19.6513C19.7988 19.5297 20.1137 18.9164 19.9736 18.2866C19.8796 17.8634 19.7122 17.0663 19.5331 16.7956C19.4007 16.5953 19.0418 16.3331 18.7553 16.5166C18.2891 16.8151 17.4678 16.9017 17.1279 17.2631C17.2983 17.8307 17.3512 18.6102 17.4216 19.3294C18.0039 19.3657 18.7205 19.1691 19.2049 19.3777C18.8668 19.4873 18.428 19.4881 18.1358 19.6478C18.3746 19.7631 18.9336 19.7398 19.2981 19.6513ZM14.6418 16.6062C14.2901 15.7791 13.9707 14.922 13.4456 14.2555C12.9368 14.5967 12.3765 14.9177 12.2335 15.5373C12.9618 15.9493 13.8109 16.3557 14.6418 16.6062ZM15.5088 14.045C15.4755 14.8721 15.3811 15.9572 15.1606 16.6055C15.6865 15.9358 16.1107 15.156 16.5539 14.3968C16.365 14.0935 15.97 13.8291 15.5088 14.045ZM14.526 13.6958C14.3268 13.6743 14.1576 13.9248 13.8986 13.8165C13.8392 13.8821 13.7853 13.9532 13.7248 14.0172C14.2969 14.7068 14.557 15.6851 14.9989 16.4955C15.236 15.7171 15.2087 14.8643 15.2609 14.0147C14.9351 14.0353 14.7544 13.72 14.526 13.6958ZM13.8941 12.8617C13.8728 13.0979 13.9277 13.1751 13.9753 13.4458C14.7516 13.6885 14.616 12.3803 13.8941 12.8617ZM13.0332 12.5791C12.6987 12.3963 12.1962 12.1973 11.7641 12.1148C11.2285 12.0124 11.2787 12.8454 11.3014 13.3423C11.3193 13.7358 11.5239 14.1518 11.6128 14.4132C11.6545 14.5353 11.6639 14.6648 11.7682 14.689C11.9526 14.732 12.561 14.4887 12.7344 14.3942C13.101 14.1943 13.3855 13.8768 13.6969 13.6636C13.7009 13.5599 13.7048 13.4563 13.709 13.3526C13.5218 13.2593 13.3054 13.1931 13.0306 13.1811C13.217 13.0873 13.4913 13.0886 13.6612 12.9771C13.6628 12.9355 13.6645 12.894 13.666 12.8529C13.3558 12.829 13.2376 12.6909 13.0332 12.5791ZM9.83809 11.9987C9.56046 12.2806 10.6168 12.6648 10.9531 12.6855C10.9512 12.5071 11.0547 12.339 11.0339 12.211C10.6344 12.1409 10.1095 12.1872 9.83809 11.9987ZM13.2581 12.1311C13.2567 12.1586 13.2209 12.1486 13.215 12.171C13.5722 12.4502 13.8375 12.5079 14.3237 12.4838C14.5429 12.3247 14.7373 12.1387 14.9656 11.9897C14.4401 12.0366 13.7785 12.363 13.2581 12.1311ZM16.3972 13.083C16.3822 12.7698 16.3 12.1259 16.1064 12.0131C15.7002 11.776 14.978 12.4919 14.6721 12.6011C14.7054 12.6969 14.7603 12.7728 14.7646 12.8953C14.9455 12.8507 15.1658 12.8812 15.3226 12.9583C15.1413 12.9786 14.9402 12.9772 14.8203 13.0636C14.7763 13.1907 14.831 13.3639 14.8018 13.5403C15.2322 13.6617 15.7238 13.7263 16.2679 13.7423C16.3737 13.6048 16.4097 13.3427 16.3972 13.083ZM9.3707 12.2713C9.28351 12.2092 8.69374 11.4418 8.61294 11.4737C7.54574 11.8945 6.54787 12.6223 5.65616 13.3106C6.50635 15.1349 6.84955 17.37 6.91019 19.5242C7.88412 19.9797 8.73958 20.6364 10.0612 20.705C9.90824 19.6229 9.76864 18.6576 9.68183 17.6388C9.34976 17.4989 8.87335 17.6452 8.56259 17.5954C8.55995 17.2209 9.0372 17.4314 9.07694 17.1796C9.1069 16.9891 8.81436 16.9747 8.90962 16.6747C9.15256 16.7631 9.28014 16.9581 9.53923 17.0314C9.77597 16.5134 9.53592 15.597 9.57004 15.1641C9.5765 15.0828 9.61062 14.7138 9.79269 14.7786C9.95382 14.8359 9.78348 15.76 9.80115 16.1697C9.81723 16.5472 9.75556 16.9124 9.90843 17.1494C11.1855 16.9756 12.4832 16.8632 13.865 16.8253C13.561 16.6948 13.1999 16.5714 12.804 16.3482C12.5893 16.2272 11.9127 15.9755 11.8508 15.7716C11.752 15.4467 12.1101 15.2737 12.1713 14.9952C11.5267 15.3468 11.4009 14.6582 11.2484 14.1704C11.1103 13.7286 11.0316 13.3985 10.9977 13.1437C10.4424 12.8789 9.84868 12.6108 9.3707 12.2713ZM15.8332 11.5665C16.7224 11.1353 16.8827 13.1779 16.5341 13.8359C16.588 14.0322 16.7733 14.1073 16.8489 14.2837C16.3527 15.1726 15.8016 16.0023 15.2953 16.8807C15.6719 16.6463 16.2098 16.8388 16.653 16.6633C16.815 16.5992 16.9323 16.2284 17.055 15.9317C17.3923 15.1155 17.7465 14.0864 17.9041 13.3075C17.9397 13.13 18.0367 12.7433 18.0149 12.5853C17.9761 12.3025 17.5924 12.0928 17.3972 11.9179C17.0376 11.5949 16.8112 11.3106 16.4361 11.0085C16.284 11.2331 15.9576 11.3839 15.8332 11.5665ZM7.33719 3.6813C6.9135 4.14748 7.00218 5.02096 7.05348 5.6424C7.8193 5.16064 8.83578 5.6805 8.82619 6.49992C9.19182 6.4902 8.96279 6.04326 8.89665 5.75534C8.68051 4.81491 9.26078 3.79318 8.92296 2.93317C8.26704 2.9829 7.72818 3.25081 7.33719 3.6813ZM10.3688 0.975626C9.40959 1.24748 8.18031 1.94444 7.78616 2.80609C8.09136 2.76174 8.30323 2.60783 8.6043 2.58878C8.71809 2.58137 8.86715 2.63649 8.99793 2.60398C9.25853 2.53933 9.47847 1.95502 9.67507 1.73761C9.86671 1.5253 10.0971 1.43459 10.2547 1.24104C10.356 1.19217 10.5057 1.19554 10.5115 1.04345C10.4676 0.996502 10.4214 0.960716 10.3688 0.975626ZM15.3618 1.23132C14.3662 0.669619 12.6811 0.247116 11.6221 0.775053C10.7676 1.20111 9.6125 1.90606 9.21869 2.79936C9.58657 3.66139 9.10972 4.45128 9.07928 5.32649C9.06312 5.79219 9.29855 6.19872 9.31658 6.70569C9.1907 6.91338 8.80609 6.93897 8.53985 6.92473C8.45023 6.47625 8.29334 5.97217 7.83152 5.92157C7.17805 5.8501 6.70025 6.39093 6.67056 6.95609C6.63543 7.62073 7.18105 8.72229 7.9544 8.64582C8.25314 8.61628 8.32653 8.31682 8.65203 8.3199C8.82844 8.67189 8.37989 8.78242 8.33374 9.03417C8.32172 9.0992 8.37094 9.35336 8.39957 9.47255C8.54004 10.0529 8.85318 10.804 9.16139 11.2459C9.55257 11.8063 10.3211 11.8908 11.1479 11.9457C11.2956 11.6276 11.8396 11.6537 12.1941 11.737C11.7693 11.5687 11.3743 11.1608 11.047 10.7998C10.6711 10.3856 10.2902 9.94123 10.271 9.39982C10.9815 10.3855 11.5684 11.2463 12.8603 11.6798C13.8379 12.0077 14.9796 11.5296 15.7307 11.0021C16.0424 10.7829 16.2284 10.435 16.45 10.1166C17.2789 8.92421 17.6657 7.22227 17.5807 5.57266C17.5457 4.89235 17.5472 4.21434 17.3189 3.75663C17.0803 3.27804 16.2734 2.84986 15.8011 3.28275C15.7136 2.81735 16.1939 2.52952 16.7581 2.697C16.3558 2.17782 15.9336 1.55397 15.3618 1.23132ZM17.2166 16.5814C17.9945 16.1947 19.4481 15.5405 19.9358 16.5829C20.1158 16.9671 20.3269 17.6166 20.4202 18.0133C20.5519 18.5728 20.2774 19.749 19.7022 19.9367C19.1942 20.1026 18.6014 20.0925 17.9895 19.9695C17.9175 19.9096 17.8372 19.8051 17.7812 19.6962C17.3442 19.6793 16.9351 19.7197 16.5899 19.8993C16.6226 20.2224 16.4041 20.2743 16.1992 20.3408C16.0473 20.9431 16.5031 21.7297 16.394 22.2789C16.3161 22.6701 15.8348 22.7306 15.481 22.8038C15.4694 23.0212 15.4964 23.2027 15.5206 23.3867C15.4397 23.6848 15.0768 23.8545 14.733 23.8961C13.6018 24.0321 11.8843 24.0932 10.7962 23.7019C10.4926 22.9572 10.2534 22.0514 10.0005 21.201C8.9393 21.3143 8.08103 20.7431 7.27192 20.3688C6.99178 20.239 6.60424 20.1674 6.49959 19.9444C6.39813 19.7286 6.43965 19.3148 6.41447 18.9239C6.3504 17.9257 6.29554 16.9628 6.03193 15.9407C5.91356 15.4821 5.70726 15.0774 5.56334 14.6354C5.43031 14.2258 5.1979 13.7196 5.13728 13.3112C5.0474 12.7058 5.61745 12.6721 5.98195 12.4098C6.54542 12.0041 6.98772 11.7798 7.59797 11.4136C7.77872 11.3052 8.32379 11.0308 8.38579 10.9044C8.50904 10.6538 8.17423 10.3004 8.08472 10.104C7.94312 9.79337 7.86928 9.5295 7.84899 9.22301C7.33707 9.14211 6.94901 8.83744 6.7146 8.49392C6.32684 7.92539 6.05793 6.87355 6.39342 6.07347C6.41973 6.01046 6.55095 5.88656 6.5703 5.78978C6.60848 5.59921 6.49845 5.34583 6.49161 5.14314C6.45636 4.10323 6.66756 3.20724 7.36762 2.89363C7.65182 1.76147 8.669 1.38505 9.62734 0.822382C9.98558 0.612093 10.3805 0.477703 10.7883 0.327633C12.2513 -0.210789 14.496 -0.109396 15.7102 0.808914C16.225 1.19833 17.048 2.02053 17.3424 2.61581C18.1199 4.1874 18.0646 6.81391 17.5208 8.72566C17.4477 8.98232 17.3417 9.35961 17.1937 9.66793C17.0904 9.88322 16.7696 10.314 16.8086 10.5041C16.8487 10.7006 17.5401 11.2256 17.6883 11.3685C17.9553 11.626 18.4624 11.9678 18.5035 12.2928C18.5477 12.6386 18.3511 13.1117 18.2516 13.4454C17.9187 14.5591 17.594 15.5886 17.2166 16.5814Z" fill="#231F20"/>
            <path fill-rule="evenodd" clip-rule="evenodd" d="M12.0263 8.87228C12.0685 8.8161 12.3006 8.73077 12.6252 8.88709C12.6252 8.88709 12.2404 8.95126 12.2725 9.5928L12.1121 9.56067C12.1121 9.56067 11.9464 8.97896 12.0263 8.87228Z" fill="#F7E4CD"/>
            <path fill-rule="evenodd" clip-rule="evenodd" d="M14.8378 14.3865C14.8378 14.4839 14.7589 14.5628 14.6614 14.5628C14.5641 14.5628 14.4851 14.4839 14.4851 14.3865C14.4851 14.2891 14.5641 14.2101 14.6614 14.2101C14.7589 14.2101 14.8378 14.2891 14.8378 14.3865Z" fill="#1D1919"/>
            <path fill-rule="evenodd" clip-rule="evenodd" d="M15.0142 15.2041C15.0142 15.3015 14.9352 15.3805 14.8377 15.3805C14.7404 15.3805 14.6614 15.3015 14.6614 15.2041C14.6614 15.1068 14.7404 15.0277 14.8377 15.0277C14.9352 15.0277 15.0142 15.1068 15.0142 15.2041Z" fill="#1D1919"/>
        </g>
        <defs>
            <clipPath id="clip0_294_3819__Jenkins">
                <rect width="24" height="24" fill="white"/>
            </clipPath>
        </defs>
    </symbol>
    <symbol id="jQuery" width="24" height="24" viewBox="0 0 24 24" fill="none" xmlns="http://www.w3.org/2000/svg">
        <g clip-path="url(#clip0_294_3687__jQuery)">
            <path fill-rule="evenodd" clip-rule="evenodd" d="M23.4415 17.7589L23.3346 18.0395C21.5094 21.6043 18.2653 23.7902 13.6342 23.8864C11.4697 23.9319 9.41204 23.3787 8.06521 22.7721C5.20712 21.4556 2.85945 19.2384 1.38185 16.4602C-0.534175 12.7537 -0.878899 7.59357 3.10279 3.74014C3.16426 3.74014 2.62178 4.57657 2.68057 4.57657L2.57368 4.93465C-0.296343 13.9135 8.54088 21.6097 17.1322 20.7305C19.1952 20.5167 21.8274 19.389 23.4442 17.7589" fill="#21609B"/>
            <path fill-rule="evenodd" clip-rule="evenodd" d="M18.2439 14.0471C20.4085 14.0605 22.6639 13.0504 24 11.6341C22.8322 14.6003 19.4438 16.511 14.9036 15.9043C11.1009 15.3966 7.47731 11.5672 7.10586 7.73253C6.83329 4.94267 7.806 3.27784 9.40669 1.2576C8.85086 2.31315 8.64242 3.12819 8.59165 3.64929C7.98237 9.68596 13.4124 14.015 18.2439 14.0444" fill="#21609B"/>
            <path fill-rule="evenodd" clip-rule="evenodd" d="M23.7835 6.54869C23.4468 7.32098 21.5121 8.7747 20.657 8.95641C17.2766 9.67793 15.1093 8.07456 13.9763 6.2494C13.8053 5.97682 13.4953 5.23126 13.4392 5.04153C12.9982 3.54505 13.1987 1.28163 14.5134 0.111176C14.1179 1.22552 14.0591 2.51622 14.2676 3.36066C14.3932 3.8684 14.778 4.75559 15.1628 5.3141C15.8629 6.32956 16.3065 6.57809 17.2044 7.12056C17.6106 7.36106 18.0435 7.55881 18.2332 7.61226C19.0857 7.86078 20.8841 8.52083 23.7835 6.54869Z" fill="#21609B"/>
        </g>
        <defs>
            <clipPath id="clip0_294_3687__jQuery">
                <rect width="24" height="24" fill="white"/>
            </clipPath>
        </defs>
    </symbol>
    <symbol id="Monday.com" width="24" height="24" viewBox="0 0 24 24" fill="none" xmlns="http://www.w3.org/2000/svg">
        <g clip-path="url(#clip0_294_3645__Monday.com)">
            <path d="M2.98554 19.1593C1.90542 19.1617 0.907589 18.5826 0.37369 17.6437C-0.152512 16.7105 -0.120958 15.5632 0.455738 14.6603L5.83443 6.21398C6.39488 5.2898 7.40924 4.73865 8.48958 4.7713C9.56914 4.79717 10.5511 5.40246 11.0593 6.35528C11.5607 7.30339 11.498 8.44408 10.8975 9.33407L5.52219 17.7804C4.96819 18.6437 4.01129 19.1639 2.98554 19.1593Z" fill="#F62B54"/>
            <path d="M12.2114 19.1593C11.1265 19.1593 10.1283 18.5793 9.60406 17.6471C9.07903 16.7165 9.11059 15.572 9.68611 14.6717L15.0545 6.24474C15.6069 5.3073 16.6243 4.74321 17.712 4.7713C18.8059 4.79523 19.7974 5.40717 20.2988 6.36439C20.7967 7.32161 20.7238 8.46914 20.105 9.35685L14.7377 17.7838C14.1855 18.6434 13.233 19.1619 12.2114 19.1593Z" fill="#FFCC00"/>
            <path d="M21.2309 19.2299C22.7603 19.2299 24 18.0162 24 16.5189C24 15.0217 22.7603 13.808 21.2309 13.808C19.7016 13.808 18.4618 15.0217 18.4618 16.5189C18.4618 18.0162 19.7016 19.2299 21.2309 19.2299Z" fill="#00CA72"/>
        </g>
        <defs>
            <clipPath id="clip0_294_3645__Monday.com">
                <rect width="24" height="24" fill="white"/>
            </clipPath>
        </defs>
    </symbol>
    <symbol id="MSOffice" width="24" height="24" viewBox="0 0 24 24" fill="none" xmlns="http://www.w3.org/2000/svg">
        <path d="M14.858 21.0294C14.8946 20.7988 14.904 4.12661 14.8692 3.76279C12.0363 4.43756 9.20763 5.11173 6.36732 5.78831V17.5409C4.90505 18.1125 3.44798 18.6817 1.99151 19.2502C1.98213 19.245 1.9741 19.2421 1.96651 19.2367C1.9601 19.2321 1.95192 19.225 1.95132 19.2185C1.94671 19.1745 1.9409 19.1305 1.9409 19.0859C1.94031 14.3371 1.94031 9.58773 1.94031 4.85066C2.0055 4.77029 2.08975 4.76023 2.16298 4.73334C6.32609 3.17424 10.4904 1.6168 14.654 0.0578575C14.7982 0.00377846 14.929 -0.0226593 15.0889 0.0243568C17.3734 0.687412 19.6601 1.34281 21.9463 2.0006C21.9795 2.01067 22.0127 2.02238 22.0597 2.03756V22.0533C21.4033 22.2358 20.7527 22.4183 20.1015 22.5978C18.4438 23.0549 16.785 23.5086 15.1285 23.9691C14.9662 24.0143 14.8244 24.0109 14.665 23.9522C10.57 22.4389 6.47316 20.9303 2.37762 19.421C2.2968 19.3911 2.21761 19.3576 2.14959 19.2855C6.38593 19.867 10.6223 20.4479 14.858 21.0294Z" fill="#DC3E15"/>
    </symbol>
    <symbol id="Netlify" width="24" height="24" viewBox="0 0 24 24" fill="none" xmlns="http://www.w3.org/2000/svg">
        <g clip-path="url(#clip0_294_3899__Netlify)">
            <path d="M23.961 11.9537L23.944 11.9467L23.993 11.9957C24.014 11.9957 23.961 11.9537 23.961 11.9537ZM23.272 12.5177V12.5617L23.366 12.6017L23.272 12.5177Z" fill="black"/>
            <path d="M14.9331 16.2758V16.2798C14.9461 16.2858 14.9401 16.2808 14.9331 16.2758Z" fill="url(#paint0_linear_294_3899__Netlify)"/>
            <path d="M2.74294 14.9797L5.52594 13.7957L5.55694 13.7867L0.533936 12.7377L2.74294 14.9797Z" fill="url(#paint1_linear_294_3899__Netlify)"/>
            <path d="M6.88606 12.3128C6.94106 12.3128 6.99606 12.3158 7.05006 12.3208L7.04406 12.3198C7.16058 12.3044 7.27864 12.3048 7.39506 12.3208L7.38806 12.3198L10.1291 8.05485C9.91497 7.83315 9.79523 7.53704 9.79506 7.22885C9.78439 7.1368 9.78472 7.04381 9.79606 6.95185L9.79506 6.95785L6.46706 5.41785L3.78906 8.02585L6.72906 12.3198C6.77606 12.3148 6.83106 12.3128 6.88606 12.3128Z" fill="url(#paint2_linear_294_3899__Netlify)"/>
            <path d="M16.1589 8.41276L16.7339 4.85076L14.5989 2.60876L12.0879 6.47376V6.52676C12.1969 6.69076 12.2719 6.88576 12.2959 7.09676L12.2969 7.10277L15.8019 8.58976C15.9029 8.51176 16.0219 8.45076 16.1509 8.41376L16.1589 8.41276Z" fill="url(#paint3_linear_294_3899__Netlify)"/>
            <path d="M23.327 12.6047L17.394 10.0677C17.228 10.2877 16.98 10.4377 16.697 10.4747L16.692 10.4757L16.043 14.4467C16.229 14.6357 16.346 14.8947 16.347 15.1797L19.988 15.9447L23.326 12.6237L23.327 12.6047Z" fill="url(#paint4_linear_294_3899__Netlify)"/>
            <path d="M20.293 8.27576L17.739 9.32376L24 11.9878L20.293 8.27576Z" fill="url(#paint5_linear_294_3899__Netlify)"/>
            <path d="M5.818 13.085H5.82C5.88528 12.9626 5.96667 12.8496 6.062 12.749L6.06 12.75L3.286 8.60095L0 11.796L5.818 13.085Z" fill="url(#paint6_linear_294_3899__Netlify)"/>
            <path d="M15.4461 9.43907C15.4414 9.38549 15.4417 9.33159 15.4471 9.27807V9.28207L15.4481 9.27307C15.4481 9.26147 15.4442 9.25021 15.4371 9.24107L12.1611 7.84607C11.9431 8.17607 11.5741 8.39207 11.1541 8.39207L11.1131 8.39107H10.9161L8.20605 12.5821L15.4461 9.43907Z" fill="url(#paint7_linear_294_3899__Netlify)"/>
            <path d="M3.33911 15.4937L4.57411 16.7197L5.97611 14.5407L5.88211 14.4457L3.33911 15.4937Z" fill="url(#paint8_linear_294_3899__Netlify)"/>
            <path d="M16.2101 15.913C16.0911 16.065 15.9351 16.183 15.7561 16.255L15.7491 16.258L14.9861 20.994L19.4331 16.583C19.4331 16.583 19.4231 16.603 19.4121 16.603V16.573L16.2101 15.913Z" fill="url(#paint9_linear_294_3899__Netlify)"/>
            <path d="M16.9741 8.50711C17.0921 8.56711 17.1921 8.64411 17.2771 8.73711L17.2781 8.73811L19.6321 7.68911L17.4351 5.51111L16.9431 8.47511L16.9741 8.50711Z" fill="url(#paint10_linear_294_3899__Netlify)"/>
            <path d="M11.8989 24.0001L13.0919 22.8161L7.68092 14.9701C7.51592 15.0481 7.32092 15.0941 7.11692 15.0951H7.11092C6.95192 15.0951 6.79792 15.0681 6.65592 15.0191L6.66592 15.0221L5.11792 17.2751L11.8989 24.0001Z" fill="url(#paint11_linear_294_3899__Netlify)"/>
            <path d="M8.37305 13.3987C8.40705 13.4507 8.44105 13.5127 8.47205 13.5767L8.47705 13.5877L14.369 14.8027C14.4535 14.6554 14.5724 14.5308 14.7156 14.4395C14.8587 14.3483 15.0219 14.2931 15.191 14.2787H15.195L15.834 10.3717L15.699 10.2567L8.37305 13.3987Z" fill="url(#paint12_linear_294_3899__Netlify)"/>
            <path d="M11.951 -0.00012207L7.03301 4.82888C7.03301 4.82888 7.02301 4.88088 7.03301 4.89188L10.278 6.27488C10.5131 6.08017 10.812 5.97936 11.117 5.99188H11.115C11.257 5.99288 11.395 6.01588 11.523 6.05788L11.513 6.05488L14.045 2.09488L11.951 -0.00012207Z" fill="url(#paint13_linear_294_3899__Netlify)"/>
            <path d="M14.3181 15.5429L14.3161 15.5359L8.35207 14.3099L8.26807 14.4459L13.6791 22.2829L14.0031 21.9579L14.9241 16.2689L14.9341 16.2759V16.2479C14.7838 16.1862 14.6499 16.0904 14.543 15.968C14.4361 15.8457 14.3591 15.7002 14.3181 15.5429Z" fill="url(#paint14_linear_294_3899__Netlify)"/>
        </g>
        <defs>
            <linearGradient id="paint0_linear_294_3899__Netlify" x1="14.9371" y1="2.12221" x2="14.9371" y2="22.7539" gradientUnits="userSpaceOnUse">
                <stop stop-color="#39C4B6"/>
                <stop offset="1" stop-color="#529AC3"/>
            </linearGradient>
            <linearGradient id="paint1_linear_294_3899__Netlify" x1="3.04594" y1="2.12467" x2="3.04594" y2="22.7527" gradientUnits="userSpaceOnUse">
                <stop stop-color="#39C4B6"/>
                <stop offset="1" stop-color="#529AC3"/>
            </linearGradient>
            <linearGradient id="paint2_linear_294_3899__Netlify" x1="6.95906" y1="2.12485" x2="6.95906" y2="22.7528" gradientUnits="userSpaceOnUse">
                <stop stop-color="#39C4B6"/>
                <stop offset="1" stop-color="#529AC3"/>
            </linearGradient>
            <linearGradient id="paint3_linear_294_3899__Netlify" x1="14.4109" y1="2.12476" x2="14.4109" y2="22.7528" gradientUnits="userSpaceOnUse">
                <stop stop-color="#39C4B6"/>
                <stop offset="1" stop-color="#529AC3"/>
            </linearGradient>
            <linearGradient id="paint4_linear_294_3899__Netlify" x1="19.685" y1="2.12475" x2="19.685" y2="22.7527" gradientUnits="userSpaceOnUse">
                <stop stop-color="#39C4B6"/>
                <stop offset="1" stop-color="#529AC3"/>
            </linearGradient>
            <linearGradient id="paint5_linear_294_3899__Netlify" x1="20.869" y1="2.12476" x2="20.869" y2="22.7528" gradientUnits="userSpaceOnUse">
                <stop stop-color="#39C4B6"/>
                <stop offset="1" stop-color="#529AC3"/>
            </linearGradient>
            <linearGradient id="paint6_linear_294_3899__Netlify" x1="3.031" y1="2.12495" x2="3.031" y2="22.753" gradientUnits="userSpaceOnUse">
                <stop stop-color="#39C4B6"/>
                <stop offset="1" stop-color="#529AC3"/>
            </linearGradient>
            <linearGradient id="paint7_linear_294_3899__Netlify" x1="11.8261" y1="2.12507" x2="11.8261" y2="22.7531" gradientUnits="userSpaceOnUse">
                <stop stop-color="#39C4B6"/>
                <stop offset="1" stop-color="#529AC3"/>
            </linearGradient>
            <linearGradient id="paint8_linear_294_3899__Netlify" x1="4.65711" y1="2.12468" x2="4.65711" y2="22.7527" gradientUnits="userSpaceOnUse">
                <stop stop-color="#39C4B6"/>
                <stop offset="1" stop-color="#529AC3"/>
            </linearGradient>
            <linearGradient id="paint9_linear_294_3899__Netlify" x1="17.2101" y1="2.12497" x2="17.2101" y2="22.753" gradientUnits="userSpaceOnUse">
                <stop stop-color="#39C4B6"/>
                <stop offset="1" stop-color="#529AC3"/>
            </linearGradient>
            <linearGradient id="paint10_linear_294_3899__Netlify" x1="18.2881" y1="2.12511" x2="18.2881" y2="22.7531" gradientUnits="userSpaceOnUse">
                <stop stop-color="#39C4B6"/>
                <stop offset="1" stop-color="#529AC3"/>
            </linearGradient>
            <linearGradient id="paint11_linear_294_3899__Netlify" x1="9.10492" y1="2.12509" x2="9.10492" y2="22.7531" gradientUnits="userSpaceOnUse">
                <stop stop-color="#39C4B6"/>
                <stop offset="1" stop-color="#529AC3"/>
            </linearGradient>
            <linearGradient id="paint12_linear_294_3899__Netlify" x1="12.103" y1="2.12471" x2="12.103" y2="22.7527" gradientUnits="userSpaceOnUse">
                <stop stop-color="#39C4B6"/>
                <stop offset="1" stop-color="#529AC3"/>
            </linearGradient>
            <linearGradient id="paint13_linear_294_3899__Netlify" x1="10.536" y1="2.12488" x2="10.536" y2="22.7529" gradientUnits="userSpaceOnUse">
                <stop stop-color="#39C4B6"/>
                <stop offset="1" stop-color="#529AC3"/>
            </linearGradient>
            <linearGradient id="paint14_linear_294_3899__Netlify" x1="11.6001" y1="2.12494" x2="11.6001" y2="22.7529" gradientUnits="userSpaceOnUse">
                <stop stop-color="#39C4B6"/>
                <stop offset="1" stop-color="#529AC3"/>
            </linearGradient>
            <clipPath id="clip0_294_3899__Netlify">
                <rect width="24" height="24" fill="white"/>
            </clipPath>
        </defs>
    </symbol>
    <symbol id="Node" width="24" height="24" viewBox="0 0 24 24" fill="none" xmlns="http://www.w3.org/2000/svg">
        <g clip-path="url(#clip0_294_3549__Node)">
            <path d="M12.5697 0.150707C12.2123 -0.050317 11.7879 -0.050317 11.4305 0.150707L2.02707 5.57835C1.6697 5.77937 1.46867 6.15908 1.46867 6.56113V17.4387C1.46867 17.8408 1.69203 18.2205 2.02707 18.4215L11.4305 23.8492C11.7879 24.0502 12.2123 24.0502 12.5697 23.8492L21.9731 18.4215C22.3305 18.2205 22.5315 17.8408 22.5315 17.4387V6.56113C22.5315 6.15908 22.3081 5.77937 21.9731 5.57835L12.5697 0.150707Z" fill="url(#paint0_linear_294_3549__Node)"/>
            <mask id="mask0_294_3549__Node" style="mask-type:luminance" maskUnits="userSpaceOnUse" x="1" y="0" width="22" height="24">
                <path d="M12.5697 0.150707C12.2123 -0.050317 11.7879 -0.050317 11.4305 0.150707L2.02707 5.57835C1.6697 5.77937 1.46867 6.15908 1.46867 6.56113V17.4387C1.46867 17.8408 1.69203 18.2205 2.02707 18.4215L11.4305 23.8492C11.7879 24.0502 12.2123 24.0502 12.5697 23.8492L21.9731 18.4215C22.3305 18.2205 22.5315 17.8408 22.5315 17.4387V6.56113C22.5315 6.15908 22.3081 5.77937 21.9731 5.57835L12.5697 0.150707Z" fill="white"/>
            </mask>
            <g mask="url(#mask0_294_3549__Node)">
                <path d="M21.9954 5.57835L12.5473 0.150712C12.458 0.10604 12.3463 0.0613679 12.257 0.039032L1.66971 18.1758C1.75905 18.2875 1.87073 18.3769 1.98241 18.4439L11.4305 23.8715C11.6986 24.0279 12.0113 24.0725 12.3016 23.9832L22.2411 5.80171C22.1741 5.71237 22.0848 5.64536 21.9954 5.57835Z" fill="url(#paint1_linear_294_3549__Node)"/>
            </g>
            <mask id="mask1_294_3549__Node" style="mask-type:luminance" maskUnits="userSpaceOnUse" x="1" y="0" width="22" height="24">
                <path d="M12.5697 0.150707C12.2123 -0.050317 11.7879 -0.050317 11.4305 0.150707L2.02707 5.57835C1.6697 5.77937 1.46867 6.15908 1.46867 6.56113V17.4387C1.46867 17.8408 1.69203 18.2205 2.02707 18.4215L11.4305 23.8492C11.7879 24.0502 12.2123 24.0502 12.5697 23.8492L21.9731 18.4215C22.3305 18.2205 22.5315 17.8408 22.5315 17.4387V6.56113C22.5315 6.15908 22.3081 5.77937 21.9731 5.57835L12.5697 0.150707Z" fill="white"/>
            </mask>
            <g mask="url(#mask1_294_3549__Node)">
                <path d="M22.0178 18.4215C22.2858 18.2652 22.4868 17.9971 22.5762 17.7068L12.2123 0.0166929C11.9442 -0.027979 11.6539 -0.00564307 11.4082 0.150709L2.02707 5.55601L12.1453 24.0055C12.2793 23.9832 12.4356 23.9385 12.5696 23.8715L22.0178 18.4215Z" fill="url(#paint2_linear_294_3549__Node)"/>
            </g>
        </g>
        <defs>
            <linearGradient id="paint0_linear_294_3549__Node" x1="1437.71" y1="419.684" x2="406.963" y2="2039.23" gradientUnits="userSpaceOnUse">
                <stop stop-color="#41873F"/>
                <stop offset="0.3288" stop-color="#418B3D"/>
                <stop offset="0.6352" stop-color="#419637"/>
                <stop offset="0.9319" stop-color="#3FA92D"/>
                <stop offset="1" stop-color="#3FAE2A"/>
            </linearGradient>
            <linearGradient id="paint1_linear_294_3549__Node" x1="891.93" y1="1323.52" x2="3473.27" y2="-78.9152" gradientUnits="userSpaceOnUse">
                <stop offset="0.1376" stop-color="#41873F"/>
                <stop offset="0.4032" stop-color="#54A044"/>
                <stop offset="0.7136" stop-color="#66B848"/>
                <stop offset="0.9081" stop-color="#6CC04A"/>
            </linearGradient>
            <linearGradient id="paint2_linear_294_3549__Node" x1="-88.1589" y1="1200.39" x2="2087.74" y2="1200.39" gradientUnits="userSpaceOnUse">
                <stop offset="0.0919165" stop-color="#6CC04A"/>
                <stop offset="0.2864" stop-color="#66B848"/>
                <stop offset="0.5968" stop-color="#54A044"/>
                <stop offset="0.8624" stop-color="#41873F"/>
            </linearGradient>
            <clipPath id="clip0_294_3549__Node">
                <rect width="24" height="24" fill="white"/>
            </clipPath>
        </defs>
    </symbol>
    <symbol id="Notion" width="24" height="24" viewBox="0 0 24 24" fill="none" xmlns="http://www.w3.org/2000/svg">
        <g clip-path="url(#clip0_294_3700__Notion)">
            <path d="M1.95843 1.03526L15.2383 0.0544687C16.8695 -0.0855296 17.2887 0.00886935 18.3142 0.754461L22.5534 3.74083C23.2526 4.25442 23.4854 4.39442 23.4854 4.95361V21.3318C23.4854 22.3582 23.1126 22.9654 21.8078 23.0582L6.38638 23.9918C5.40719 24.0382 4.9408 23.8982 4.428 23.2446L1.30644 19.1854C0.746447 18.4383 0.51445 17.8791 0.51445 17.2255V2.66724C0.51445 1.82805 0.887246 1.12806 1.95843 1.03526Z" fill="white"/>
            <path d="M15.2383 0.0544687L1.95843 1.03526C0.887246 1.12806 0.51445 1.82805 0.51445 2.66724V17.2255C0.51445 17.8791 0.746447 18.4383 1.30644 19.1854L4.428 23.2446C4.9408 23.8982 5.40719 24.0382 6.38638 23.9918L21.8078 23.0582C23.1118 22.9654 23.4854 22.3582 23.4854 21.3318V4.95361C23.4854 4.42322 23.2758 4.27042 22.659 3.81763C22.6235 3.79206 22.588 3.76646 22.5526 3.74083L18.3142 0.754461C17.2887 0.00886935 16.8695 -0.0855296 15.2383 0.0544687ZM6.73518 4.68562C5.47599 4.77041 5.1904 4.78961 4.4752 4.20802L2.65683 2.76164C2.47203 2.57444 2.56483 2.34084 3.03042 2.29444L15.7967 1.36165C16.8687 1.26805 17.4271 1.64165 17.8462 1.96805L20.0358 3.55443C20.1294 3.60163 20.3622 3.88082 20.0822 3.88082L6.89838 4.67442L6.73518 4.68562ZM5.2672 21.1918V7.28799C5.2672 6.68079 5.45359 6.40079 6.01199 6.3536L21.1542 5.46721C21.6678 5.42081 21.8998 5.7472 21.8998 6.3536V20.1646C21.8998 20.7718 21.8062 21.2854 20.9678 21.3318L6.47758 22.1718C5.63919 22.2182 5.2672 21.939 5.2672 21.1918ZM19.571 8.03358C19.6638 8.45357 19.571 8.87357 19.151 8.92157L18.4526 9.05996V19.3254C17.8463 19.6518 17.2879 19.8382 16.8215 19.8382C16.0759 19.8382 15.8895 19.6046 15.3311 18.9055L10.7639 11.7199V18.6719L12.2087 18.9991C12.2087 18.9991 12.2087 19.839 11.0431 19.839L7.82957 20.0254C7.73597 19.8382 7.82957 19.3718 8.15516 19.279L8.99435 19.0462V9.85436L7.82957 9.75996C7.73597 9.33996 7.96876 8.73357 8.62156 8.68637L12.0695 8.45437L16.8215 15.7327V9.29356L15.6103 9.15436C15.5167 8.63997 15.8895 8.26637 16.3551 8.22077L19.571 8.03358Z" fill="black"/>
        </g>
        <defs>
            <clipPath id="clip0_294_3700__Notion">
                <rect width="24" height="24" fill="white"/>
            </clipPath>
        </defs>
    </symbol>
    <symbol id="Photoshop" width="24" height="24" viewBox="0 0 24 24" fill="none" xmlns="http://www.w3.org/2000/svg">
        <g clip-path="url(#clip0_294_3670__Photoshop)">
            <rect width="24" height="24" rx="4" fill="#001E36"/>
            <path d="M7.9796 6.6001C7.6796 6.6001 7.3796 6.6001 7.06967 6.61022C6.75954 6.62016 6.46948 6.62016 6.19948 6.63029C5.92948 6.64022 5.67954 6.64022 5.43954 6.65016C5.20948 6.6601 5.04954 6.6601 4.87948 6.6601C4.80954 6.6601 4.77954 6.70004 4.77954 6.77016V17.0602C4.77954 17.1502 4.81948 17.1903 4.89954 17.1903H6.8396C6.90954 17.1802 6.9596 17.1202 6.94948 17.0502V13.8402C7.13942 13.8402 7.27948 13.8402 7.3796 13.8502C7.47954 13.8601 7.63948 13.8601 7.87948 13.8601C8.6996 13.8601 9.4496 13.7701 10.1295 13.5202C10.7795 13.2802 11.3396 12.8602 11.7395 12.3001C12.1395 11.7402 12.3395 11.0302 12.3395 10.1701C12.3395 9.7201 12.2597 9.29016 12.1097 8.87016C11.9508 8.44221 11.7018 8.05343 11.3795 7.73016C10.9993 7.36071 10.5415 7.08056 10.0395 6.91004C9.47942 6.70004 8.79954 6.6001 7.9796 6.6001ZM8.20273 8.56979C8.55898 8.57654 8.90585 8.63878 9.22948 8.77004C9.51954 8.8801 9.75954 9.08016 9.9296 9.34004C10.0893 9.60891 10.1691 9.91771 10.1597 10.2303C10.1597 10.6702 10.0595 11.0103 9.84954 11.2602C9.62942 11.5102 9.34948 11.7003 9.0296 11.7903C8.65948 11.9103 8.26948 11.9701 7.87948 11.9701H7.34942C7.22942 11.9701 7.09967 11.9602 6.9596 11.9502V8.59022C7.02954 8.5801 7.1696 8.57016 7.36967 8.58029C7.5596 8.57016 7.78948 8.57016 8.04954 8.57016C8.10073 8.56885 8.15192 8.56866 8.20273 8.56979ZM16.5896 9.08035C15.8795 9.08035 15.2895 9.19022 14.8196 9.43022C14.3897 9.63029 14.0195 9.95016 13.7696 10.3501C13.5497 10.7202 13.4295 11.1301 13.4295 11.5602C13.4209 11.914 13.4999 12.2644 13.6595 12.5802C13.8466 12.9165 14.1063 13.2069 14.4197 13.4302C14.8596 13.731 15.337 13.973 15.8396 14.1502C16.3295 14.3401 16.6595 14.4901 16.8197 14.62C16.9796 14.7502 17.0597 14.8801 17.0597 15.0202C17.0597 15.2002 16.9496 15.3702 16.7897 15.4402C16.6097 15.5302 16.3397 15.5802 15.9596 15.5802C15.5597 15.5802 15.1595 15.5302 14.7795 15.4302C14.3431 15.3327 13.9247 15.1673 13.5395 14.9403C13.5095 14.9202 13.4795 14.9103 13.4495 14.9303C13.4195 14.9502 13.4096 14.9902 13.4096 15.0202V16.7602C13.3997 16.8402 13.4495 16.9102 13.5197 16.9501C13.8439 17.1016 14.187 17.2092 14.5397 17.2702C14.9897 17.3602 15.4395 17.4001 15.8994 17.4001C16.6194 17.4001 17.2196 17.2902 17.7095 17.0802C18.1595 16.9002 18.5495 16.5903 18.8295 16.1902C19.0915 15.7968 19.2276 15.3329 19.2195 14.8602C19.2292 14.5032 19.1503 14.1493 18.9896 13.8303C18.7995 13.4902 18.5295 13.2102 18.1995 13.0002C17.7167 12.6971 17.1998 12.452 16.6595 12.2701C16.4183 12.1703 16.1813 12.0602 15.9495 11.9401C15.8195 11.8702 15.6995 11.7802 15.6095 11.6701C15.5495 11.59 15.5096 11.5002 15.5096 11.4102C15.5096 11.3202 15.5396 11.2203 15.5895 11.1402C15.6596 11.0403 15.7695 10.9702 15.8994 10.9402C16.0895 10.8903 16.2995 10.8601 16.4994 10.87C16.8795 10.87 17.2494 10.9201 17.6195 11.0002C17.9597 11.0701 18.2795 11.1802 18.5795 11.3403C18.6195 11.3602 18.6695 11.3602 18.7595 11.3403C18.7752 11.3287 18.7879 11.3137 18.7966 11.2962C18.8053 11.2788 18.8098 11.2596 18.8096 11.2402V9.61022C18.8096 9.5701 18.7995 9.53016 18.7895 9.49022C18.7695 9.45029 18.7295 9.41016 18.6896 9.40022C18.4138 9.28742 18.1248 9.21011 17.8295 9.17016C17.4189 9.11036 17.0045 9.08047 16.5896 9.08035Z" fill="#31A8FF"/>
        </g>
        <defs>
            <clipPath id="clip0_294_3670__Photoshop">
                <rect width="24" height="24" fill="white"/>
            </clipPath>
        </defs>
    </symbol>
    <symbol id="Pocketbase" width="24" height="24" viewBox="0 0 24 24" fill="none" xmlns="http://www.w3.org/2000/svg">
        <g clip-path="url(#clip0_294_3694__Pocketbase)">
            <path d="M5.68406 12C5.51662 11.9997 5.35612 11.933 5.23782 11.8145C5.11951 11.696 5.05306 11.5354 5.05306 11.368V4.421C5.05306 4.072 5.33506 3.789 5.68406 3.789H8.05406C8.51406 3.789 8.94306 3.836 9.34106 3.928C9.74806 4.012 10.0991 4.158 10.3941 4.368C10.6971 4.57 10.9351 4.843 11.1091 5.188C11.2821 5.523 11.3691 5.938 11.3691 6.434C11.3691 6.913 11.2771 7.328 11.0961 7.681C10.9309 8.02381 10.6856 8.32185 10.3811 8.55C10.0649 8.78261 9.70765 8.95328 9.32806 9.053C8.93006 9.163 8.50506 9.217 8.05506 9.217H7.59506C7.42744 9.217 7.26669 9.28359 7.14817 9.40211C7.02965 9.52063 6.96306 9.68138 6.96306 9.849V11.369C6.9628 11.5364 6.89609 11.6969 6.7776 11.8152C6.6591 11.9336 6.4985 12 6.33106 12H5.68406ZM6.96306 7.112C6.96306 7.461 7.24606 7.744 7.59506 7.744H7.93806C8.97806 7.744 9.49806 7.307 9.49806 6.434C9.49806 6.006 9.36306 5.704 9.09406 5.527C8.83406 5.351 8.44906 5.263 7.93806 5.263H7.59506C7.42762 5.263 7.26702 5.32945 7.14852 5.44775C7.03003 5.56606 6.96333 5.72656 6.96306 5.894V7.112ZM13.2631 20.21C13.0958 20.2097 12.9354 20.1432 12.8172 20.0249C12.6989 19.9066 12.6323 19.7463 12.6321 19.579V12.632C12.6318 12.549 12.6479 12.4668 12.6795 12.3901C12.7111 12.3133 12.7576 12.2436 12.8162 12.1849C12.8749 12.1261 12.9445 12.0796 13.0212 12.0479C13.0979 12.0161 13.1801 11.9999 13.2631 12H15.4661C15.9061 12 16.3111 12.034 16.6821 12.1C17.0621 12.16 17.3901 12.269 17.6661 12.428C17.9421 12.588 18.1581 12.798 18.3131 13.058C18.4771 13.318 18.5591 13.645 18.5591 14.04C18.5591 14.225 18.5291 14.41 18.4691 14.594C18.4158 14.7809 18.3276 14.956 18.2091 15.11C17.945 15.4638 17.5635 15.712 17.1331 15.81C17.1265 15.8118 17.1206 15.8157 17.1165 15.8211C17.1123 15.8265 17.1101 15.8332 17.1101 15.84C17.1101 15.855 17.1201 15.868 17.1351 15.87C17.7261 15.981 18.1751 16.19 18.4811 16.496C18.7921 16.806 18.9471 17.239 18.9471 17.793C18.9471 18.213 18.8651 18.573 18.7011 18.876C18.5365 19.1789 18.3015 19.4378 18.0161 19.631C17.6976 19.8346 17.3475 19.9836 16.9801 20.072C16.5643 20.1676 16.1387 20.2142 15.7121 20.211L13.2631 20.21ZM14.5341 14.668C14.5341 15.017 14.8171 15.299 15.1661 15.299H15.3761C15.8411 15.299 16.1781 15.211 16.3851 15.035C16.5921 14.859 16.6951 14.611 16.6951 14.292C16.6951 13.99 16.5881 13.776 16.3721 13.65C16.1651 13.515 15.8371 13.448 15.3881 13.448H15.1661C14.9984 13.448 14.8377 13.5146 14.7192 13.6331C14.6006 13.7516 14.5341 13.9124 14.5341 14.08V14.668ZM14.5341 18.131C14.5341 18.48 14.8171 18.762 15.1661 18.762H15.5561C16.5751 18.762 17.0841 18.393 17.0841 17.654C17.0841 17.294 16.9591 17.033 16.7081 16.874C16.4671 16.714 16.0831 16.634 15.5561 16.634H15.1661C14.9984 16.634 14.8377 16.7006 14.7192 16.8191C14.6006 16.9376 14.5341 17.0984 14.5341 17.266V18.131ZM1.38906 0C0.629061 0 6.10352e-05 0.629 6.10352e-05 1.389V15.03C0.00267604 15.3977 0.149825 15.7496 0.40972 16.0096C0.669615 16.2697 1.02139 16.4171 1.38906 16.42H8.21006C8.37733 16.4195 8.53757 16.3527 8.65566 16.2342C8.77375 16.1157 8.84006 15.9553 8.84006 15.788C8.83953 15.6211 8.77299 15.4611 8.65496 15.3431C8.53692 15.2251 8.37699 15.1585 8.21006 15.158H1.38906C1.31106 15.158 1.26406 15.108 1.26406 15.03V1.39C1.26406 1.312 1.31106 1.265 1.38906 1.265H15.0301C15.1081 1.265 15.1571 1.312 15.1571 1.39V8.21C15.1576 8.3771 15.2243 8.53718 15.3425 8.65525C15.4608 8.77331 15.621 8.83974 15.7881 8.84C15.9555 8.84027 16.1162 8.77407 16.2349 8.65595C16.3536 8.53783 16.4205 8.37744 16.4211 8.21V1.389C16.4182 1.0215 16.2709 0.669875 16.0111 0.410008C15.7512 0.15014 15.3996 0.0028763 15.0321 0L1.38906 0ZM15.7901 7.578C15.707 7.578 15.6247 7.59438 15.548 7.6262C15.4712 7.65803 15.4015 7.70467 15.3428 7.76346C15.2841 7.82225 15.2376 7.89204 15.2059 7.96884C15.1742 8.04563 15.1579 8.12792 15.1581 8.211C15.1586 8.3781 15.2253 8.53818 15.3435 8.65625C15.4618 8.77431 15.622 8.84074 15.7891 8.841H22.6111C22.6891 8.841 22.7361 8.891 22.7361 8.969V22.61C22.7361 22.688 22.6891 22.735 22.6111 22.735H8.97006C8.89306 22.735 8.84306 22.688 8.84306 22.61V15.79C8.84253 15.6229 8.77585 15.4628 8.6576 15.3448C8.53935 15.2267 8.37916 15.1603 8.21206 15.16C8.04462 15.1597 7.88391 15.2259 7.76523 15.344C7.64655 15.4622 7.57959 15.6226 7.57906 15.79V22.612C7.5822 22.9793 7.72958 23.3307 7.98942 23.5903C8.24926 23.85 8.60074 23.9971 8.96806 24H22.6111C23.3711 24 24.0001 23.371 24.0001 22.611V8.97C23.9974 8.60233 23.8503 8.25045 23.5904 7.99036C23.3305 7.73028 22.9787 7.58288 22.6111 7.58L15.7901 7.578Z" fill="black"/>
        </g>
        <defs>
            <clipPath id="clip0_294_3694__Pocketbase">
                <rect width="24" height="24" fill="white"/>
            </clipPath>
        </defs>
    </symbol>
    <symbol id="React" width="24" height="24" viewBox="0 0 24 24" fill="none" xmlns="http://www.w3.org/2000/svg">
        <g clip-path="url(#clip0_294_3624__React)">
            <path d="M12 14.1213C13.1835 14.1213 14.1429 13.162 14.1429 11.9785C14.1429 10.795 13.1835 9.83563 12 9.83563C10.8166 9.83563 9.85716 10.795 9.85716 11.9785C9.85716 13.162 10.8166 14.1213 12 14.1213Z" fill="#00D8FF"/>
            <path d="M12 16.8915C9.42442 16.9538 6.85527 16.6067 4.38859 15.863C3.24912 15.5018 2.18636 14.9327 1.25402 14.1847C0.898241 13.9291 0.601962 13.5996 0.385508 13.2188C0.169055 12.838 0.0375492 12.4148 1.52588e-05 11.9784C1.52588e-05 10.5615 1.55659 9.17297 4.16402 8.2644C6.69664 7.45933 9.34281 7.06915 12 7.10897C14.6218 7.07234 17.2325 7.45547 19.7332 8.24383C20.8305 8.59367 21.8573 9.13519 22.7657 9.84325C23.1154 10.0869 23.4073 10.4044 23.6206 10.7734C23.8339 11.1424 23.9634 11.5538 24 11.9784C24 13.451 22.26 14.9433 19.4572 15.8707C17.0382 16.5901 14.5233 16.9344 12 16.8915ZM12 8.13411C9.45783 8.10013 6.92644 8.47106 4.50087 9.23297C2.10087 10.0704 1.02516 11.2155 1.02516 11.9758C1.02516 12.7713 2.18144 14.0218 4.7203 14.8901C7.08008 15.598 9.53711 15.9275 12 15.8664C14.4141 15.9096 16.8205 15.5829 19.1357 14.8978C21.7714 14.0244 22.9714 12.7721 22.9714 11.9784C22.9282 11.706 22.8289 11.4456 22.6799 11.2135C22.5309 10.9814 22.3354 10.7828 22.1057 10.6301C21.2929 10.0019 20.3758 9.52203 19.3963 9.2124C17.004 8.46133 14.5071 8.09731 12 8.13411Z" fill="#00D8FF"/>
            <path d="M7.13153 22.6661C6.73168 22.6753 6.33654 22.5782 5.98639 22.3849C4.75896 21.6769 4.33382 19.6352 4.84896 16.9224C5.41695 14.3262 6.40108 11.8389 7.76325 9.55693C9.04102 7.26759 10.6768 5.19743 12.6087 3.42493C13.46 2.64897 14.442 2.02997 15.5092 1.59665C15.8953 1.41574 16.3164 1.32196 16.7427 1.32196C17.169 1.32196 17.5901 1.41574 17.9761 1.59665C19.2524 2.33208 19.675 4.58465 19.0793 7.47579C18.4937 9.93113 17.5352 12.2822 16.237 14.4469C15.0042 16.7092 13.4199 18.7614 11.5432 20.5266C10.6611 21.333 9.63725 21.9692 8.52353 22.4029C8.07767 22.5684 7.60704 22.6574 7.13153 22.6661ZM8.65125 10.0661C7.3519 12.2512 6.40867 14.6293 5.85696 17.1109C5.38296 19.6095 5.83811 21.1121 6.49982 21.4944C7.18553 21.8912 8.85011 21.5149 10.8712 19.7492C12.6627 18.058 14.1749 16.0937 15.3515 13.9292C16.5952 11.8597 17.5147 9.61191 18.0781 7.26408C18.6387 4.54265 18.1544 2.87636 17.467 2.48036C17.2093 2.38164 16.934 2.33745 16.6584 2.35058C16.3828 2.36371 16.1129 2.43388 15.8658 2.55665C14.9158 2.94866 14.0424 3.50519 13.2858 4.20065C11.4401 5.89847 9.87755 7.88031 8.65725 10.0712L8.65125 10.0661Z" fill="#00D8FF"/>
            <path d="M16.8661 22.6772C15.7046 22.6772 14.2295 21.9744 12.6935 20.6535C10.7278 18.8649 9.06432 16.7701 7.76749 14.4504C6.4224 12.1998 5.44606 9.74856 4.87549 7.18952C4.62804 6.06365 4.58218 4.90283 4.74006 3.76095C4.77656 3.33735 4.90554 2.92692 5.11792 2.5586C5.33029 2.19028 5.62088 1.87303 5.9692 1.62923C7.24377 0.891233 9.40634 1.6498 11.6135 3.60923C13.4483 5.34254 15.0064 7.34698 16.2335 9.55266C17.5777 11.7507 18.5643 14.1483 19.1563 16.6558C19.4144 17.823 19.4543 19.0279 19.2738 20.2095C19.2308 20.6453 19.0942 21.0666 18.8731 21.4446C18.6521 21.8227 18.3519 22.1484 17.9932 22.3995C17.6488 22.5904 17.2598 22.6863 16.8661 22.6772ZM8.65463 13.9344C9.89871 16.1513 11.4877 18.1561 13.3621 19.8735C15.2898 21.5321 16.8189 21.8887 17.4763 21.5021C18.1621 21.1035 18.6678 19.4767 18.1466 16.8444C17.5757 14.4503 16.6294 12.1617 15.3429 10.0635C14.1719 7.95248 12.6847 6.03311 10.9329 4.37209C8.8552 2.52752 7.17006 2.11523 6.48349 2.51295C6.2695 2.68685 6.09389 2.90323 5.96775 3.14842C5.84161 3.39362 5.76768 3.66231 5.75063 3.93752C5.61435 4.95588 5.65874 5.99029 5.88177 6.99323C6.4306 9.4405 7.36698 11.7843 8.65549 13.9361L8.65463 13.9344Z" fill="#00D8FF"/>
        </g>
        <defs>
            <clipPath id="clip0_294_3624__React">
                <rect width="24" height="24" fill="white"/>
            </clipPath>
        </defs>
    </symbol>
    <symbol id="SCSS" width="24" height="24" viewBox="0 0 24 24" fill="none" xmlns="http://www.w3.org/2000/svg">
        <g clip-path="url(#clip0_294_3678__SCSS)">
            <path fill-rule="evenodd" clip-rule="evenodd" d="M11.9999 0C14.3733 0 16.6934 0.703788 18.6668 2.02236C20.6402 3.34094 22.1782 5.21508 23.0865 7.4078C23.9947 9.60051 24.2324 12.0133 23.7694 14.3411C23.3063 16.6689 22.1634 18.807 20.4852 20.4853C18.807 22.1635 16.6688 23.3064 14.341 23.7694C12.0132 24.2324 9.60045 23.9948 7.40774 23.0865C5.21502 22.1783 3.34088 20.6402 2.0223 18.6668C0.703727 16.6934 -6.10352e-05 14.3734 -6.10352e-05 12C-6.10352e-05 8.8174 1.26422 5.76515 3.51466 3.51472C5.76509 1.26428 8.81734 0 11.9999 0Z" fill="#CC6699"/>
            <path d="M19.5275 5.13593C18.9841 3.00507 15.4501 2.30735 12.1055 3.49193C10.0109 4.19577 8.07571 5.30581 6.41066 6.7585C4.56866 8.48135 4.27466 9.98135 4.39552 10.6079C4.82409 12.8194 7.85238 14.2645 9.0978 15.3368V15.3428C8.73095 15.5236 6.04295 16.8856 5.41209 18.2742C4.74866 19.7416 5.51752 20.7942 6.02752 20.9356C6.79322 21.12 7.59742 21.06 8.3273 20.7641C9.05717 20.4682 9.6761 19.9512 10.0972 19.2856C10.4453 18.7464 10.663 18.1336 10.7333 17.4957C10.8035 16.8577 10.7242 16.2122 10.5018 15.6102C11.1017 15.4578 11.7253 15.422 12.3387 15.5048C14.4438 15.7508 14.8569 17.0648 14.7781 17.6151C14.741 17.8109 14.6622 17.9965 14.5469 18.1592C14.4317 18.3219 14.2828 18.4579 14.1104 18.5579C13.9629 18.6496 13.9175 18.6805 13.9304 18.7491C13.9484 18.8476 14.0161 18.8442 14.1421 18.8228C14.4584 18.7231 14.7372 18.53 14.9416 18.2688C15.146 18.0076 15.2665 17.6907 15.2872 17.3596C15.3378 16.0739 14.1027 14.6288 11.9152 14.6656C11.2799 14.6475 10.646 14.7344 10.0389 14.9228C10.0089 14.8885 9.97809 14.8542 9.94638 14.8199C8.5938 13.3774 6.09438 12.3565 6.1998 10.4168C6.23838 9.71135 6.48352 7.85478 10.9998 5.60221C14.7027 3.75678 17.6667 4.26507 18.1792 5.3905C18.9112 6.9985 16.5952 9.98564 12.7501 10.4168C12.3251 10.5031 11.8861 10.4925 11.4658 10.386C11.0454 10.2795 10.6544 10.0796 10.3218 9.80135C10.1195 9.5785 10.0895 9.56907 10.0141 9.61021C9.89152 9.67792 9.96952 9.87507 10.0141 9.99164C10.1613 10.257 10.3601 10.4903 10.5987 10.6778C10.8372 10.8653 11.1109 11.0033 11.4035 11.0836C12.9153 11.4121 14.4922 11.2562 15.9104 10.6379C18.2427 9.73878 20.0615 7.23164 19.5275 5.13593ZM9.61552 15.9968C9.78576 16.5837 9.77711 17.208 9.59066 17.7899C9.57066 17.8505 9.54866 17.9105 9.52466 17.9699C9.50066 18.0294 9.47466 18.0865 9.44666 18.1414C9.30241 18.4365 9.11555 18.7088 8.89209 18.9496C8.19523 19.7099 7.22066 19.9979 6.80323 19.7554C6.35238 19.4939 6.5778 18.4216 7.38609 17.5671C8.00716 16.9529 8.72321 16.4429 9.50666 16.0568L9.61552 15.9968Z" fill="white"/>
        </g>
        <defs>
            <clipPath id="clip0_294_3678__SCSS">
                <rect width="24" height="24" fill="white"/>
            </clipPath>
        </defs>
    </symbol>
    <symbol id="Slack" width="24" height="24" viewBox="0 0 24 24" fill="none" xmlns="http://www.w3.org/2000/svg">
        <g clip-path="url(#clip0_294_3740__Slack)">
            <path d="M5.05962 15.1695C5.05962 16.5633 3.93312 17.6898 2.53933 17.6898C1.14553 17.6898 0.019043 16.5633 0.019043 15.1695C0.019043 13.7757 1.14553 12.6492 2.53933 12.6492H5.05962V15.1695ZM6.31976 15.1695C6.31976 13.7757 7.44625 12.6492 8.84004 12.6492C10.2338 12.6492 11.3603 13.7757 11.3603 15.1695V21.4702C11.3603 22.864 10.2338 23.9905 8.84004 23.9905C7.44625 23.9905 6.31976 22.864 6.31976 21.4702V15.1695Z" fill="#E01E5A"/>
            <path d="M8.84007 5.05016C7.44627 5.05016 6.31978 3.92366 6.31978 2.52987C6.31978 1.13607 7.44627 0.00958252 8.84007 0.00958252C10.2339 0.00958252 11.3604 1.13607 11.3604 2.52987V5.05016H8.84007ZM8.84007 6.32939C10.2339 6.32939 11.3604 7.45588 11.3604 8.84968C11.3604 10.2435 10.2339 11.37 8.84007 11.37H2.52026C1.12646 11.37 -3.05176e-05 10.2435 -3.05176e-05 8.84968C-3.05176e-05 7.45588 1.12646 6.32939 2.52026 6.32939H8.84007Z" fill="#36C5F0"/>
            <path d="M18.9403 8.84968C18.9403 7.45588 20.0668 6.32939 21.4606 6.32939C22.8544 6.32939 23.9809 7.45588 23.9809 8.84968C23.9809 10.2435 22.8544 11.37 21.4606 11.37H18.9403V8.84968ZM17.6802 8.84968C17.6802 10.2435 16.5537 11.37 15.1599 11.37C13.7661 11.37 12.6396 10.2435 12.6396 8.84968V2.52987C12.6396 1.13607 13.7661 0.00958252 15.1599 0.00958252C16.5537 0.00958252 17.6802 1.13607 17.6802 2.52987V8.84968Z" fill="#2EB67D"/>
            <path d="M15.1599 18.9499C16.5537 18.9499 17.6802 20.0764 17.6802 21.4702C17.6802 22.864 16.5537 23.9905 15.1599 23.9905C13.7661 23.9905 12.6396 22.864 12.6396 21.4702V18.9499H15.1599ZM15.1599 17.6898C13.7661 17.6898 12.6396 16.5633 12.6396 15.1695C12.6396 13.7757 13.7661 12.6492 15.1599 12.6492H21.4797C22.8735 12.6492 24 13.7757 24 15.1695C24 16.5633 22.8735 17.6898 21.4797 17.6898H15.1599Z" fill="#ECB22E"/>
        </g>
        <defs>
            <clipPath id="clip0_294_3740__Slack">
                <rect width="24" height="24" fill="white"/>
            </clipPath>
        </defs>
    </symbol>
    <symbol id="Supabase" width="24" height="24" viewBox="0 0 24 24" fill="none" xmlns="http://www.w3.org/2000/svg">
        <g clip-path="url(#clip0_294_3635__Supabase)">
            <path d="M13.9716 23.6012C13.3584 24.3733 12.1153 23.9503 12.1005 22.9644L11.8845 8.54471H21.5803C23.3364 8.54471 24.3159 10.5731 23.2239 11.9485L13.9716 23.6012Z" fill="url(#paint0_linear_294_3635__Supabase)"/>
            <path d="M13.9716 23.6012C13.3584 24.3733 12.1153 23.9503 12.1005 22.9644L11.8845 8.54471H21.5803C23.3364 8.54471 24.3159 10.5731 23.2239 11.9485L13.9716 23.6012Z" fill="url(#paint1_linear_294_3635__Supabase)" fill-opacity="0.2"/>
            <path d="M10.0284 0.39878C10.6415 -0.373415 11.8847 0.0496919 11.8995 1.03559L11.9942 15.4553H2.41972C0.663497 15.4553 -0.315978 13.4269 0.776091 12.0515L10.0284 0.39878Z" fill="#3ECF8E"/>
        </g>
        <defs>
            <linearGradient id="paint0_linear_294_3635__Supabase" x1="258.019" y1="328.265" x2="813.986" y2="561.437" gradientUnits="userSpaceOnUse">
                <stop stop-color="#249361"/>
                <stop offset="1" stop-color="#3ECF8E"/>
            </linearGradient>
            <linearGradient id="paint1_linear_294_3635__Supabase" x1="35.377" y1="-194.821" x2="392.282" y2="477.032" gradientUnits="userSpaceOnUse">
                <stop />
                <stop offset="1" stop-opacity="0"/>
            </linearGradient>
            <clipPath id="clip0_294_3635__Supabase">
                <rect width="24" height="24" fill="white"/>
            </clipPath>
        </defs>
    </symbol>
    <symbol id="TailwindCSS" width="24" height="24" viewBox="0 0 24 24" fill="none" xmlns="http://www.w3.org/2000/svg">
        <path d="M12 4.80037C8.79994 4.80037 6.80062 6.39974 6 9.59981C7.19963 8.00024 8.60006 7.40043 10.1996 7.80037C11.1129 8.02799 11.7656 8.69024 12.4884 9.42412C13.6648 10.6179 15.0264 12 18 12C21.1999 12 23.1994 10.4004 24 7.19962C22.8002 8.80012 21.3999 9.39993 19.8002 8.99999C18.8871 8.77218 18.2351 8.11012 17.5114 7.37624C16.3358 6.18243 14.9745 4.80037 12 4.80037ZM6 12C2.80013 12 0.800625 13.5996 0 16.8004C1.19963 15.1999 2.59988 14.6001 4.19963 15C5.11294 15.2278 5.76562 15.8899 6.48844 16.6237C7.66481 17.8176 9.02644 19.1996 12 19.1996C15.1999 19.1996 17.1994 17.6002 18 14.4002C16.8002 15.9997 15.3999 16.5996 13.8002 16.1996C12.8871 15.972 12.2351 15.3097 11.5114 14.5759C10.3357 13.3821 8.9745 12 6 12Z" fill="#38BDF8"/>
    </symbol>
    <symbol id="Velog" width="24" height="24" viewBox="0 0 24 24" fill="none" xmlns="http://www.w3.org/2000/svg">
        <g clip-path="url(#clip0_296_915__Velog)">
            <path d="M3 0C1.338 0 0 1.338 0 3V21C0 22.662 1.338 24 3 24H21C22.662 24 24 22.662 24 21V3C24 1.338 22.662 0 21 0H3ZM9.883 6.25C10.513 6.25 10.888 6.55 11.008 7.15L12.471 15.453C12.936 14.838 13.317 14.32 13.617 13.9C14.082 13.24 14.51 12.482 14.9 11.627C15.305 10.772 15.508 10.007 15.508 9.332C15.508 8.927 15.395 8.605 15.17 8.365C14.96 8.11 14.562 7.788 13.977 7.398C14.577 6.633 15.327 6.25 16.227 6.25C16.707 6.25 17.105 6.393 17.42 6.678C17.75 6.963 17.914 7.382 17.914 7.938C17.914 8.868 17.524 10.031 16.744 11.426C15.979 12.806 14.503 14.883 12.313 17.658L10.086 17.814L8.375 8.186H6.125V7.24C6.725 7.045 7.43 6.834 8.24 6.61C9.05 6.37 9.598 6.25 9.883 6.25Z" fill="#121212"/>
        </g>
        <defs>
            <clipPath id="clip0_296_915__Velog">
                <rect width="24" height="24" fill="white"/>
            </clipPath>
        </defs>
    </symbol>
    <symbol id="Vercel" width="24" height="24" viewBox="0 0 24 24" fill="none" xmlns="http://www.w3.org/2000/svg">
        <path d="M12 1.60757L24 22.3924H0L12 1.60757Z" fill="black"/>
    </symbol>
    <symbol id="Vite" width="24" height="24" viewBox="0 0 24 24" fill="none" xmlns="http://www.w3.org/2000/svg">
        <g clip-path="url(#clip0_294_3724__Vite)">
            <path d="M23.9122 3.54471L12.6475 23.6866C12.5946 23.7811 12.5176 23.8599 12.4244 23.915C12.3311 23.97 12.2249 23.9994 12.1166 24C12.0083 24.0006 11.9018 23.9725 11.8079 23.9185C11.714 23.8645 11.6362 23.7866 11.5822 23.6927L0.0970747 3.55084C0.0396483 3.44996 0.0120847 3.33483 0.0175978 3.21888C0.0231109 3.10294 0.0614737 2.99095 0.128213 2.89597C0.194951 2.801 0.287316 2.72695 0.394535 2.68247C0.501753 2.638 0.619408 2.62492 0.733778 2.64476L12.0108 4.65894C12.0842 4.67119 12.1577 4.67119 12.2312 4.65894L23.2633 2.64476C23.3773 2.6244 23.4947 2.63679 23.6019 2.68048C23.7091 2.72417 23.8018 2.79737 23.8691 2.8916C23.9364 2.98582 23.9756 3.09719 23.9821 3.2128C23.9887 3.3284 23.9623 3.44349 23.9061 3.54471H23.9122Z" fill="url(#paint0_linear_294_3724__Vite)"/>
            <path d="M17.386 0L9.04767 1.63461C8.98151 1.64799 8.92163 1.68286 8.87734 1.73379C8.83305 1.78472 8.80684 1.84886 8.80278 1.91623L8.28852 10.5729C8.28542 10.6205 8.29347 10.6681 8.31203 10.712C8.33058 10.7559 8.35913 10.7949 8.3954 10.8258C8.43167 10.8567 8.47465 10.8787 8.52093 10.8901C8.56721 10.9015 8.6155 10.9019 8.66197 10.8913L10.9884 10.3525C11.039 10.3408 11.0918 10.3422 11.1418 10.3565C11.1917 10.3708 11.2372 10.3975 11.274 10.4343C11.3107 10.471 11.3375 10.5165 11.3518 10.5665C11.3661 10.6165 11.3675 10.6692 11.3557 10.7199L10.6639 14.0871C10.6521 14.1392 10.6541 14.1935 10.6698 14.2445C10.6854 14.2956 10.7142 14.3417 10.7532 14.3783C10.7922 14.4148 10.8401 14.4405 10.8921 14.4527C10.9441 14.465 10.9984 14.4635 11.0496 14.4483L12.4822 14.0075C12.5332 13.9913 12.5875 13.9889 12.6398 14.0003C12.6921 14.0117 12.7404 14.0366 12.7801 14.0725C12.8197 14.1084 12.8492 14.1541 12.8657 14.205C12.8822 14.2559 12.8851 14.3102 12.874 14.3626L11.7781 19.6766C11.7108 20.0072 12.1455 20.1847 12.3291 19.9031L12.4577 19.7133L19.2533 6.15888C19.2802 6.10726 19.2919 6.04903 19.287 5.991C19.282 5.93298 19.2606 5.87758 19.2252 5.8313C19.1899 5.78502 19.1421 5.74979 19.0874 5.72973C19.0327 5.70968 18.9735 5.70564 18.9166 5.71808L16.5289 6.18337C16.4777 6.19268 16.4249 6.18877 16.3756 6.17201C16.3263 6.15525 16.2821 6.12618 16.2472 6.08757C16.2122 6.04895 16.1877 6.00206 16.176 5.95134C16.1642 5.90061 16.1656 5.84772 16.18 5.79767L17.735 0.391817C17.7962 0.17142 17.6125 -0.036733 17.386 0.00612205V0Z" fill="url(#paint1_linear_294_3724__Vite)"/>
        </g>
        <defs>
            <linearGradient id="paint0_linear_294_3724__Vite" x1="-0.184544" y1="1.92235" x2="13.8352" y2="20.9622" gradientUnits="userSpaceOnUse">
                <stop stop-color="#41D1FF"/>
                <stop offset="1" stop-color="#BD34FE"/>
            </linearGradient>
            <linearGradient id="paint1_linear_294_3724__Vite" x1="11.368" y1="0.440794" x2="13.9025" y2="17.8399" gradientUnits="userSpaceOnUse">
                <stop stop-color="#FFEA83"/>
                <stop offset="0.1" stop-color="#FFDD35"/>
                <stop offset="1" stop-color="#FFA800"/>
            </linearGradient>
            <clipPath id="clip0_294_3724__Vite">
                <rect width="24" height="24" fill="white"/>
            </clipPath>
        </defs>
    </symbol>
    <symbol id="Zeplin" width="24" height="24" viewBox="0 0 24 24" fill="none" xmlns="http://www.w3.org/2000/svg">
        <path d="M3.69922 15.6349L2.44369 16.0936L2.37628 19.8287L6.72248 18.2409C5.23179 17.7402 4.14319 16.8592 3.69922 15.6349Z" fill="#FDBD39"/>
        <path d="M4.35625 11.6844L0 13.2758L2.44368 16.0936L3.6992 15.6349C3.25653 14.4142 3.52952 13.0343 4.35625 11.6844Z" fill="#F69833"/>
        <path d="M11.6871 6.29491C6.13978 8.3214 2.56348 12.5031 3.6992 15.6349L23.7877 8.29636C22.652 5.16448 17.2343 4.26841 11.6871 6.29491Z" fill="#FECF33"/>
        <path d="M15.7998 17.6364C21.3471 15.6099 24.9301 11.4468 23.7877 8.29636L3.69922 15.6349C4.84165 18.7853 10.2526 19.6629 15.7998 17.6364Z" fill="#EE6723"/>
        <path d="M23.7877 8.29636L3.69922 15.6349C4.09258 16.7197 5.59262 17.2541 7.69735 17.2541C9.74929 17.2541 12.376 16.7465 15.1144 15.7461C20.6617 13.7196 24.5646 10.4386 23.7877 8.29636Z" fill="#F69833"/>
        <path d="M19.7896 6.67719C17.7376 6.67719 15.111 7.18476 12.3725 8.18514C6.82524 10.2116 2.92234 13.4926 3.69921 15.6349L23.7877 8.29635C23.3943 7.2116 21.8943 6.67719 19.7896 6.67719Z" fill="#FDBD39"/>
        <path d="M18.6801 20.0265H18.68C18.089 20.0265 17.217 19.4926 16.0883 18.4397C14.753 17.194 13.2234 15.3695 11.7812 13.3023C10.3391 11.2351 9.15412 9.16849 8.44452 7.48299C7.6714 5.6462 7.56116 4.51683 8.11688 4.12622C8.23873 4.04066 8.38561 3.99731 8.55341 3.99731C9.00544 3.99731 9.88621 4.33386 11.5149 5.93725L11.5505 5.97229L11.5457 6.02213C11.5346 6.13731 11.5243 6.25353 11.5152 6.3676L11.497 6.5941L11.3372 6.43312C9.58236 4.66518 8.80987 4.47431 8.55917 4.47431C8.48768 4.47431 8.43074 4.48885 8.38993 4.51754C8.14888 4.68691 8.13337 5.51647 8.88292 7.29702C9.57985 8.95249 10.7476 10.9879 12.1711 13.0283C13.5947 15.0688 15.1008 16.8664 16.4123 18.0898C17.8265 19.409 18.4637 19.5514 18.6721 19.5514C18.744 19.5514 18.8025 19.536 18.8458 19.5055C19.1001 19.3268 19.1004 18.4381 18.2646 16.5217L18.2262 16.4337L18.3102 16.3877C18.3942 16.3417 18.4754 16.2964 18.5516 16.2531L18.6523 16.1959L18.6987 16.3022C19.2913 17.6602 19.8454 19.3861 19.1189 19.8968C18.9964 19.9828 18.8488 20.0265 18.6801 20.0265ZM18.68 19.817H18.6801L18.68 19.9217L18.68 19.817Z" fill="#EE6723"/>
        <path d="M15.9345 17.5791L15.9261 17.6835C15.7858 19.4188 15.4166 21.5051 14.4538 21.5895C14.4344 21.5913 14.4143 21.5921 14.3942 21.5921C13.7402 21.5921 13.1214 20.655 12.5551 18.8068C12.0193 17.0582 11.6035 14.7105 11.3843 12.1962C11.1651 9.68234 11.1684 7.29786 11.3936 5.48202C11.639 3.50332 12.1061 2.46997 12.782 2.41066C12.802 2.40882 12.8227 2.40787 12.8432 2.40787C13.3177 2.40787 14.0328 2.94513 14.7648 5.44759L14.2868 5.53985C14.0424 4.70359 13.776 4.02344 13.5116 3.55608C13.267 3.12379 13.0291 2.88573 12.8418 2.88573C12.8357 2.88573 12.8295 2.88598 12.8234 2.88651C12.5304 2.91224 12.1037 3.62289 11.8659 5.54102C11.6447 7.32429 11.6421 9.67303 11.8584 12.1546C12.0748 14.6365 12.4838 16.9492 13.0099 18.6664C13.2456 19.4355 13.5041 20.0693 13.7574 20.4994C13.9911 20.896 14.2172 21.1145 14.3941 21.1145C14.4002 21.1145 14.4062 21.1142 14.4123 21.1137C14.6926 21.0891 15.2208 20.3496 15.4432 17.7477L15.9345 17.5791Z" fill="#EE6723"/>
    </symbol>
</svg>