<svg width="61" height="61" viewBox="0 0 61 61" fill="none" xmlns="http://www.w3.org/2000/svg">
<path d="M8.30005 49.3913C8.30005 53.5761 11.6062 57 15.647 57H45.9531C49.9939 57 53.3 53.3859 53.3 49.2011V12.8057C53.3 10.3682 50.3187 9.2432 48.6417 10.9307L40.1256 19.5H21.7282L12.9875 10.9307C11.3 9.2432 8.30005 10.3682 8.30005 12.8057V49.3913Z" fill="url(#paint0_linear_131_573)"/>
<path d="M8.30005 49.3913C8.30005 53.5761 11.6062 57 15.647 57H45.9531C49.9939 57 53.3 53.3859 53.3 49.2011V12.8057C53.3 10.3682 50.3187 9.2432 48.6417 10.9307L40.1256 19.5H21.7282L12.9875 10.9307C11.3 9.2432 8.30005 10.3682 8.30005 12.8057V49.3913Z" fill="url(#paint1_radial_131_573)"/>
<path d="M8.30005 49.3913C8.30005 53.5761 11.6062 57 15.647 57H45.9531C49.9939 57 53.3 53.3859 53.3 49.2011V12.8057C53.3 10.3682 50.3187 9.2432 48.6417 10.9307L40.1256 19.5H21.7282L12.9875 10.9307C11.3 9.2432 8.30005 10.3682 8.30005 12.8057V49.3913Z" fill="url(#paint2_linear_131_573)"/>
<path d="M8.30005 49.3913C8.30005 53.5761 11.6062 57 15.647 57H45.9531C49.9939 57 53.3 53.3859 53.3 49.2011V12.8057C53.3 10.3682 50.3187 9.2432 48.6417 10.9307L40.1256 19.5H21.7282L12.9875 10.9307C11.3 9.2432 8.30005 10.3682 8.30005 12.8057V49.3913Z" fill="url(#paint3_linear_131_573)"/>
<path d="M8.30005 49.3913C8.30005 53.5761 11.6062 57 15.647 57H45.9531C49.9939 57 53.3 53.3859 53.3 49.2011V12.8057C53.3 10.3682 50.3187 9.2432 48.6417 10.9307L40.1256 19.5H21.7282L12.9875 10.9307C11.3 9.2432 8.30005 10.3682 8.30005 12.8057V49.3913Z" fill="url(#paint4_linear_131_573)"/>
<path d="M8.30005 49.3913C8.30005 53.5761 11.6062 57 15.647 57H45.9531C49.9939 57 53.3 53.3859 53.3 49.2011V12.8057C53.3 10.3682 50.3187 9.2432 48.6417 10.9307L40.1256 19.5H21.7282L12.9875 10.9307C11.3 9.2432 8.30005 10.3682 8.30005 12.8057V49.3913Z" fill="url(#paint5_linear_131_573)"/>
<path d="M8.30005 49.3913C8.30005 53.5761 11.6062 57 15.647 57H45.9531C49.9939 57 53.3 53.3859 53.3 49.2011V12.8057C53.3 10.3682 50.3187 9.2432 48.6417 10.9307L40.1256 19.5H21.7282L12.9875 10.9307C11.3 9.2432 8.30005 10.3682 8.30005 12.8057V49.3913Z" fill="url(#paint6_radial_131_573)"/>
<path d="M8.30005 49.3913C8.30005 53.5761 11.6062 57 15.647 57H45.9531C49.9939 57 53.3 53.3859 53.3 49.2011V12.8057C53.3 10.3682 50.3187 9.2432 48.6417 10.9307L40.1256 19.5H21.7282L12.9875 10.9307C11.3 9.2432 8.30005 10.3682 8.30005 12.8057V49.3913Z" fill="url(#paint7_radial_131_573)"/>
<path d="M8.30005 49.3913C8.30005 53.5761 11.6062 57 15.647 57H45.9531C49.9939 57 53.3 53.3859 53.3 49.2011V12.8057C53.3 10.3682 50.3187 9.2432 48.6417 10.9307L40.1256 19.5H21.7282L12.9875 10.9307C11.3 9.2432 8.30005 10.3682 8.30005 12.8057V49.3913Z" fill="url(#paint8_radial_131_573)"/>
<path d="M8.30005 49.3913C8.30005 53.5761 11.6062 57 15.647 57H45.9531C49.9939 57 53.3 53.3859 53.3 49.2011V12.8057C53.3 10.3682 50.3187 9.2432 48.6417 10.9307L40.1256 19.5H21.7282L12.9875 10.9307C11.3 9.2432 8.30005 10.3682 8.30005 12.8057V49.3913Z" fill="url(#paint9_radial_131_573)"/>
<path d="M8.30005 49.3913C8.30005 53.5761 11.6062 57 15.647 57H45.9531C49.9939 57 53.3 53.3859 53.3 49.2011V12.8057C53.3 10.3682 50.3187 9.2432 48.6417 10.9307L40.1256 19.5H21.7282L12.9875 10.9307C11.3 9.2432 8.30005 10.3682 8.30005 12.8057V49.3913Z" fill="url(#paint10_radial_131_573)"/>
<path d="M8.30005 49.3913C8.30005 53.5761 11.6062 57 15.647 57H45.9531C49.9939 57 53.3 53.3859 53.3 49.2011V12.8057C53.3 10.3682 50.3187 9.2432 48.6417 10.9307L40.1256 19.5H21.7282L12.9875 10.9307C11.3 9.2432 8.30005 10.3682 8.30005 12.8057V49.3913Z" fill="url(#paint11_radial_131_573)"/>
<path d="M8.30005 49.3913C8.30005 53.5761 11.6062 57 15.647 57H45.9531C49.9939 57 53.3 53.3859 53.3 49.2011V12.8057C53.3 10.3682 50.3187 9.2432 48.6417 10.9307L40.1256 19.5H21.7282L12.9875 10.9307C11.3 9.2432 8.30005 10.3682 8.30005 12.8057V49.3913Z" fill="url(#paint12_radial_131_573)"/>
<path d="M8.30005 49.3913C8.30005 53.5761 11.6062 57 15.647 57H45.9531C49.9939 57 53.3 53.3859 53.3 49.2011V12.8057C53.3 10.3682 50.3187 9.2432 48.6417 10.9307L40.1256 19.5H21.7282L12.9875 10.9307C11.3 9.2432 8.30005 10.3682 8.30005 12.8057V49.3913Z" fill="url(#paint13_radial_131_573)"/>
<path d="M8.30005 49.3913C8.30005 53.5761 11.6062 57 15.647 57H45.9531C49.9939 57 53.3 53.3859 53.3 49.2011V12.8057C53.3 10.3682 50.3187 9.2432 48.6417 10.9307L40.1256 19.5H21.7282L12.9875 10.9307C11.3 9.2432 8.30005 10.3682 8.30005 12.8057V49.3913Z" fill="url(#paint14_radial_131_573)"/>
<path d="M8.30005 49.3913C8.30005 53.5761 11.6062 57 15.647 57H45.9531C49.9939 57 53.3 53.3859 53.3 49.2011V12.8057C53.3 10.3682 50.3187 9.2432 48.6417 10.9307L40.1256 19.5H21.7282L12.9875 10.9307C11.3 9.2432 8.30005 10.3682 8.30005 12.8057V49.3913Z" fill="url(#paint15_radial_131_573)"/>
<path d="M8.30005 49.3913C8.30005 53.5761 11.6062 57 15.647 57H45.9531C49.9939 57 53.3 53.3859 53.3 49.2011V12.8057C53.3 10.3682 50.3187 9.2432 48.6417 10.9307L40.1256 19.5H21.7282L12.9875 10.9307C11.3 9.2432 8.30005 10.3682 8.30005 12.8057V49.3913Z" fill="url(#paint16_radial_131_573)"/>
<path d="M8.30005 49.3913C8.30005 53.5761 11.6062 57 15.647 57H45.9531C49.9939 57 53.3 53.3859 53.3 49.2011V12.8057C53.3 10.3682 50.3187 9.2432 48.6417 10.9307L40.1256 19.5H21.7282L12.9875 10.9307C11.3 9.2432 8.30005 10.3682 8.30005 12.8057V49.3913Z" fill="url(#paint17_radial_131_573)"/>
<path d="M8.30005 49.3913C8.30005 53.5761 11.6062 57 15.647 57H45.9531C49.9939 57 53.3 53.3859 53.3 49.2011V12.8057C53.3 10.3682 50.3187 9.2432 48.6417 10.9307L40.1256 19.5H21.7282L12.9875 10.9307C11.3 9.2432 8.30005 10.3682 8.30005 12.8057V49.3913Z" fill="url(#paint18_radial_131_573)"/>
<path d="M8.30005 49.3913C8.30005 53.5761 11.6062 57 15.647 57H45.9531C49.9939 57 53.3 53.3859 53.3 49.2011V12.8057C53.3 10.3682 50.3187 9.2432 48.6417 10.9307L40.1256 19.5H21.7282L12.9875 10.9307C11.3 9.2432 8.30005 10.3682 8.30005 12.8057V49.3913Z" fill="url(#paint19_radial_131_573)"/>
<path d="M8.30005 49.3913C8.30005 53.5761 11.6062 57 15.647 57H45.9531C49.9939 57 53.3 53.3859 53.3 49.2011V12.8057C53.3 10.3682 50.3187 9.2432 48.6417 10.9307L40.1256 19.5H21.7282L12.9875 10.9307C11.3 9.2432 8.30005 10.3682 8.30005 12.8057V49.3913Z" fill="url(#paint20_radial_131_573)"/>
<path d="M8.30005 49.3913C8.30005 53.5761 11.6062 57 15.647 57H45.9531C49.9939 57 53.3 53.3859 53.3 49.2011V12.8057C53.3 10.3682 50.3187 9.2432 48.6417 10.9307L40.1256 19.5H21.7282L12.9875 10.9307C11.3 9.2432 8.30005 10.3682 8.30005 12.8057V49.3913Z" fill="url(#paint21_radial_131_573)"/>
<path d="M12.2986 26.0688L17.5486 21.1938C18.1486 20.6313 18.1486 19.7313 17.5486 19.1875L11.8961 14.1678C11.1783 13.5379 9.69238 13.743 9.69238 15.3063V25.0563C9.69238 26.619 11.3424 26.9688 12.2986 26.0688Z" fill="url(#paint22_linear_131_573)"/>
<path d="M12.2986 26.0688L17.5486 21.1938C18.1486 20.6313 18.1486 19.7313 17.5486 19.1875L11.8961 14.1678C11.1783 13.5379 9.69238 13.743 9.69238 15.3063V25.0563C9.69238 26.619 11.3424 26.9688 12.2986 26.0688Z" fill="#FBA430"/>
<path d="M12.2986 26.0688L17.5486 21.1938C18.1486 20.6313 18.1486 19.7313 17.5486 19.1875L11.8961 14.1678C11.1783 13.5379 9.69238 13.743 9.69238 15.3063V25.0563C9.69238 26.619 11.3424 26.9688 12.2986 26.0688Z" fill="url(#paint23_radial_131_573)"/>
<path d="M12.2986 26.0688L17.5486 21.1938C18.1486 20.6313 18.1486 19.7313 17.5486 19.1875L11.8961 14.1678C11.1783 13.5379 9.69238 13.743 9.69238 15.3063V25.0563C9.69238 26.619 11.3424 26.9688 12.2986 26.0688Z" fill="url(#paint24_radial_131_573)"/>
<path d="M12.2986 26.0688L17.5486 21.1938C18.1486 20.6313 18.1486 19.7313 17.5486 19.1875L11.8961 14.1678C11.1783 13.5379 9.69238 13.743 9.69238 15.3063V25.0563C9.69238 26.619 11.3424 26.9688 12.2986 26.0688Z" fill="url(#paint25_radial_131_573)"/>
<path fill-rule="evenodd" clip-rule="evenodd" d="M56.8865 39.1282C57.1537 39.6892 56.9156 40.3605 56.3547 40.6277L49.2209 44.0262C48.66 44.2934 47.9887 44.0553 47.7214 43.4944C47.4542 42.9334 47.6923 42.2621 48.2532 41.9949L55.387 38.5964C55.948 38.3292 56.6193 38.5673 56.8865 39.1282Z" fill="url(#paint26_linear_131_573)"/>
<path fill-rule="evenodd" clip-rule="evenodd" d="M56.8865 39.1282C57.1537 39.6892 56.9156 40.3605 56.3547 40.6277L49.2209 44.0262C48.66 44.2934 47.9887 44.0553 47.7214 43.4944C47.4542 42.9334 47.6923 42.2621 48.2532 41.9949L55.387 38.5964C55.948 38.3292 56.6193 38.5673 56.8865 39.1282Z" fill="url(#paint27_linear_131_573)"/>
<path fill-rule="evenodd" clip-rule="evenodd" d="M56.8865 39.1282C57.1537 39.6892 56.9156 40.3605 56.3547 40.6277L49.2209 44.0262C48.66 44.2934 47.9887 44.0553 47.7214 43.4944C47.4542 42.9334 47.6923 42.2621 48.2532 41.9949L55.387 38.5964C55.948 38.3292 56.6193 38.5673 56.8865 39.1282Z" fill="url(#paint28_radial_131_573)"/>
<path fill-rule="evenodd" clip-rule="evenodd" d="M56.8865 39.1282C57.1537 39.6892 56.9156 40.3605 56.3547 40.6277L49.2209 44.0262C48.66 44.2934 47.9887 44.0553 47.7214 43.4944C47.4542 42.9334 47.6923 42.2621 48.2532 41.9949L55.387 38.5964C55.948 38.3292 56.6193 38.5673 56.8865 39.1282Z" fill="url(#paint29_radial_131_573)"/>
<path fill-rule="evenodd" clip-rule="evenodd" d="M56.8865 39.1282C57.1537 39.6892 56.9156 40.3605 56.3547 40.6277L49.2209 44.0262C48.66 44.2934 47.9887 44.0553 47.7214 43.4944C47.4542 42.9334 47.6923 42.2621 48.2532 41.9949L55.387 38.5964C55.948 38.3292 56.6193 38.5673 56.8865 39.1282Z" fill="url(#paint30_radial_131_573)"/>
<path fill-rule="evenodd" clip-rule="evenodd" d="M56.8747 50.9012C56.6065 51.4616 55.9348 51.6986 55.3743 51.4304L48.2464 48.0197C47.6859 47.7515 47.449 47.0797 47.7172 46.5193C47.9854 45.9588 48.6571 45.7219 49.2176 45.99L56.3455 49.4008C56.9059 49.669 57.1429 50.3407 56.8747 50.9012Z" fill="url(#paint31_linear_131_573)"/>
<path fill-rule="evenodd" clip-rule="evenodd" d="M56.8747 50.9012C56.6065 51.4616 55.9348 51.6986 55.3743 51.4304L48.2464 48.0197C47.6859 47.7515 47.449 47.0797 47.7172 46.5193C47.9854 45.9588 48.6571 45.7219 49.2176 45.99L56.3455 49.4008C56.9059 49.669 57.1429 50.3407 56.8747 50.9012Z" fill="url(#paint32_linear_131_573)"/>
<path fill-rule="evenodd" clip-rule="evenodd" d="M56.8747 50.9012C56.6065 51.4616 55.9348 51.6986 55.3743 51.4304L48.2464 48.0197C47.6859 47.7515 47.449 47.0797 47.7172 46.5193C47.9854 45.9588 48.6571 45.7219 49.2176 45.99L56.3455 49.4008C56.9059 49.669 57.1429 50.3407 56.8747 50.9012Z" fill="url(#paint33_radial_131_573)"/>
<path fill-rule="evenodd" clip-rule="evenodd" d="M56.8747 50.9012C56.6065 51.4616 55.9348 51.6986 55.3743 51.4304L48.2464 48.0197C47.6859 47.7515 47.449 47.0797 47.7172 46.5193C47.9854 45.9588 48.6571 45.7219 49.2176 45.99L56.3455 49.4008C56.9059 49.669 57.1429 50.3407 56.8747 50.9012Z" fill="url(#paint34_radial_131_573)"/>
<path fill-rule="evenodd" clip-rule="evenodd" d="M56.8747 50.9012C56.6065 51.4616 55.9348 51.6986 55.3743 51.4304L48.2464 48.0197C47.6859 47.7515 47.449 47.0797 47.7172 46.5193C47.9854 45.9588 48.6571 45.7219 49.2176 45.99L56.3455 49.4008C56.9059 49.669 57.1429 50.3407 56.8747 50.9012Z" fill="url(#paint35_radial_131_573)"/>
<path fill-rule="evenodd" clip-rule="evenodd" d="M4.89751 50.9231C5.16569 51.4836 5.83744 51.7205 6.3979 51.4524L13.5258 48.0416C14.0863 47.7734 14.3232 47.1017 14.055 46.5412C13.7869 45.9808 13.1151 45.7438 12.5547 46.012L5.42673 49.4227C4.86627 49.6909 4.62933 50.3627 4.89751 50.9231Z" fill="url(#paint36_linear_131_573)"/>
<path fill-rule="evenodd" clip-rule="evenodd" d="M4.89751 50.9231C5.16569 51.4836 5.83744 51.7205 6.3979 51.4524L13.5258 48.0416C14.0863 47.7734 14.3232 47.1017 14.055 46.5412C13.7869 45.9808 13.1151 45.7438 12.5547 46.012L5.42673 49.4227C4.86627 49.6909 4.62933 50.3627 4.89751 50.9231Z" fill="url(#paint37_linear_131_573)"/>
<path fill-rule="evenodd" clip-rule="evenodd" d="M4.89751 50.9231C5.16569 51.4836 5.83744 51.7205 6.3979 51.4524L13.5258 48.0416C14.0863 47.7734 14.3232 47.1017 14.055 46.5412C13.7869 45.9808 13.1151 45.7438 12.5547 46.012L5.42673 49.4227C4.86627 49.6909 4.62933 50.3627 4.89751 50.9231Z" fill="url(#paint38_radial_131_573)"/>
<path fill-rule="evenodd" clip-rule="evenodd" d="M4.89751 50.9231C5.16569 51.4836 5.83744 51.7205 6.3979 51.4524L13.5258 48.0416C14.0863 47.7734 14.3232 47.1017 14.055 46.5412C13.7869 45.9808 13.1151 45.7438 12.5547 46.012L5.42673 49.4227C4.86627 49.6909 4.62933 50.3627 4.89751 50.9231Z" fill="url(#paint39_radial_131_573)"/>
<path fill-rule="evenodd" clip-rule="evenodd" d="M4.89751 50.9231C5.16569 51.4836 5.83744 51.7205 6.3979 51.4524L13.5258 48.0416C14.0863 47.7734 14.3232 47.1017 14.055 46.5412C13.7869 45.9808 13.1151 45.7438 12.5547 46.012L5.42673 49.4227C4.86627 49.6909 4.62933 50.3627 4.89751 50.9231Z" fill="url(#paint40_radial_131_573)"/>
<path fill-rule="evenodd" clip-rule="evenodd" d="M4.8935 39.1412C4.62905 39.7035 4.87045 40.3736 5.43268 40.6381L12.5831 44.0013C13.1454 44.2658 13.8155 44.0244 14.08 43.4621C14.3444 42.8999 14.103 42.2297 13.5408 41.9653L6.39034 38.602C5.8281 38.3376 5.15794 38.579 4.8935 39.1412Z" fill="url(#paint41_linear_131_573)"/>
<path fill-rule="evenodd" clip-rule="evenodd" d="M4.8935 39.1412C4.62905 39.7035 4.87045 40.3736 5.43268 40.6381L12.5831 44.0013C13.1454 44.2658 13.8155 44.0244 14.08 43.4621C14.3444 42.8999 14.103 42.2297 13.5408 41.9653L6.39034 38.602C5.8281 38.3376 5.15794 38.579 4.8935 39.1412Z" fill="url(#paint42_linear_131_573)"/>
<path fill-rule="evenodd" clip-rule="evenodd" d="M4.8935 39.1412C4.62905 39.7035 4.87045 40.3736 5.43268 40.6381L12.5831 44.0013C13.1454 44.2658 13.8155 44.0244 14.08 43.4621C14.3444 42.8999 14.103 42.2297 13.5408 41.9653L6.39034 38.602C5.8281 38.3376 5.15794 38.579 4.8935 39.1412Z" fill="url(#paint43_radial_131_573)"/>
<path fill-rule="evenodd" clip-rule="evenodd" d="M4.8935 39.1412C4.62905 39.7035 4.87045 40.3736 5.43268 40.6381L12.5831 44.0013C13.1454 44.2658 13.8155 44.0244 14.08 43.4621C14.3444 42.8999 14.103 42.2297 13.5408 41.9653L6.39034 38.602C5.8281 38.3376 5.15794 38.579 4.8935 39.1412Z" fill="url(#paint44_radial_131_573)"/>
<path fill-rule="evenodd" clip-rule="evenodd" d="M4.8935 39.1412C4.62905 39.7035 4.87045 40.3736 5.43268 40.6381L12.5831 44.0013C13.1454 44.2658 13.8155 44.0244 14.08 43.4621C14.3444 42.8999 14.103 42.2297 13.5408 41.9653L6.39034 38.602C5.8281 38.3376 5.15794 38.579 4.8935 39.1412Z" fill="url(#paint45_radial_131_573)"/>
<path d="M49.2368 26.0688L43.9868 21.1938C43.3868 20.6313 43.3868 19.7313 43.9868 19.1875L49.6393 14.1678C50.3571 13.5379 51.843 13.743 51.843 15.3063V25.0563C51.843 26.619 50.193 26.9688 49.2368 26.0688Z" fill="#FFCD45"/>
<path d="M49.2368 26.0688L43.9868 21.1938C43.3868 20.6313 43.3868 19.7313 43.9868 19.1875L49.6393 14.1678C50.3571 13.5379 51.843 13.743 51.843 15.3063V25.0563C51.843 26.619 50.193 26.9688 49.2368 26.0688Z" fill="url(#paint46_linear_131_573)"/>
<path d="M49.2368 26.0688L43.9868 21.1938C43.3868 20.6313 43.3868 19.7313 43.9868 19.1875L49.6393 14.1678C50.3571 13.5379 51.843 13.743 51.843 15.3063V25.0563C51.843 26.619 50.193 26.9688 49.2368 26.0688Z" fill="url(#paint47_radial_131_573)"/>
<path d="M49.2368 26.0688L43.9868 21.1938C43.3868 20.6313 43.3868 19.7313 43.9868 19.1875L49.6393 14.1678C50.3571 13.5379 51.843 13.743 51.843 15.3063V25.0563C51.843 26.619 50.193 26.9688 49.2368 26.0688Z" fill="url(#paint48_radial_131_573)"/>
<path d="M49.2368 26.0688L43.9868 21.1938C43.3868 20.6313 43.3868 19.7313 43.9868 19.1875L49.6393 14.1678C50.3571 13.5379 51.843 13.743 51.843 15.3063V25.0563C51.843 26.619 50.193 26.9688 49.2368 26.0688Z" fill="url(#paint49_radial_131_573)"/>
<path d="M49.2368 26.0688L43.9868 21.1938C43.3868 20.6313 43.3868 19.7313 43.9868 19.1875L49.6393 14.1678C50.3571 13.5379 51.843 13.743 51.843 15.3063V25.0563C51.843 26.619 50.193 26.9688 49.2368 26.0688Z" fill="url(#paint50_radial_131_573)"/>
<path d="M49.2368 26.0688L43.9868 21.1938C43.3868 20.6313 43.3868 19.7313 43.9868 19.1875L49.6393 14.1678C50.3571 13.5379 51.843 13.743 51.843 15.3063V25.0563C51.843 26.619 50.193 26.9688 49.2368 26.0688Z" fill="url(#paint51_radial_131_573)"/>
<path d="M29.3498 38.6371L29.4704 38.609C30.3584 38.4018 31.2832 38.4115 32.1667 38.6371C33.1438 38.8211 33.727 39.9411 32.902 40.7473L31.8693 41.8753C31.3631 42.3815 30.2516 42.3815 29.7453 41.8753L28.7273 40.7473C27.885 39.7952 28.4123 38.843 29.3498 38.6371Z" fill="url(#paint52_radial_131_573)"/>
<path d="M29.3498 38.6371L29.4704 38.609C30.3584 38.4018 31.2832 38.4115 32.1667 38.6371C33.1438 38.8211 33.727 39.9411 32.902 40.7473L31.8693 41.8753C31.3631 42.3815 30.2516 42.3815 29.7453 41.8753L28.7273 40.7473C27.885 39.7952 28.4123 38.843 29.3498 38.6371Z" fill="url(#paint53_radial_131_573)" fill-opacity="0.8"/>
<path d="M39.0837 43.9775C39.0837 48.5525 35.3677 52.1074 30.7927 52.1074C26.2177 52.1074 22.7068 48.4646 22.7068 43.8896C22.7068 43.8896 26.0906 47.8887 30.7927 43.8896C35.2019 47.7861 39.0837 43.9775 39.0837 43.9775Z" fill="url(#paint54_linear_131_573)"/>
<path fill-rule="evenodd" clip-rule="evenodd" d="M21.9946 36.1239C21.7302 36.4717 21.6223 36.9135 21.6133 37.1853C21.5946 37.7546 21.1179 38.2008 20.5487 38.1821C19.9794 38.1633 19.5332 37.6866 19.552 37.1174C19.5723 36.5005 19.7837 35.624 20.3528 34.8756C20.9566 34.0815 21.9291 33.4834 23.3073 33.4834C24.6993 33.4834 25.681 34.1116 26.2885 34.9138C26.8626 35.6718 27.0928 36.5652 27.1068 37.2019C27.1193 37.7714 26.6679 38.2431 26.0985 38.2556C25.5291 38.2681 25.0573 37.8167 25.0448 37.2473C25.0393 36.9953 24.9282 36.5338 24.6443 36.159C24.394 35.8284 24.0012 35.5459 23.3073 35.5459C22.5995 35.5459 22.2243 35.8218 21.9946 36.1239Z" fill="url(#paint55_radial_131_573)"/>
<path fill-rule="evenodd" clip-rule="evenodd" d="M21.9946 36.1239C21.7302 36.4717 21.6223 36.9135 21.6133 37.1853C21.5946 37.7546 21.1179 38.2008 20.5487 38.1821C19.9794 38.1633 19.5332 37.6866 19.552 37.1174C19.5723 36.5005 19.7837 35.624 20.3528 34.8756C20.9566 34.0815 21.9291 33.4834 23.3073 33.4834C24.6993 33.4834 25.681 34.1116 26.2885 34.9138C26.8626 35.6718 27.0928 36.5652 27.1068 37.2019C27.1193 37.7714 26.6679 38.2431 26.0985 38.2556C25.5291 38.2681 25.0573 37.8167 25.0448 37.2473C25.0393 36.9953 24.9282 36.5338 24.6443 36.159C24.394 35.8284 24.0012 35.5459 23.3073 35.5459C22.5995 35.5459 22.2243 35.8218 21.9946 36.1239Z" fill="url(#paint56_linear_131_573)"/>
<path fill-rule="evenodd" clip-rule="evenodd" d="M36.936 36.1239C36.6716 36.4717 36.5637 36.9135 36.5547 37.1853C36.536 37.7546 36.0593 38.2008 35.4901 38.1821C34.9208 38.1633 34.4746 37.6866 34.4934 37.1174C34.5137 36.5005 34.7251 35.624 35.2942 34.8756C35.898 34.0815 36.8705 33.4834 38.2487 33.4834C39.6407 33.4834 40.6224 34.1116 41.2299 34.9138C41.804 35.6718 42.0342 36.5652 42.0482 37.2019C42.0607 37.7714 41.6093 38.2431 41.0399 38.2556C40.4705 38.2681 39.9987 37.8167 39.9862 37.2473C39.9807 36.9953 39.8696 36.5338 39.5857 36.159C39.3354 35.8284 38.9426 35.5459 38.2487 35.5459C37.5409 35.5459 37.1658 35.8218 36.936 36.1239Z" fill="url(#paint57_radial_131_573)"/>
<path fill-rule="evenodd" clip-rule="evenodd" d="M36.936 36.1239C36.6716 36.4717 36.5637 36.9135 36.5547 37.1853C36.536 37.7546 36.0593 38.2008 35.4901 38.1821C34.9208 38.1633 34.4746 37.6866 34.4934 37.1174C34.5137 36.5005 34.7251 35.624 35.2942 34.8756C35.898 34.0815 36.8705 33.4834 38.2487 33.4834C39.6407 33.4834 40.6224 34.1116 41.2299 34.9138C41.804 35.6718 42.0342 36.5652 42.0482 37.2019C42.0607 37.7714 41.6093 38.2431 41.0399 38.2556C40.4705 38.2681 39.9987 37.8167 39.9862 37.2473C39.9807 36.9953 39.8696 36.5338 39.5857 36.159C39.3354 35.8284 38.9426 35.5459 38.2487 35.5459C37.5409 35.5459 37.1658 35.8218 36.936 36.1239Z" fill="url(#paint58_linear_131_573)"/>
<defs>
<linearGradient id="paint0_linear_131_573" x1="15.6251" y1="3.28083" x2="15.6251" y2="58.8562" gradientUnits="userSpaceOnUse">
<stop offset="0.288159" stop-color="#FFCE2C"/>
<stop offset="0.762024" stop-color="#F79B22"/>
<stop offset="0.9925" stop-color="#E3821D"/>
<stop offset="1" stop-color="#E3801D"/>
</linearGradient>
<radialGradient id="paint1_radial_131_573" cx="0" cy="0" r="1" gradientUnits="userSpaceOnUse" gradientTransform="translate(45.7062 32.2286) rotate(90) scale(19.3169 18.5442)">
<stop stop-color="#FFDE68"/>
<stop offset="1" stop-color="#FFDD68" stop-opacity="0"/>
</radialGradient>
<linearGradient id="paint2_linear_131_573" x1="31.5514" y1="26.934" x2="8.30005" y2="23.6932" gradientUnits="userSpaceOnUse">
<stop stop-color="#E99E20" stop-opacity="0"/>
<stop offset="1" stop-color="#FF9F3D"/>
</linearGradient>
<linearGradient id="paint3_linear_131_573" x1="51.0334" y1="23.3119" x2="57.5095" y2="23.3119" gradientUnits="userSpaceOnUse">
<stop stop-color="#E99E20" stop-opacity="0"/>
<stop offset="0.9925" stop-color="#E3821D"/>
<stop offset="1" stop-color="#E3801D"/>
</linearGradient>
<linearGradient id="paint4_linear_131_573" x1="30.8018" y1="-2.23986" x2="30.8001" y2="58.8562" gradientUnits="userSpaceOnUse">
<stop offset="0.77079" stop-color="#F59639" stop-opacity="0"/>
<stop offset="1" stop-color="#FF63C4"/>
</linearGradient>
<linearGradient id="paint5_linear_131_573" x1="30.8" y1="21.8477" x2="30.8" y2="61.6406" gradientUnits="userSpaceOnUse">
<stop offset="0.854227" stop-color="white" stop-opacity="0"/>
<stop offset="0.985362" stop-color="white"/>
</linearGradient>
<radialGradient id="paint6_radial_131_573" cx="0" cy="0" r="1" gradientUnits="userSpaceOnUse" gradientTransform="translate(42.3791 9.14415) rotate(55.4547) scale(10.0707 20.0076)">
<stop stop-color="#FFA720"/>
<stop offset="0.921158" stop-color="#FFA720" stop-opacity="0"/>
</radialGradient>
<radialGradient id="paint7_radial_131_573" cx="0" cy="0" r="1" gradientUnits="userSpaceOnUse" gradientTransform="translate(7.31528 45.1442) scale(11.4196 16.244)">
<stop offset="0.260619" stop-color="#C57310" stop-opacity="0.8"/>
<stop offset="0.590058" stop-color="#CB750D" stop-opacity="0.37"/>
<stop offset="0.921158" stop-color="#D77A09" stop-opacity="0"/>
</radialGradient>
<radialGradient id="paint8_radial_131_573" cx="0" cy="0" r="1" gradientUnits="userSpaceOnUse" gradientTransform="translate(48.4348 43.1728) rotate(63.9247) scale(1.39011 2.11412)">
<stop offset="0.380208" stop-color="#D77A09"/>
<stop offset="1" stop-color="#D77A09" stop-opacity="0"/>
</radialGradient>
<radialGradient id="paint9_radial_131_573" cx="0" cy="0" r="1" gradientUnits="userSpaceOnUse" gradientTransform="translate(51.5618 49.2731) rotate(111.218) scale(1.81363 5.29702)">
<stop offset="0.380208" stop-color="#D77A09"/>
<stop offset="1" stop-color="#D77A09" stop-opacity="0"/>
</radialGradient>
<radialGradient id="paint10_radial_131_573" cx="0" cy="0" r="1" gradientUnits="userSpaceOnUse" gradientTransform="translate(29.4524 41.0039) rotate(140.08) scale(1.87179 2.4637)">
<stop offset="0.493447" stop-color="#D77A09" stop-opacity="0.5"/>
<stop offset="1" stop-color="#D77A09" stop-opacity="0"/>
</radialGradient>
<radialGradient id="paint11_radial_131_573" cx="0" cy="0" r="1" gradientUnits="userSpaceOnUse" gradientTransform="translate(40.3661 37.0975) rotate(73.2562) scale(2.10047 1.12025)">
<stop offset="0.616663" stop-color="#D77A09" stop-opacity="0.5"/>
<stop offset="1" stop-color="#D77A09" stop-opacity="0"/>
</radialGradient>
<radialGradient id="paint12_radial_131_573" cx="0" cy="0" r="1" gradientUnits="userSpaceOnUse" gradientTransform="translate(38.6956 35.1031) rotate(35.2367) scale(2.4522 1.30784)">
<stop offset="0.616663" stop-color="#D77A09" stop-opacity="0.5"/>
<stop offset="1" stop-color="#D77A09" stop-opacity="0"/>
</radialGradient>
<radialGradient id="paint13_radial_131_573" cx="0" cy="0" r="1" gradientUnits="userSpaceOnUse" gradientTransform="translate(36.7865 35.5719) rotate(-17.057) scale(2.35359 1.25525)">
<stop offset="0.616663" stop-color="#D77A09" stop-opacity="0.5"/>
<stop offset="1" stop-color="#D77A09" stop-opacity="0"/>
</radialGradient>
<radialGradient id="paint14_radial_131_573" cx="0" cy="0" r="1" gradientUnits="userSpaceOnUse" gradientTransform="translate(35.2092 36.8144) rotate(-84.144) scale(2.29714 1.34851)">
<stop offset="0.616663" stop-color="#D77A09" stop-opacity="0.5"/>
<stop offset="1" stop-color="#D77A09" stop-opacity="0"/>
</radialGradient>
<radialGradient id="paint15_radial_131_573" cx="0" cy="0" r="1" gradientUnits="userSpaceOnUse" gradientTransform="translate(25.3508 37.2832) rotate(69.6769) scale(1.68705 0.899761)">
<stop offset="0.616663" stop-color="#D77A09" stop-opacity="0.5"/>
<stop offset="1" stop-color="#D77A09" stop-opacity="0"/>
</radialGradient>
<radialGradient id="paint16_radial_131_573" cx="0" cy="0" r="1" gradientUnits="userSpaceOnUse" gradientTransform="translate(24.0911 35.2324) rotate(43.2986) scale(2.09324 1.1164)">
<stop offset="0.616663" stop-color="#D77A09" stop-opacity="0.5"/>
<stop offset="1" stop-color="#D77A09" stop-opacity="0"/>
</radialGradient>
<radialGradient id="paint17_radial_131_573" cx="0" cy="0" r="1" gradientUnits="userSpaceOnUse" gradientTransform="translate(21.3665 36.082) rotate(-22.4794) scale(2.75842 1.47116)">
<stop offset="0.616663" stop-color="#D77A09" stop-opacity="0.5"/>
<stop offset="1" stop-color="#D77A09" stop-opacity="0"/>
</radialGradient>
<radialGradient id="paint18_radial_131_573" cx="0" cy="0" r="1" gradientUnits="userSpaceOnUse" gradientTransform="translate(20.1946 37.0195) rotate(-86.8202) scale(2.11263 1.24019)">
<stop offset="0.616663" stop-color="#D77A09" stop-opacity="0.5"/>
<stop offset="1" stop-color="#D77A09" stop-opacity="0"/>
</radialGradient>
<radialGradient id="paint19_radial_131_573" cx="0" cy="0" r="1" gradientUnits="userSpaceOnUse" gradientTransform="translate(15.9971 13.5622) rotate(44.113) scale(10.4796 2.92633)">
<stop offset="0.293395" stop-color="#FFDE68"/>
<stop offset="1" stop-color="#FFDD68" stop-opacity="0"/>
</radialGradient>
<radialGradient id="paint20_radial_131_573" cx="0" cy="0" r="1" gradientUnits="userSpaceOnUse" gradientTransform="translate(20.3109 16.2052) rotate(-65.2905) scale(6.02857 4.11989)">
<stop offset="0.257229" stop-color="#FFDE68"/>
<stop offset="1" stop-color="#FFDD68" stop-opacity="0"/>
</radialGradient>
<radialGradient id="paint21_radial_131_573" cx="0" cy="0" r="1" gradientUnits="userSpaceOnUse" gradientTransform="translate(52.4456 11.5546) rotate(101.957) scale(4.80132 2.64658)">
<stop stop-color="#FFDE68"/>
<stop offset="1" stop-color="#FFDD68" stop-opacity="0"/>
</radialGradient>
<linearGradient id="paint22_linear_131_573" x1="20.6794" y1="20.6571" x2="9.69238" y2="19.6317" gradientUnits="userSpaceOnUse">
<stop offset="0.437473" stop-color="#ED8C1B"/>
<stop offset="1" stop-color="#FFB03A"/>
</linearGradient>
<radialGradient id="paint23_radial_131_573" cx="0" cy="0" r="1" gradientUnits="userSpaceOnUse" gradientTransform="translate(10.4213 20.196) scale(0.583456 5.76177)">
<stop stop-color="white" stop-opacity="0.3"/>
<stop offset="1" stop-color="white" stop-opacity="0"/>
</radialGradient>
<radialGradient id="paint24_radial_131_573" cx="0" cy="0" r="1" gradientUnits="userSpaceOnUse" gradientTransform="translate(15.1634 23.4966) rotate(46.1691) scale(1.7559 17.34)">
<stop stop-color="#ED8C1B" stop-opacity="0.8"/>
<stop offset="1" stop-color="#ED8C1B" stop-opacity="0"/>
</radialGradient>
<radialGradient id="paint25_radial_131_573" cx="0" cy="0" r="1" gradientUnits="userSpaceOnUse" gradientTransform="translate(14.7418 16.6299) rotate(-49.1363) scale(1.70111 16.7989)">
<stop stop-color="#ED8C1B" stop-opacity="0.5"/>
<stop offset="1" stop-color="#ED8C1B" stop-opacity="0"/>
</radialGradient>
<linearGradient id="paint26_linear_131_573" x1="48.2186" y1="43.7722" x2="55.8709" y2="40.1394" gradientUnits="userSpaceOnUse">
<stop offset="0.15625" stop-color="#D64A38"/>
<stop offset="1" stop-color="#FB7425"/>
</linearGradient>
<linearGradient id="paint27_linear_131_573" x1="52.0339" y1="40.1957" x2="53.0134" y2="42.2301" gradientUnits="userSpaceOnUse">
<stop stop-color="white" stop-opacity="0"/>
<stop offset="0.520833" stop-color="white" stop-opacity="0.2"/>
<stop offset="1" stop-color="white" stop-opacity="0"/>
</linearGradient>
<radialGradient id="paint28_radial_131_573" cx="0" cy="0" r="1" gradientUnits="userSpaceOnUse" gradientTransform="translate(47.6089 43.5699) rotate(-26.8937) scale(1.95902)">
<stop stop-color="#D64A38"/>
<stop offset="1" stop-color="#D64A38" stop-opacity="0"/>
</radialGradient>
<radialGradient id="paint29_radial_131_573" cx="0" cy="0" r="1" gradientUnits="userSpaceOnUse" gradientTransform="translate(56.9996 39.1987) rotate(151.353) scale(1.81413)">
<stop stop-color="#FB7425"/>
<stop offset="1" stop-color="#FB7425" stop-opacity="0"/>
</radialGradient>
<radialGradient id="paint30_radial_131_573" cx="0" cy="0" r="1" gradientUnits="userSpaceOnUse" gradientTransform="translate(56.0115 39.1942) rotate(125.032) scale(0.878844)">
<stop stop-color="white" stop-opacity="0.3"/>
<stop offset="1" stop-color="white" stop-opacity="0"/>
</radialGradient>
<linearGradient id="paint31_linear_131_573" x1="47.8137" y1="47.0806" x2="55.4498" y2="50.7471" gradientUnits="userSpaceOnUse">
<stop offset="0.15625" stop-color="#D64A38"/>
<stop offset="1" stop-color="#FB7425"/>
</linearGradient>
<linearGradient id="paint32_linear_131_573" x1="52.9936" y1="47.7988" x2="52.0274" y2="49.8396" gradientUnits="userSpaceOnUse">
<stop stop-color="white" stop-opacity="0"/>
<stop offset="0.520833" stop-color="white" stop-opacity="0.2"/>
<stop offset="1" stop-color="white" stop-opacity="0"/>
</linearGradient>
<radialGradient id="paint33_radial_131_573" cx="0" cy="0" r="1" gradientUnits="userSpaceOnUse" gradientTransform="translate(47.5877 46.4793) rotate(24.15) scale(1.95902)">
<stop stop-color="#D64A38"/>
<stop offset="1" stop-color="#D64A38" stop-opacity="0"/>
</radialGradient>
<radialGradient id="paint34_radial_131_573" cx="0" cy="0" r="1" gradientUnits="userSpaceOnUse" gradientTransform="translate(56.891 51.0334) rotate(-157.603) scale(1.81413)">
<stop stop-color="#FB7425"/>
<stop offset="1" stop-color="#FB7425" stop-opacity="0"/>
</radialGradient>
<radialGradient id="paint35_radial_131_573" cx="0" cy="0" r="1" gradientUnits="userSpaceOnUse" gradientTransform="translate(56.3009 50.026) rotate(154.486) scale(1.08511)">
<stop stop-color="white" stop-opacity="0.3"/>
<stop offset="1" stop-color="white" stop-opacity="0"/>
</radialGradient>
<linearGradient id="paint36_linear_131_573" x1="13.9585" y1="47.1026" x2="6.32239" y2="50.7691" gradientUnits="userSpaceOnUse">
<stop offset="0.15625" stop-color="#D64A38"/>
<stop offset="1" stop-color="#FB7425"/>
</linearGradient>
<linearGradient id="paint37_linear_131_573" x1="8.7786" y1="47.8207" x2="9.74478" y2="49.8615" gradientUnits="userSpaceOnUse">
<stop stop-color="white" stop-opacity="0"/>
<stop offset="0.520833" stop-color="white" stop-opacity="0.2"/>
<stop offset="1" stop-color="white" stop-opacity="0"/>
</linearGradient>
<radialGradient id="paint38_radial_131_573" cx="0" cy="0" r="1" gradientUnits="userSpaceOnUse" gradientTransform="translate(14.1845 46.5013) rotate(155.85) scale(1.95902)">
<stop stop-color="#D64A38"/>
<stop offset="1" stop-color="#D64A38" stop-opacity="0"/>
</radialGradient>
<radialGradient id="paint39_radial_131_573" cx="0" cy="0" r="1" gradientUnits="userSpaceOnUse" gradientTransform="translate(4.88119 51.0554) rotate(-22.3971) scale(1.81413)">
<stop stop-color="#FB7425"/>
<stop offset="1" stop-color="#FB7425" stop-opacity="0"/>
</radialGradient>
<radialGradient id="paint40_radial_131_573" cx="0" cy="0" r="1" gradientUnits="userSpaceOnUse" gradientTransform="translate(13.0603 46.8126) rotate(141.872) scale(0.931404)">
<stop stop-color="white" stop-opacity="0.3"/>
<stop offset="1" stop-color="white" stop-opacity="0"/>
</radialGradient>
<linearGradient id="paint41_linear_131_573" x1="13.5842" y1="43.7424" x2="5.91411" y2="40.1474" gradientUnits="userSpaceOnUse">
<stop offset="0.15625" stop-color="#D64A38"/>
<stop offset="1" stop-color="#FB7425"/>
</linearGradient>
<linearGradient id="paint42_linear_131_573" x1="9.75136" y1="40.1848" x2="8.78188" y2="42.224" gradientUnits="userSpaceOnUse">
<stop stop-color="white" stop-opacity="0"/>
<stop offset="0.520833" stop-color="white" stop-opacity="0.2"/>
<stop offset="1" stop-color="white" stop-opacity="0"/>
</linearGradient>
<radialGradient id="paint43_radial_131_573" cx="0" cy="0" r="1" gradientUnits="userSpaceOnUse" gradientTransform="translate(14.1928 43.5371) rotate(-153.389) scale(1.95902)">
<stop stop-color="#D64A38"/>
<stop offset="1" stop-color="#D64A38" stop-opacity="0"/>
</radialGradient>
<radialGradient id="paint44_radial_131_573" cx="0" cy="0" r="1" gradientUnits="userSpaceOnUse" gradientTransform="translate(4.78076 39.2122) rotate(28.3641) scale(1.81413)">
<stop stop-color="#FB7425"/>
<stop offset="1" stop-color="#FB7425" stop-opacity="0"/>
</radialGradient>
<radialGradient id="paint45_radial_131_573" cx="0" cy="0" r="1" gradientUnits="userSpaceOnUse" gradientTransform="translate(13.2405 42.8633) rotate(-167.367) scale(0.931404)">
<stop stop-color="white" stop-opacity="0.3"/>
<stop offset="1" stop-color="white" stop-opacity="0"/>
</radialGradient>
<linearGradient id="paint46_linear_131_573" x1="50.5623" y1="29.827" x2="48.2185" y2="23.3231" gradientUnits="userSpaceOnUse">
<stop stop-color="#EF8A47"/>
<stop offset="1" stop-color="#EF8A47" stop-opacity="0"/>
</linearGradient>
<radialGradient id="paint47_radial_131_573" cx="0" cy="0" r="1" gradientUnits="userSpaceOnUse" gradientTransform="translate(46.372 23.4966) rotate(133.831) scale(1.7559 17.34)">
<stop stop-color="#FFA319"/>
<stop offset="1" stop-color="#FFBA19" stop-opacity="0"/>
</radialGradient>
<radialGradient id="paint48_radial_131_573" cx="0" cy="0" r="1" gradientUnits="userSpaceOnUse" gradientTransform="translate(51.843 20.0272) scale(1.44593 14.2789)">
<stop stop-color="#FF9419"/>
<stop offset="1" stop-color="#FFBA19" stop-opacity="0"/>
</radialGradient>
<radialGradient id="paint49_radial_131_573" cx="0" cy="0" r="1" gradientUnits="userSpaceOnUse" gradientTransform="translate(46.7936 16.6299) rotate(-130.864) scale(1.70111 16.7989)">
<stop stop-color="#FF9B19" stop-opacity="0.5"/>
<stop offset="1" stop-color="#FFBA19" stop-opacity="0"/>
</radialGradient>
<radialGradient id="paint50_radial_131_573" cx="0" cy="0" r="1" gradientUnits="userSpaceOnUse" gradientTransform="translate(47.5377 22.5435) rotate(-45.7638) scale(0.94302 4.50189)">
<stop stop-color="white" stop-opacity="0.3"/>
<stop offset="1" stop-color="white" stop-opacity="0"/>
</radialGradient>
<radialGradient id="paint51_radial_131_573" cx="0" cy="0" r="1" gradientUnits="userSpaceOnUse" gradientTransform="translate(48.0178 17.3872) rotate(-132.184) scale(0.767848 4.59886)">
<stop stop-color="white" stop-opacity="0.2"/>
<stop offset="1" stop-color="white" stop-opacity="0"/>
</radialGradient>
<radialGradient id="paint52_radial_131_573" cx="0" cy="0" r="1" gradientUnits="userSpaceOnUse" gradientTransform="translate(31.6365 40.4617) rotate(-153.246) scale(3.96992 3.99339)">
<stop stop-color="#FF2BA3"/>
<stop offset="1" stop-color="#F9326A"/>
</radialGradient>
<radialGradient id="paint53_radial_131_573" cx="0" cy="0" r="1" gradientUnits="userSpaceOnUse" gradientTransform="translate(31.7913 39.5654) rotate(90) scale(0.877159 1.54195)">
<stop stop-color="white" stop-opacity="0.5"/>
<stop offset="1" stop-color="white" stop-opacity="0"/>
</radialGradient>
<linearGradient id="paint54_linear_131_573" x1="30.8876" y1="52.3546" x2="30.8876" y2="44.0632" gradientUnits="userSpaceOnUse">
<stop stop-color="#E61E27"/>
<stop offset="1" stop-color="#672A7A"/>
</linearGradient>
<radialGradient id="paint55_radial_131_573" cx="0" cy="0" r="1" gradientUnits="userSpaceOnUse" gradientTransform="translate(23.3292 37.4787) rotate(-91.0929) scale(10.7995 10.798)">
<stop offset="0.166667" stop-color="#482641"/>
<stop offset="0.276042" stop-color="#594253"/>
<stop offset="0.401042" stop-color="#483637"/>
</radialGradient>
<linearGradient id="paint56_linear_131_573" x1="19.5206" y1="38.5137" x2="22.8312" y2="36.1113" gradientUnits="userSpaceOnUse">
<stop stop-color="#271B27"/>
<stop offset="1" stop-color="#483637" stop-opacity="0"/>
</linearGradient>
<radialGradient id="paint57_radial_131_573" cx="0" cy="0" r="1" gradientUnits="userSpaceOnUse" gradientTransform="translate(38.2706 37.4787) rotate(-91.0929) scale(10.7995 10.798)">
<stop offset="0.166667" stop-color="#482641"/>
<stop offset="0.276042" stop-color="#594253"/>
<stop offset="0.401042" stop-color="#483637"/>
</radialGradient>
<linearGradient id="paint58_linear_131_573" x1="34.462" y1="38.5137" x2="37.7726" y2="36.1113" gradientUnits="userSpaceOnUse">
<stop stop-color="#271B27"/>
<stop offset="1" stop-color="#483637" stop-opacity="0"/>
</linearGradient>
</defs>
</svg>
